<svg width="24" height="25" viewBox="0 0 24 25" fill="none" xmlns="http://www.w3.org/2000/svg">
<path id="Arrow" d="M16 0.5H8C5.87903 0.50247 3.84563 1.34612 2.34587 2.84587C0.846118 4.34563 0.00247015 6.37903 0 8.5V16.5C0.00247015 18.621 0.846118 20.6544 2.34587 22.1541C3.84563 23.6539 5.87903 24.4975 8 24.5H16C18.121 24.4975 20.1544 23.6539 21.6541 22.1541C23.1539 20.6544 23.9975 18.621 24 16.5V8.5C23.9975 6.37903 23.1539 4.34563 21.6541 2.84587C20.1544 1.34612 18.121 0.50247 16 0.5ZM22.2222 16.5C22.2205 18.1497 21.5643 19.7313 20.3978 20.8978C19.2313 22.0643 17.6497 22.7205 16 22.7222H10.6667C8.78068 22.7222 6.97194 21.973 5.63835 20.6394C4.30476 19.3058 3.55556 17.4971 3.55556 15.6111C3.55556 13.6396 3.708 11.8653 1.77778 10.3942V8.5C1.77954 6.85031 2.43566 5.26868 3.60217 4.10217C4.76868 2.93566 6.35031 2.27954 8 2.27778H16C17.6497 2.27954 19.2313 2.93566 20.3978 4.10217C21.5643 5.26868 22.2205 6.85031 22.2222 8.5V16.5ZM18.1067 12.5C18.1067 12.7357 18.013 12.9618 17.8463 13.1285C17.6796 13.2952 17.4535 13.3889 17.2178 13.3889H8.68844L11.6444 16.9129C11.7236 17.0017 11.7841 17.1054 11.8225 17.2181C11.8608 17.3307 11.8761 17.4498 11.8676 17.5685C11.859 17.6871 11.8267 17.8028 11.7726 17.9088C11.7185 18.0147 11.6437 18.1087 11.5526 18.1852C11.4615 18.2617 11.3559 18.3191 11.2422 18.3541C11.1285 18.389 11.009 18.4008 10.8906 18.3887C10.7723 18.3766 10.6576 18.3409 10.5533 18.2837C10.449 18.2265 10.3573 18.1489 10.2836 18.0556L6.10089 13.0716C6.09822 13.0684 6.09689 13.0644 6.09422 13.0613C6.084 13.0489 6.07556 13.0356 6.06622 13.0227C6.05067 13.0018 6.03689 12.9782 6.02178 12.9578C6.01289 12.9427 6.00222 12.9289 5.99378 12.9133C5.98533 12.8978 5.98267 12.8876 5.97644 12.8742C5.96559 12.8512 5.95609 12.8276 5.948 12.8036C5.94178 12.7862 5.93333 12.7698 5.92844 12.752C5.92356 12.7342 5.92267 12.7253 5.91956 12.7116C5.91345 12.6874 5.9087 12.6629 5.90533 12.6382C5.90222 12.6204 5.89778 12.6027 5.896 12.5844C5.89422 12.5662 5.896 12.5524 5.896 12.5364C5.896 12.5204 5.892 12.5124 5.892 12.5C5.892 12.4876 5.89511 12.476 5.896 12.4636C5.89689 12.4511 5.896 12.4316 5.896 12.4156C5.896 12.3996 5.90222 12.3796 5.90533 12.3618C5.9087 12.3371 5.91345 12.3126 5.91956 12.2884C5.92267 12.2747 5.92444 12.2613 5.92844 12.248C5.93244 12.2347 5.94178 12.2138 5.948 12.1964C5.95422 12.1791 5.96578 12.1484 5.97644 12.1258C5.98267 12.1124 5.98711 12.0996 5.99378 12.0867C6.00044 12.0738 6.01289 12.0573 6.02178 12.0422C6.03511 12.02 6.04889 11.9978 6.06622 11.9773C6.07556 11.9644 6.084 11.9511 6.09422 11.9387C6.09689 11.9356 6.09822 11.9316 6.10089 11.9284L10.2836 6.94444C10.4374 6.77189 10.6524 6.66607 10.883 6.64942C11.1136 6.63277 11.3416 6.7066 11.5186 6.85525C11.6957 7.00391 11.8078 7.21569 11.8313 7.44567C11.8548 7.67565 11.7878 7.90573 11.6444 8.08711L8.68844 11.6111H17.2178C17.4535 11.6111 17.6796 11.7048 17.8463 11.8715C18.013 12.0382 18.1067 12.2643 18.1067 12.5Z" fill="#128C56"/>
</svg>
