<svg width="20" height="21" viewBox="0 0 20 21" fill="none" xmlns="http://www.w3.org/2000/svg">
<g id="arrows">
<g id="exit-right-corner">
<path id="Vector" opacity="0.3" d="M14.24 2.56H3.77C1.68789 2.56 0 4.24788 0 6.33V16.75C0 18.8321 1.68789 20.52 3.77 20.52H14.24C16.3221 20.52 18.01 18.8321 18.01 16.75V6.33C18.01 4.24788 16.3221 2.56 14.24 2.56Z" fill="black"/>
<path id="Vector_2" d="M11.37 10.17L18.48 3.08999V5.43999C18.48 5.64155 18.5601 5.83486 18.7026 5.97739C18.8451 6.11992 19.0384 6.19999 19.24 6.19999C19.4416 6.19999 19.6349 6.11992 19.7774 5.97739C19.9199 5.83486 20 5.64155 20 5.43999V1.25999C20 1.05842 19.9199 0.865114 19.7774 0.722586C19.6349 0.580058 19.4416 0.499987 19.24 0.499987H15.05C14.9499 0.499304 14.8507 0.518386 14.7581 0.556139C14.6654 0.593893 14.5811 0.649574 14.51 0.719987C14.4026 0.826291 14.3294 0.962175 14.2997 1.11029C14.2699 1.2584 14.285 1.41203 14.3429 1.55155C14.4009 1.69106 14.4991 1.81014 14.625 1.89358C14.751 1.97702 14.8989 2.02103 15.05 2.01999H17.4L10.3 9.09999C10.1795 9.24576 10.1176 9.43124 10.1266 9.62016C10.1355 9.80909 10.2146 9.9879 10.3483 10.1216C10.4821 10.2554 10.6609 10.3345 10.8498 10.3434C11.0387 10.3523 11.2242 10.2905 11.37 10.17Z" fill="black"/>
</g>
</g>
</svg>
