<svg width="24" height="24" viewBox="0 0 24 24" fill="none" xmlns="http://www.w3.org/2000/svg">
<g id="gen/gen014">
<path id="Vector" opacity="0.3" d="M20.6207 21.7517H3.4166C2.84313 21.7517 2.46082 21.3694 2.46082 20.7959V5.50339C2.46082 4.92992 2.84313 4.54761 3.4166 4.54761H20.6207C21.1941 4.54761 21.5765 4.92992 21.5765 5.50339V20.7959C21.5765 21.3694 21.1941 21.7517 20.6207 21.7517Z" fill="black"/>
<path id="Vector_2" d="M6.28391 6.45912C5.71044 6.45912 5.32812 6.0768 5.32812 5.50333V3.59177C5.32812 3.0183 5.71044 2.63599 6.28391 2.63599C6.85738 2.63599 7.23969 3.0183 7.23969 3.59177V5.50333C7.23969 6.0768 6.85738 6.45912 6.28391 6.45912ZM11.0628 5.50333V3.59177C11.0628 3.0183 10.6805 2.63599 10.107 2.63599C9.53357 2.63599 9.15125 3.0183 9.15125 3.59177V5.50333C9.15125 6.0768 9.53357 6.45912 10.107 6.45912C10.6805 6.45912 11.0628 6.0768 11.0628 5.50333ZM14.8859 5.50333V3.59177C14.8859 3.0183 14.5036 2.63599 13.9302 2.63599C13.3567 2.63599 12.9744 3.0183 12.9744 3.59177V5.50333C12.9744 6.0768 13.3567 6.45912 13.9302 6.45912C14.5036 6.45912 14.8859 6.0768 14.8859 5.50333ZM18.7091 5.50333V3.59177C18.7091 3.0183 18.3268 2.63599 17.7533 2.63599C17.1798 2.63599 16.7975 3.0183 16.7975 3.59177V5.50333C16.7975 6.0768 17.1798 6.45912 17.7533 6.45912C18.3268 6.45912 18.7091 6.0768 18.7091 5.50333Z" fill="black"/>
<path id="Vector_3" d="M8.96006 13.2454C9.34238 13.2454 9.62911 13.1498 9.82026 12.9586C10.0114 12.7675 10.2026 12.4807 10.2026 12.0984C10.2026 11.8117 10.107 11.525 9.91585 11.3338C9.72469 11.1427 9.43795 11.0471 9.15122 11.0471C8.96006 11.0471 8.7689 11.0471 8.57774 11.1427C8.38659 11.2382 8.29101 11.3338 8.19544 11.4294C8.09986 11.525 8.00428 11.6206 7.9087 11.8117C7.81312 12.0029 7.71754 12.0984 7.71754 12.2896C7.71754 12.3852 7.62197 12.3852 7.52639 12.4808C7.43081 12.5763 7.33523 12.5763 7.14407 12.5763C6.95291 12.5763 6.85734 12.4807 6.76176 12.3852C6.66618 12.2896 6.57061 12.0984 6.57061 11.9073C6.57061 11.7161 6.66618 11.525 6.76176 11.3338C6.85734 11.1427 7.0485 10.9515 7.23965 10.7603C7.43081 10.5692 7.71754 10.378 8.09985 10.2825C8.48216 10.1869 8.76891 10.0913 9.2468 10.0913C9.62912 10.0913 9.91585 10.1869 10.2026 10.2825C10.4893 10.378 10.776 10.5692 10.9672 10.6648C11.1584 10.7603 11.3495 11.0471 11.4451 11.3338C11.5407 11.6206 11.6363 11.8117 11.6363 12.0984C11.6363 12.4807 11.5407 12.7675 11.3495 13.0542C11.1584 13.341 10.9672 13.6277 10.6805 13.8188C10.9672 14.01 11.2539 14.2012 11.4451 14.3923C11.6362 14.5835 11.8274 14.7746 11.923 15.0614C12.0186 15.3481 12.1141 15.5393 12.1141 15.826C12.1141 16.2083 12.0186 16.495 11.923 16.7818C11.8274 17.0685 11.5407 17.3552 11.3495 17.642C11.1584 17.9287 10.7761 18.1199 10.3937 18.2154C10.0114 18.311 9.62911 18.4066 9.15122 18.4066C8.67333 18.4066 8.29101 18.311 7.9087 18.1199C7.52639 17.9287 7.23966 17.7376 7.0485 17.5464C6.85734 17.3552 6.66619 17.0685 6.57061 16.7818C6.47503 16.495 6.37946 16.3039 6.37946 16.1127C6.37946 15.9216 6.47503 15.7304 6.57061 15.6348C6.66619 15.5393 6.85734 15.4437 7.0485 15.4437C7.14408 15.4437 7.23966 15.4437 7.33524 15.5393C7.43082 15.6348 7.52639 15.6348 7.52639 15.7304C7.71755 16.2083 7.9087 16.5906 8.19544 16.8773C8.48217 17.1641 8.76891 17.2597 9.15122 17.2597C9.34237 17.2597 9.62911 17.1641 9.82026 17.0685C10.0114 16.9729 10.2026 16.7818 10.3937 16.5906C10.5849 16.3995 10.5849 16.1127 10.5849 15.826C10.5849 15.3481 10.4893 15.0614 10.2026 14.7746C9.91585 14.4879 9.62912 14.3923 9.2468 14.3923C9.15122 14.3923 9.05564 14.3923 8.86448 14.3923C8.67332 14.3923 8.57774 14.3923 8.57774 14.3923C8.38659 14.3923 8.19543 14.2967 8.09985 14.2012C8.00427 14.1056 7.9087 13.9144 7.9087 13.8188C7.9087 13.6277 8.00427 13.5321 8.09985 13.341C8.19543 13.1498 8.38659 13.1498 8.67333 13.1498H8.96006V13.2454ZM15.1726 17.4508V12.3852C14.2169 13.1498 13.5478 13.4365 13.2611 13.4365C13.0699 13.4365 12.9743 13.341 12.8788 13.2454C12.7832 13.1498 12.6876 12.9586 12.6876 12.7675C12.6876 12.5763 12.7832 12.4807 12.8788 12.3852C12.9743 12.2896 13.1655 12.194 13.5478 12.0029C14.0257 11.8117 14.408 11.525 14.5992 11.3338C14.7903 11.1427 15.0771 10.8559 15.3638 10.5692C15.6505 10.2825 15.7461 10.0913 15.7461 9.99572C15.7461 9.90014 15.9373 9.90015 16.1284 9.90015C16.3196 9.90015 16.5107 9.99572 16.6063 10.0913C16.7019 10.1869 16.7975 10.4736 16.7975 10.7603V17.1641C16.7975 17.9287 16.5107 18.311 16.0328 18.311C15.8417 18.311 15.6505 18.2154 15.4594 18.1199C15.2682 18.0243 15.1726 17.7376 15.1726 17.4508Z" fill="black"/>
</g>
</svg>
