<svg width="13" height="15" viewBox="0 0 13 15" fill="none" xmlns="http://www.w3.org/2000/svg">
<path id="Vector" d="M0.00488787 5.07926C-0.0357145 4.24191 0.177591 3.4148 0.609233 2.72131L0.721671 2.55079L0.730964 2.54144L0.809024 2.44632L0.8908 2.3492L0.900093 2.33919C1.05621 2.17298 1.22906 2.0268 1.41553 1.90198L1.46819 1.86736L1.52085 1.83523L1.64475 1.76114C1.69494 1.73644 1.74945 1.70707 1.79963 1.68238C1.83619 1.66769 1.87274 1.64833 1.90929 1.63365C1.97806 1.60361 2.05116 1.57424 2.12426 1.54954C2.14904 1.53686 2.17506 1.52685 2.2017 1.52018L2.23128 1.50783L2.26365 1.49548C2.59696 1.39202 2.93955 1.32059 3.28586 1.28789L3.25 1.29225V0.546272C3.25 0.247167 3.48233 0.00532381 3.76968 0.00532381C4.05702 0.00532381 4.29 0.247167 4.29 0.546272V2.90408C4.29 3.20318 4.05702 3.4457 3.76968 3.4457C3.48233 3.4457 3.25 3.20318 3.25 2.90408L3.25003 2.35897C2.90889 2.39444 2.57392 2.48258 2.25622 2.62221C1.43638 3.00522 1.04538 3.73461 1.00833 4.89052L1.00541 5.07658V5.36694H11.9951V5.06924C12.0161 4.53391 11.9127 4.00125 11.6934 3.51999C11.4827 3.10814 11.1457 2.78841 10.7387 2.61487C10.4795 2.49899 10.208 2.41814 9.93053 2.37403L9.75 2.35125L9.75002 2.90136C9.75002 3.19917 9.51732 3.44039 9.23002 3.44039C8.94272 3.44039 8.71002 3.19917 8.71002 2.90136L8.71 2.31075L4.29506 2.31116V1.23849L8.71 1.23825L8.71002 0.543099C8.70742 0.245284 8.93882 0.00204664 9.22612 1.25586e-05C9.51342 -0.00199609 9.74807 0.237199 9.75002 0.535013L9.75044 1.2881C10.0028 1.31396 10.253 1.35967 10.4993 1.42498L10.7443 1.49681C10.7641 1.50082 10.7789 1.50616 10.8062 1.51617C10.8335 1.52618 10.8564 1.53619 10.8836 1.54554C10.9561 1.57024 11.0237 1.59961 11.0937 1.62964C11.1339 1.64433 11.1711 1.66369 11.2027 1.67837C11.2572 1.70307 11.313 1.73244 11.3576 1.75714C11.4034 1.78183 11.4474 1.8092 11.4858 1.83123C11.5242 1.85325 11.554 1.87795 11.5862 1.89798C11.7265 1.99209 11.8598 2.09823 11.9844 2.21496L12.106 2.33519L12.1115 2.3452L12.1965 2.43881L12.2763 2.53744L12.2807 2.54678C12.7479 3.21777 12.9992 4.03265 13 4.86752L12.995 5.07658V5.36694H13V11.1826C13 13.7187 11.6361 15 8.93324 15H4.06056C1.36385 15 7.36999e-10 13.7187 7.36999e-10 11.1826V5.36694H0.00488787V5.07926ZM9.47258 10.6847C9.13782 10.6847 8.87125 10.9702 8.87125 11.322C8.87745 11.6739 9.14402 11.9594 9.47258 11.9594C9.80115 11.9594 10.0677 11.6739 10.0677 11.322C10.0677 10.9702 9.80115 10.6847 9.47258 10.6847ZM6.5031 10.6781C6.16834 10.6847 5.90176 10.9702 5.90176 11.322C5.90176 11.6739 6.17453 11.9594 6.5031 11.9594C6.83166 11.9594 7.09824 11.6739 7.09824 11.3154C7.09204 10.9702 6.83166 10.6847 6.5031 10.6781ZM3.52742 10.6781C3.19266 10.6781 2.92609 10.9702 2.93228 11.322C2.93228 11.6739 3.19886 11.9594 3.52742 11.9594C3.85598 11.9594 4.12256 11.6673 4.12256 11.3154C4.12256 10.9635 3.85598 10.6781 3.52742 10.6781ZM9.47258 7.96276C9.13782 7.96276 8.87744 8.24823 8.87744 8.60009C8.87744 8.95196 9.14402 9.23743 9.47258 9.23743C9.80115 9.23743 10.0677 8.95196 10.0677 8.60009C10.0677 8.24823 9.80115 7.96276 9.47258 7.96276ZM6.5031 7.95612C6.16834 7.96276 5.90176 8.24823 5.90176 8.60009C5.90176 8.95196 6.17453 9.23743 6.5031 9.23743C6.83166 9.23743 7.09824 8.95196 7.09824 8.59346C7.09824 8.24823 6.83166 7.96276 6.5031 7.95612ZM3.53362 7.95612C3.19886 7.95612 2.93228 8.24823 2.93228 8.60009C2.93228 8.95196 3.19886 9.23743 3.52742 9.23743C3.86218 9.23743 4.12876 8.94532 4.12256 8.59346C4.12256 8.24159 3.85599 7.95612 3.53362 7.95612Z" fill="#128C56"/>
</svg>
