<svg width="48" height="44" viewBox="0 0 48 44" fill="none" xmlns="http://www.w3.org/2000/svg">
<g id="Group 174">
<path id="78 Transaction, Exchange, Money, Online" d="M5.42855 36.8714H13.0956V39.0403H5.42855C4.56571 39.0403 3.7382 38.6976 3.12808 38.0874C2.51796 37.4773 2.17519 36.6498 2.17519 35.787V22.6868H4.3441V35.787C4.3441 36.0746 4.45836 36.3504 4.66173 36.5538C4.8651 36.7572 5.14094 36.8714 5.42855 36.8714ZM43.3844 35.787C43.3844 36.0746 43.2702 36.3504 43.0668 36.5538C42.8634 36.7572 42.5876 36.8714 42.3 36.8714H34.7847V39.0403H42.3C43.1628 39.0403 43.9903 38.6976 44.6004 38.0874C45.2106 37.4773 45.5533 36.6498 45.5533 35.787V22.8386H43.3844V35.787ZM4.3441 11.929H2.17519V3.25336C2.17519 2.39052 2.51796 1.56301 3.12808 0.952887C3.7382 0.342764 4.56571 0 5.42855 0H42.3C43.1628 0 43.9903 0.342764 44.6004 0.952887C45.2106 1.56301 45.5533 2.39052 45.5533 3.25336V11.9941H43.3844V8.67563H4.3441V11.929ZM11.9353 5.42227H15.1886V3.25336H11.9353V5.42227ZM6.51301 5.42227H9.76637V3.25336H6.51301V5.42227ZM33.6243 33.618C33.6243 35.5484 33.0519 37.4354 31.9795 39.0405C30.907 40.6455 29.3827 41.8965 27.5993 42.6352C25.8159 43.3739 23.8534 43.5672 21.9602 43.1906C20.0669 42.814 18.3278 41.8844 16.9628 40.5195C15.5979 39.1545 14.6683 37.4154 14.2917 35.5221C13.9151 33.6289 14.1084 31.6665 14.8471 29.883C15.5858 28.0996 16.8368 26.5753 18.4419 25.5028C20.0469 24.4304 21.9339 23.858 23.8643 23.858C26.4528 23.858 28.9353 24.8863 30.7657 26.7166C32.596 28.547 33.6243 31.0295 33.6243 33.618ZM27.1176 29.2802H24.9487V28.1958H22.7798V29.2802H21.6954C21.4077 29.2802 21.1319 29.3945 20.9285 29.5979C20.7252 29.8012 20.6109 30.0771 20.6109 30.3647V33.618C20.6109 33.9057 20.7252 34.1815 20.9285 34.3849C21.1319 34.5882 21.4077 34.7025 21.6954 34.7025H24.9487V35.787H20.6109V37.9559H22.7798V39.0403H24.9487V37.9559H26.0332C26.3208 37.9559 26.5966 37.8416 26.8 37.6382C27.0034 37.4349 27.1176 37.159 27.1176 36.8714V33.618C27.1176 33.3304 27.0034 33.0546 26.8 32.8512C26.5966 32.6479 26.3208 32.5336 26.0332 32.5336H22.7798V31.4491H27.1176V29.2802ZM28.2021 18.4357V16.2668H19.5264V18.4357H28.2021ZM5.11406 19.8347L3.70427 18.4357H17.3575V16.2668H3.70427L5.11406 14.8679L3.57414 13.3279L0.320779 16.5813C0.219135 16.6821 0.138458 16.802 0.083402 16.9342C0.0283457 17.0663 0 17.2081 0 17.3513C0 17.4944 0.0283457 17.6362 0.083402 17.7683C0.138458 17.9005 0.219135 18.0204 0.320779 18.1212L3.57414 21.3746L5.11406 19.8347ZM47.4077 16.5813L44.1544 13.3279L42.6145 14.8679L44.0242 16.2668H30.371V18.4357H44.0242L42.6145 19.8347L44.1544 21.3746L47.4077 18.1212C47.5094 18.0204 47.5901 17.9005 47.6451 17.7683C47.7002 17.6362 47.7285 17.4944 47.7285 17.3513C47.7285 17.2081 47.7002 17.0663 47.6451 16.9342C47.5901 16.802 47.5094 16.6821 47.4077 16.5813Z" fill="#017E8A"/>
</g>
</svg>
