<svg width="11" height="11" viewBox="0 0 11 11" fill="none" xmlns="http://www.w3.org/2000/svg">
<path d="M5.5 11C8.53256 11 11 8.53256 11 5.5C11 2.46744 8.53256 0 5.5 0C2.46744 0 0 2.46744 0 5.5C0 8.53256 2.46744 11 5.5 11ZM5.5 0.458333C8.28002 0.458333 10.5417 2.71998 10.5417 5.5C10.5417 8.28002 8.28002 10.5417 5.5 10.5417C2.71998 10.5417 0.458333 8.28002 0.458333 5.5C0.458333 2.71998 2.71998 0.458333 5.5 0.458333Z" fill="#128C56"/>
<path d="M8.87035 4.51618L8.54631 4.19214L5.49999 7.23845L2.45368 4.19214L2.12964 4.51618L5.49999 7.88653L8.87035 4.51618Z" fill="#128C56"/>
</svg>
