<svg width="24" height="24" viewBox="0 0 24 24" fill="none" xmlns="http://www.w3.org/2000/svg">
<g id="gen/gen013">
<path id="Vector" opacity="0.3" d="M20.7667 13.054C20.1932 13.054 19.8109 12.6717 19.8109 12.0982C19.8109 11.5248 20.1932 11.1425 20.7667 11.1425H21.6269C21.149 6.65027 17.6126 3.0183 13.1204 2.63599V3.49619C13.1204 4.06966 12.7381 4.45197 12.1646 4.45197C11.5912 4.45197 11.2088 4.06966 11.2088 3.49619V2.63599C6.71667 3.11388 3.08471 6.65027 2.70239 11.1425H3.56259C4.13606 11.1425 4.51837 11.5248 4.51837 12.0982C4.51837 12.6717 4.13606 13.054 3.56259 13.054H2.70239C3.18028 17.5462 6.71667 21.1782 11.2088 21.5605V20.7003C11.2088 20.1268 11.5912 19.7445 12.1646 19.7445C12.7381 19.7445 13.1204 20.1268 13.1204 20.7003V21.5605C17.6126 21.0826 21.2446 17.5462 21.6269 13.054H20.7667Z" fill="black"/>
<path id="Vector_2" d="M16.9436 11.1427H13.7895C13.5983 10.8559 13.4072 10.6648 13.1204 10.4736V6.36374C13.1204 5.79027 12.7381 5.40796 12.1646 5.40796C11.5912 5.40796 11.2089 5.79027 11.2089 6.36374V10.4736C10.9221 10.6648 10.731 10.8559 10.5398 11.1427H10.2531C9.67962 11.1427 9.2973 11.525 9.2973 12.0984C9.2973 12.6719 9.67962 13.0542 10.2531 13.0542H10.5398C10.731 13.341 10.9221 13.5321 11.2089 13.7233V14.01C11.2089 14.5835 11.5912 14.9658 12.1646 14.9658C12.7381 14.9658 13.1204 14.5835 13.1204 14.01V13.7233C13.4072 13.5321 13.5983 13.341 13.7895 13.0542H16.9436C17.517 13.0542 17.8993 12.6719 17.8993 12.0984C17.8993 11.525 17.517 11.1427 16.9436 11.1427Z" fill="black"/>
</g>
</svg>
