<svg width="13" height="14" viewBox="0 0 13 14" fill="none" xmlns="http://www.w3.org/2000/svg">
<path id="Vector" d="M5.10327 0.736842H8.10327C8.31036 0.736842 8.47827 0.57188 8.47827 0.368421C8.47827 0.164962 8.31036 0 8.10327 0H5.10327C4.89618 0 4.72827 0.164962 4.72827 0.368421C4.72827 0.57188 4.89618 0.736842 5.10327 0.736842ZM11.0984 4.2099L12.1184 3.20781C12.2588 3.06506 12.2588 2.83871 12.1184 2.69592C11.9745 2.54958 11.7371 2.54553 11.5881 2.68688L10.5681 3.68898C9.51044 2.77166 8.12511 2.21053 6.60327 2.21053C5.08144 2.21053 3.69611 2.77166 2.63835 3.68902L1.61836 2.68693C1.47307 2.549 1.24268 2.549 1.09734 2.68693C0.948379 2.82828 0.94426 3.06151 1.08813 3.20785L2.10812 4.20995C1.17442 5.2491 0.603271 6.61013 0.603271 8.10526C0.603271 11.3608 3.28957 14 6.60327 14C9.91542 13.9963 12.5995 11.3593 12.6033 8.10526C12.6033 6.61013 12.0321 5.2491 11.0984 4.2099ZM6.60327 13.2632C3.7038 13.2632 1.35327 10.9539 1.35327 8.10526C1.35327 6.68627 1.93706 5.40152 2.88092 4.46895C2.88467 4.46553 2.88985 4.46427 2.89346 4.46072C2.89717 4.45712 2.89827 4.45217 2.90175 4.44844C3.85097 3.52096 5.15875 2.94737 6.60327 2.94737C8.05077 2.94908 9.36102 3.52568 10.3106 4.45708C10.3126 4.4591 10.3145 4.46099 10.3166 4.46301C11.2646 5.39589 11.8515 6.68316 11.8533 8.10526C11.8533 10.9539 9.50275 13.2632 6.60327 13.2632ZM6.97827 7.06764V5.52632C6.97827 5.32286 6.81036 5.15789 6.60327 5.15789C6.39618 5.15789 6.22827 5.32286 6.22827 5.52632V7.06764C5.79234 7.21987 5.47827 7.62472 5.47827 8.10526C5.47827 8.71568 5.98195 9.21053 6.60327 9.21053C7.22459 9.21053 7.72827 8.71568 7.72827 8.10526C7.72827 7.62472 7.4142 7.21987 6.97827 7.06764Z" fill="black"/>
</svg>
