<svg width="28" height="25" viewBox="0 0 28 25" fill="none" xmlns="http://www.w3.org/2000/svg">
<rect y="0.5" width="28" height="24" rx="4" fill="#DAECE4"/>
<path d="M10.344 15.596C8.608 15.596 7.312 14.388 7.312 12.7C7.312 11.012 8.608 9.804 10.352 9.804C11.32 9.804 12.128 10.156 12.656 10.796L11.824 11.564C11.448 11.132 10.976 10.908 10.416 10.908C9.368 10.908 8.624 11.644 8.624 12.7C8.624 13.756 9.368 14.492 10.416 14.492C10.976 14.492 11.448 14.268 11.824 13.828L12.656 14.596C12.128 15.244 11.32 15.596 10.344 15.596ZM19.8432 15.5H18.6272L18.6192 12.14L16.9712 14.908H16.3872L14.7472 12.212V15.5H13.5312V9.9H14.6032L16.6992 13.38L18.7632 9.9H19.8272L19.8432 15.5Z" fill="black"/>
</svg>
