<svg width="30" height="30" viewBox="0 0 30 30" fill="none" xmlns="http://www.w3.org/2000/svg">
<g id="Group 150">
<path id="Vector" d="M23.1579 13.0634C19.5572 13.0634 16.6262 10.1325 16.6262 6.53172C16.6262 2.93096 19.5572 0 23.1579 0C26.7587 0 29.6897 2.93096 29.6897 6.53172C29.6897 10.1325 26.7587 13.0634 23.1579 13.0634ZM23.1579 2.37517C20.8659 2.37517 19.0014 4.23968 19.0014 6.53172C19.0014 8.82376 20.8659 10.6883 23.1579 10.6883C25.45 10.6883 27.3145 8.82376 27.3145 6.53172C27.3145 4.23968 25.45 2.37517 23.1579 2.37517Z" fill="#128C56"/>
<path id="Vector_2" d="M21.3765 29.6896H3.56276C1.59849 29.6896 0 28.0911 0 26.1269V8.31309C0 6.34883 1.59849 4.75034 3.56276 4.75034H13.0634C13.3784 4.75034 13.6805 4.87546 13.9032 5.09817C14.1259 5.32089 14.251 5.62295 14.251 5.93792C14.251 6.25289 14.1259 6.55496 13.9032 6.77767C13.6805 7.00039 13.3784 7.12551 13.0634 7.12551H3.56276C3.24779 7.12551 2.94572 7.25063 2.72301 7.47334C2.50029 7.69606 2.37517 7.99812 2.37517 8.31309V26.1269C2.37517 26.4418 2.50029 26.7439 2.72301 26.9666C2.94572 27.1893 3.24779 27.3145 3.56276 27.3145H21.3765C21.6915 27.3145 21.9936 27.1893 22.2163 26.9666C22.439 26.7439 22.5641 26.4418 22.5641 26.1269V16.6262C22.5641 16.3112 22.6892 16.0092 22.912 15.7864C23.1347 15.5637 23.4367 15.4386 23.7517 15.4386C24.0667 15.4386 24.3687 15.5637 24.5915 15.7864C24.8142 16.0092 24.9393 16.3112 24.9393 16.6262V26.1269C24.9393 28.0911 23.3408 29.6896 21.3765 29.6896Z" fill="#128C56"/>
</g>
</svg>
