<svg width="22" height="26" viewBox="0 0 22 26" fill="none" xmlns="http://www.w3.org/2000/svg">
<g id="Group 153">
<path id="Vector" d="M10.9227 18.5714C6.82585 18.5714 3.49414 15.2397 3.49414 11.1429C3.49414 7.04601 6.82585 3.71429 10.9227 3.71429C15.0196 3.71429 18.3513 7.04601 18.3513 11.1429C18.3513 15.2397 15.0196 18.5714 10.9227 18.5714ZM10.9227 5.57144C7.851 5.57144 5.35128 8.07115 5.35128 11.1429C5.35128 14.2146 7.851 16.7143 10.9227 16.7143C13.9944 16.7143 16.4941 14.2146 16.4941 11.1429C16.4941 8.07115 13.9944 5.57144 10.9227 5.57144Z" fill="white"/>
<path id="Vector_2" d="M13.0194 14.1645L10.9227 13.065L8.82599 14.1645L9.22899 11.8337L7.53528 10.1809L9.87713 9.84103L10.9227 7.71646L11.9683 9.84103L14.3101 10.1809L12.6164 11.8337L13.0194 14.1645ZM10.9227 26C10.6763 26.0001 10.44 25.9026 10.2653 25.7289L3.19328 18.6569C3.02413 18.4818 2.93054 18.2472 2.93265 18.0037C2.93477 17.7603 3.03242 17.5274 3.20459 17.3552C3.37675 17.183 3.60965 17.0854 3.85312 17.0833C4.09659 17.0811 4.33115 17.1747 4.50628 17.3439L10.9227 23.7585L17.3373 17.3439C17.5124 17.1747 17.747 17.0811 17.9904 17.0833C18.2339 17.0854 18.4668 17.183 18.639 17.3552C18.8111 17.5274 18.9088 17.7603 18.9109 18.0037C18.913 18.2472 18.8194 18.4818 18.6503 18.6569L11.5783 25.7289C11.4922 25.815 11.39 25.8833 11.2775 25.9298C11.165 25.9763 11.0444 26.0002 10.9227 26Z" fill="white"/>
<path id="Vector_3" d="M17.9947 18.928C17.8112 18.928 17.6318 18.8735 17.4792 18.7716C17.3266 18.6697 17.2076 18.5248 17.1373 18.3553C17.0669 18.1859 17.0484 17.9993 17.084 17.8193C17.1196 17.6393 17.2077 17.4738 17.3373 17.3438C19.0357 15.6411 19.9894 13.3343 19.9894 10.9293C19.9894 8.5243 19.0357 6.21748 17.3373 4.51471C15.6231 2.80057 13.3463 1.85714 10.9227 1.85714C8.49914 1.85714 6.22228 2.80057 4.50814 4.51471C2.80975 6.21748 1.85598 8.5243 1.85598 10.9293C1.85598 13.3343 2.80975 15.6411 4.50814 17.3438C4.67729 17.519 4.77088 17.7535 4.76876 17.997C4.76665 18.2405 4.66899 18.4734 4.49683 18.6455C4.32466 18.8177 4.09177 18.9154 3.8483 18.9175C3.60483 18.9196 3.37027 18.826 3.19514 18.6568C1.14905 16.6056 0 13.8266 0 10.9293C0 8.032 1.14905 5.25299 3.19514 3.20171C5.25842 1.13657 8.00328 0 10.9227 0C13.8421 0 16.587 1.13657 18.6503 3.20171C20.6964 5.25299 21.8454 8.032 21.8454 10.9293C21.8454 13.8266 20.6964 16.6056 18.6503 18.6568C18.5643 18.7431 18.4622 18.8115 18.3496 18.8581C18.2371 18.9046 18.1165 18.9284 17.9947 18.928Z" fill="white"/>
</g>
</svg>
