<svg width="23" height="34" viewBox="0 0 23 34" fill="none" xmlns="http://www.w3.org/2000/svg">
<g id="Group 157">
<path id="Vector" fill-rule="evenodd" clip-rule="evenodd" d="M13.5873 2.07812C12.8045 1.85764 11.7631 1.85136 10.7232 1.85136C9.63876 1.85136 8.89701 2.08544 8.37968 2.4173C7.8654 2.74723 7.50965 3.21428 7.26372 3.79135C6.79577 4.88933 6.75818 6.29482 6.80509 7.62241H22.2177C22.673 7.62241 23.047 7.99315 22.9952 8.44552C22.4658 13.0684 17.5214 16.6912 11.5 16.6912C5.47857 16.6912 0.5341 13.0684 0.0048122 8.44552C-0.0470201 7.99315 0.327002 7.62241 0.782338 7.62241H5.1549C5.1084 6.27618 5.13783 4.57382 5.74684 3.14487C6.09665 2.32423 6.64573 1.57069 7.48937 1.02946C8.33005 0.490152 9.39951 0.20249 10.7232 0.20249H10.7828C11.7489 0.202358 13.009 0.202201 14.0343 0.491009C14.5682 0.641386 15.1161 0.889558 15.5355 1.32354C15.9758 1.77916 16.213 2.37635 16.213 3.08802C16.213 3.54334 15.8439 3.91245 15.3885 3.91245C14.9332 3.91245 14.5641 3.54334 14.5641 3.08802C14.5641 2.76915 14.4697 2.59342 14.3498 2.46936C14.209 2.32366 13.9681 2.18537 13.5873 2.07812ZM1.85889 9.27128C2.82743 12.3707 6.53096 15.0423 11.5 15.0423C16.469 15.0423 20.1726 12.3707 21.1411 9.27128H1.85889ZM4.90452 31.531V33.1799H18.0955V31.531H4.90452Z" fill="#505050"/>
<path id="Vector_2" fill-rule="evenodd" clip-rule="evenodd" d="M17.3773 13.7297C17.8974 14.4373 18.0955 15.264 18.0955 16.1163C18.0955 17.3901 17.6486 18.5757 16.4873 19.4038C15.6732 19.9842 14.5664 20.3454 13.1489 20.4959V18.8363C14.2831 18.6969 15.0402 18.4105 15.53 18.0612C16.1722 17.6034 16.4466 16.971 16.4466 16.1163C16.4466 15.5201 16.3106 15.0625 16.0487 14.7061L17.3773 13.7297ZM9.85116 18.9469V20.5977C9.0536 20.6282 8.35225 20.703 7.7852 20.8857C7.34108 21.0287 7.0503 21.2182 6.86719 21.4457C6.69184 21.6636 6.55341 21.9929 6.55341 22.5412C6.55341 23.0924 6.69225 23.4238 6.86802 23.643C7.05145 23.8716 7.34223 24.0617 7.78603 24.2051C8.70948 24.5036 9.98966 24.5148 11.462 24.5149L11.4779 24.5136C11.515 24.5106 11.5659 24.5073 11.6287 24.5045C11.754 24.4991 11.9283 24.4964 12.1358 24.506C12.5457 24.5252 13.1116 24.5938 13.6919 24.8033C14.2752 25.014 14.9017 25.378 15.3806 26.0029C15.8653 26.6353 16.1481 27.4689 16.1481 28.5242C16.1481 29.5784 15.8655 30.4064 15.3693 31.025C14.8791 31.6361 14.2395 31.9689 13.6508 32.1472C13.4809 32.1986 13.3125 32.2382 13.1489 32.2682V30.5763C13.1569 30.5739 13.1649 30.5715 13.1729 30.5691C13.5402 30.4579 13.8565 30.2757 14.0832 29.9931C14.3039 29.7181 14.4992 29.2739 14.4992 28.5242C14.4992 27.7754 14.3041 27.3089 14.0719 27.006C13.8338 26.6954 13.5043 26.4887 13.1318 26.3542C12.7562 26.2185 12.3662 26.1674 12.0591 26.1532C11.9081 26.1461 11.7838 26.1482 11.7 26.1519C11.6582 26.1537 11.627 26.1558 11.608 26.1573L11.5893 26.1589L11.5882 26.159L11.5874 26.1591L11.5455 26.1638H11.4119C10.0363 26.164 8.48581 26.1641 7.27883 25.774C6.64056 25.5677 6.02965 25.233 5.58182 24.6747C5.1264 24.1069 4.90454 23.389 4.90454 22.5412C4.90454 21.695 5.12681 20.9784 5.58264 20.412C6.03072 19.8551 6.64171 19.5217 7.27966 19.3162C8.043 19.0703 8.94387 18.98 9.85116 18.9469Z" fill="#505050"/>
<path id="Vector_3" fill-rule="evenodd" clip-rule="evenodd" d="M10.7701 26.5844V31.9433H12.419V26.5844H10.7701ZM10.7701 23.2867H12.419V15.4545H10.7701V23.2867Z" fill="#505050"/>
</g>
</svg>
