<svg width="27" height="29" viewBox="0 0 27 29" fill="none" xmlns="http://www.w3.org/2000/svg">
<g id="Group">
<path id="Vector" d="M11.2856 26.0095H5.58706C3.74056 26.0027 2.24343 24.5111 2.22987 22.6647V11.3295C2.23349 10.7114 2.51009 10.1264 2.98555 9.73141L3.98899 8.98812C4.35532 8.59782 4.39257 8.00225 4.07773 7.56933C3.76288 7.13642 3.18481 6.98836 2.70062 7.21662L1.6724 7.98468C0.635211 8.78721 0.0197103 10.0182 0 11.3295V22.677C0.00681289 25.7599 2.50424 28.2573 5.58706 28.2641H11.2856C11.9014 28.2641 12.4005 27.7649 12.4005 27.1492C12.4005 26.5334 11.9014 26.0342 11.2856 26.0342V26.0095Z" fill="white"/>
<path id="Vector_2" d="M26.7708 11.3047C26.7578 10.0031 26.1623 8.77573 25.148 7.95992L16.5878 1.13404C14.7067 -0.378013 12.027 -0.378013 10.1459 1.13404L7.43291 3.10376C6.92319 3.46979 6.80672 4.17973 7.17276 4.68944C7.53879 5.19915 8.24873 5.31563 8.75844 4.94959L11.5086 2.89316C12.5881 2.00448 14.1456 2.00448 15.2251 2.89316L23.7853 9.71903C24.278 10.1096 24.5691 10.7009 24.5781 11.3295V22.6771C24.5781 24.5243 23.0806 26.0219 21.2333 26.0219H18.6937C18.4338 26.0219 18.223 25.8111 18.223 25.5511V20.4348C18.223 18.8044 16.905 17.4808 15.2746 17.474H11.5582C10.7729 17.474 10.0198 17.786 9.46459 18.3412C8.90933 18.8965 8.59739 19.6495 8.59739 20.4348V22.3921C8.59739 23.0079 9.09657 23.5071 9.71233 23.5071C10.3281 23.5071 10.8273 23.0079 10.8273 22.3921V20.4348C10.8239 20.2421 10.8982 20.0561 11.0333 19.9187C11.1684 19.7813 11.3531 19.7039 11.5458 19.7039H15.2622C15.659 19.7039 15.9807 20.0256 15.9807 20.4224V25.5511C15.9876 27.0446 17.2002 28.2517 18.6937 28.2517H21.1714C24.257 28.2517 26.7584 25.7503 26.7584 22.6647L26.7708 11.3047Z" fill="white"/>
</g>
</svg>
