<svg width="34" height="13" viewBox="0 0 34 13" fill="none" xmlns="http://www.w3.org/2000/svg">
<g id="Group 149">
<path id="Vector" d="M29.3673 12.263H4.03055C1.80812 12.263 0 10.4557 0 8.23422V4.02885C0 1.80735 1.80812 0 4.03055 0H29.3673C31.5897 0 33.3979 1.80735 33.3979 4.02885V8.23422C33.3979 10.4557 31.5898 12.263 29.3673 12.263ZM4.03055 0.881478C2.29417 0.881478 0.881548 2.2934 0.881548 4.02878V8.23415C0.881548 9.9696 2.29417 11.3814 4.03055 11.3814H29.3673C31.1037 11.3814 32.5163 9.96953 32.5163 8.23415V4.02878C32.5163 2.29333 31.1037 0.881478 29.3673 0.881478H4.03055Z" fill="white"/>
<path id="Vector_2" d="M7.65414 8.78481C7.51786 8.78481 7.38348 8.72182 7.29724 8.60314L6.21861 7.11862L5.13391 8.60399C4.99034 8.80057 4.71466 8.84369 4.51801 8.69998C4.32142 8.55649 4.27844 8.28066 4.42201 8.08415L5.50544 6.60048L3.75344 6.0284C3.52208 5.95284 3.39569 5.70395 3.47126 5.47259C3.54682 5.24123 3.7955 5.11476 4.02708 5.1904L5.77795 5.7622L5.77554 3.91957C5.77526 3.6762 5.97234 3.47862 6.21572 3.47827C6.21593 3.47827 6.21614 3.47827 6.21628 3.47827C6.45945 3.47827 6.65674 3.67521 6.65702 3.91851L6.65942 5.76241L8.40761 5.19054C8.63904 5.11512 8.88793 5.24115 8.96356 5.47245C9.03927 5.70381 8.91302 5.9527 8.68166 6.0284L6.93185 6.60076L8.01027 8.08507C8.15334 8.28201 8.10973 8.55769 7.91279 8.70069C7.83468 8.75745 7.74399 8.78481 7.65414 8.78481ZM14.2274 8.78481C14.0913 8.78488 13.9571 8.72197 13.8709 8.60364L12.7884 7.11792L11.7032 8.60392C11.5596 8.8005 11.284 8.84362 11.0873 8.69991C10.8907 8.55642 10.8477 8.28066 10.9913 8.08408L12.0747 6.60034L10.3235 6.02826C10.0922 5.9527 9.96578 5.70381 10.0414 5.47245C10.117 5.24115 10.3658 5.11476 10.5972 5.1904L12.3472 5.76205L12.3448 3.9195C12.3445 3.67612 12.5416 3.47855 12.785 3.4782C12.7852 3.4782 12.7854 3.4782 12.7855 3.4782C13.0287 3.4782 13.226 3.67514 13.2263 3.91844L13.2287 5.76234L14.9768 5.19047C15.2083 5.11505 15.4571 5.24108 15.5328 5.47237C15.6085 5.70374 15.4823 5.95263 15.2509 6.02833L13.5019 6.60041L14.5832 8.0845C14.7265 8.28123 14.6833 8.55698 14.4865 8.70026C14.4084 8.75731 14.3175 8.78481 14.2274 8.78481ZM17.9201 8.78481C17.8302 8.78481 17.7393 8.75738 17.6611 8.70034C17.4643 8.55712 17.4209 8.28137 17.5642 8.08457L18.6448 6.60069L16.8928 6.02833C16.6614 5.95277 16.5351 5.70388 16.6106 5.47252C16.6863 5.24122 16.9352 5.11483 17.1665 5.19047L18.9173 5.76234V3.91901C18.9173 3.67563 19.1146 3.47827 19.358 3.47827C19.6015 3.47827 19.7988 3.67563 19.7988 3.91901V5.7622L21.5471 5.19047C21.7786 5.11491 22.0272 5.24115 22.103 5.47245C22.1786 5.70374 22.0523 5.9527 21.821 6.02833L20.0713 6.60048L21.1526 8.0845C21.2959 8.28123 21.2527 8.55698 21.0559 8.70026C20.8591 8.84355 20.5834 8.80029 20.4402 8.60364L19.3581 7.11855L18.2768 8.60356C18.1905 8.72197 18.0562 8.78481 17.9201 8.78481ZM30.2916 9.82858H25.9177C25.4114 9.82858 24.9996 9.41704 24.9996 8.91113V5.74283C24.9996 5.23691 25.4114 4.82537 25.9177 4.82537H30.2916C30.7978 4.82537 31.2097 5.23691 31.2097 5.74283V8.91113C31.2097 9.41704 30.7978 9.82858 30.2916 9.82858ZM25.9177 5.70685C25.8974 5.70685 25.8811 5.7265 25.8811 5.74283V8.91113C25.8811 8.93092 25.8975 8.94711 25.9177 8.94711H30.2916C30.3117 8.94711 30.3282 8.93092 30.3282 8.91113V5.74283C30.3282 5.72621 30.3122 5.70685 30.2916 5.70685H25.9177Z" fill="white"/>
<path id="Vector_3" d="M29.7577 5.70685H26.4517C26.2083 5.70685 26.011 5.50949 26.011 5.26611V3.61201C26.011 2.45697 26.9512 1.51732 28.1068 1.51732C29.2601 1.51732 30.1984 2.45697 30.1984 3.61201V5.26611C30.1984 5.50949 30.0011 5.70685 29.7577 5.70685ZM26.8924 4.8253H29.3169V3.61194C29.3169 2.94302 28.774 2.3988 28.1068 2.3988C27.4372 2.3988 26.8924 2.94302 26.8924 3.61194V4.8253ZM28.1068 7.69077C27.6813 7.69077 27.3352 7.34497 27.3352 6.92006C27.3352 6.49692 27.6813 6.15268 28.1068 6.15268C28.5298 6.15268 28.8741 6.49692 28.8741 6.92006C28.8742 7.34504 28.5299 7.69077 28.1068 7.69077ZM28.1068 6.80922C28.0438 6.80922 27.9926 6.85892 27.9926 6.91999C27.9926 6.9829 28.0439 7.03408 28.1068 7.03408C28.1674 7.03408 28.2168 6.98283 28.2168 6.91999C28.2168 6.85998 28.1664 6.80922 28.1068 6.80922Z" fill="white"/>
<path id="Vector_4" d="M28.1068 8.55472C27.8634 8.55472 27.666 8.35736 27.666 8.11398V7.32701C27.666 7.08363 27.8634 6.88627 28.1068 6.88627C28.3501 6.88627 28.5475 7.08363 28.5475 7.32701V8.11398C28.5476 8.35736 28.3502 8.55472 28.1068 8.55472Z" fill="white"/>
</g>
</svg>
