<svg width="35" height="35" viewBox="0 0 35 35" fill="none" xmlns="http://www.w3.org/2000/svg">
<g id="Group">
<path id="Vector" d="M5.82242 11.0624H5.30948C2.92046 11.0624 1 12.963 1 15.3272V34.1304H7.8068M12.1163 1C9.72725 1 7.8068 2.90059 7.8068 5.26479V34.1304H27.3236V5.26479C27.3236 2.90059 25.4032 1 23.0141 1H12.1163Z" stroke="#505050" stroke-linecap="round" stroke-linejoin="round"/>
<path id="Vector_2" d="M29.3978 11.0625H29.8208C32.2099 11.0625 34.1303 12.963 34.1303 15.3272V34.1304H27.3235M4.11377 18.9545H7.80671M4.11377 23.2076H7.80671M11.5527 14.1488H15.2457M11.5527 17.5652H15.2457M19.8846 14.1488H23.5775M19.8846 17.5652H23.5775M27.3235 18.9545H31.0165M27.3235 23.2076H31.0165M11.5527 21.4697H15.2457M19.8846 21.4697H23.5775M16.1663 25.3345C15.0873 25.3345 14.2186 26.2031 14.2186 27.2822V34.1304H20.9116V27.2822C20.9116 26.2031 20.0429 25.3345 18.9639 25.3345H16.1663Z" stroke="#505050" stroke-linecap="round" stroke-linejoin="round"/>
<path id="Vector_3" d="M17.2045 3.91071C16.5345 3.91071 15.9955 4.44972 15.9955 5.11972V6.11511H15.0001C14.3301 6.11511 13.7911 6.65403 13.7911 7.32405V8.04558C13.7911 8.7156 14.3301 9.25452 15.0001 9.25452H15.9955V10.2499C15.9955 10.9199 16.5345 11.4589 17.2045 11.4589H17.926C18.596 11.4589 19.1349 10.9199 19.1349 10.2499V9.25452H20.1303C20.8004 9.25452 21.3393 8.7156 21.3393 8.04558V7.32405C21.3393 6.65403 20.8004 6.11511 20.1303 6.11511H19.1349V5.11972C19.1349 4.44972 18.596 3.91071 17.926 3.91071H17.2045Z" stroke="#505050"/>
</g>
</svg>
