<svg width="44" height="59" viewBox="0 0 44 59" fill="none" xmlns="http://www.w3.org/2000/svg">
<g id="Group 145">
<path id="Vector" d="M38.4889 10.9293C36.9522 6.36091 33.221 2.93858 28.631 1.46707C25.5517 0.479691 21.6452 -1.26734 19.201 1.4607C19.9555 3.56379 19.3517 4.95939 19.2761 6.42408C19.0626 8.23309 20.5279 9.71042 20.681 11.7394C20.7559 12.5248 20.8146 13.4483 22.1293 13.82C22.1343 13.8216 22.1396 13.8231 22.1445 13.8245C28.8635 15.7526 34.9395 21.2298 36.9464 28.9537C35.4506 34.2231 36.26 41.7447 26.734 49.3993C25.86 50.1017 24.7596 50.4562 23.6381 50.4562C21.1182 50.2978 19.0493 50.9664 17.0922 49.3891C14.9325 47.651 12.7274 45.362 11.2343 43.0117C11.2832 42.251 11.2575 42.5697 12.528 27.5805C13.0762 27.5389 13.6881 27.5125 14.346 27.5262C13.3442 28.4182 13.9776 30.0629 15.3089 30.0629C16.4992 30.0629 17.1922 28.702 16.4678 27.7389C17.0577 27.8449 17.6634 27.9883 18.2857 28.2053C16.7891 26.8477 15.3039 26.1277 12.5648 27.1476C12.6237 26.4543 12.6821 25.7608 12.741 25.0672C14.4986 24.1884 17.4793 25.7783 19.888 25.1861C17.6739 25.0766 14.7582 23.5679 12.7962 24.4148C13.0213 21.7543 13.1349 19.0431 14.3374 16.8519C16.3486 13.1881 20.151 14.67 19.9927 11.7901C19.9395 9.83394 18.5317 8.49613 18.8172 6.38904C18.9632 4.87647 19.5847 3.60948 18.9831 1.60815C10.8671 1.16734 6.61645 5.79295 3.73505 12.8398C-0.638613 23.539 -0.112339 31.4502 0.202861 38.7729C0.226253 39.3204 0.255016 39.8688 0.291787 40.4168C0.856745 48.8883 5.35947 57.6562 13.9785 58.208C15.8934 58.3304 17.8566 58.1941 19.7708 58.0494C17.3953 56.1812 11.9703 51.1156 11.3036 46.2554C12.5316 47.756 14.4266 49.606 15.937 50.8213C17.1165 51.7729 18.6308 52.2969 20.2007 52.2969C22.4887 52.1144 25.274 52.9329 27.8879 50.8338C34.4734 45.5377 36.4097 40.742 37.7215 34.3414C37.9865 41.5569 35.5536 49.1143 30.9145 55.1431C36.2769 56.4939 42.079 52.764 43.5377 44.6621C45.0661 36.1796 41.4697 19.7866 38.4889 10.9293Z" fill="#489875"/>
<path id="Vector_2" d="M22.3998 39.3716C22.0989 39.577 21.7345 39.5673 21.4463 39.3716C21.198 39.2122 20.873 38.6655 20.2893 38.6522C19.7075 38.6149 19.0731 38.9919 18.7885 38.1441C18.6443 37.7716 18.7283 37.3285 18.7898 36.9057C18.199 38.3919 18.8289 39.0569 19.6328 39.0554C20.9199 39.0422 20.4124 39.1778 21.1907 39.7415C21.6416 40.0608 22.206 40.0597 22.6554 39.741C23.4395 39.1736 22.9228 39.04 24.2132 39.0544C24.7843 39.0555 25.1531 38.7288 25.2742 38.2051C25.3604 37.7334 25.2134 37.303 25.0563 36.9057C25.1178 37.3285 25.2018 37.7716 25.058 38.1445C24.9277 38.5323 24.6118 38.7668 24.2222 38.7026C24.025 38.6873 23.8088 38.6366 23.5563 38.6527C22.9421 38.6678 22.6899 39.1867 22.3998 39.3716ZM32.6508 27.701C29.5539 26.5178 28.0264 25.9686 25.5603 28.2053C26.1827 27.9883 26.7884 27.8449 27.3779 27.7389C26.6534 28.7044 27.3486 30.0629 28.5372 30.0629C29.8653 30.0629 30.5029 28.4194 29.4996 27.5262C30.7573 27.4999 31.8451 27.6281 32.6508 27.701ZM23.958 25.1861C26.4891 25.8084 29.5171 24.0522 31.3464 25.1849C32.0163 25.6122 32.5659 26.2838 33.1163 26.9457C31.0213 22.0776 27.557 25.0081 23.958 25.1861ZM21.919 43.0354C20.634 42.4688 20.8872 42.5423 17.5219 43.9773C20.6171 44.3612 23.2076 44.2665 26.304 43.9714C25.5127 43.6311 23.2048 42.483 21.919 43.0354Z" fill="#489875"/>
<path id="Vector_3" d="M21.919 45.3893C23.5348 45.9755 24.7035 44.7814 26.0101 44.2788C23.274 44.7781 20.629 44.8513 17.8917 44.3048C19.1754 44.8207 20.3383 45.966 21.919 45.3893Z" fill="#489875"/>
</g>
</svg>
