<svg width="23" height="34" viewBox="0 0 29 40" fill="none" xmlns="http://www.w3.org/2000/svg">
<g id="Group 156">
<path id="Vector" d="M0.435969 39.0192H27.684C27.7997 39.0192 27.9105 38.9733 27.9923 38.8915C28.0741 38.8098 28.12 38.6989 28.12 38.5833V30.4088C28.12 23.7865 24.0175 19.1608 18.1494 19.1608C18.0824 19.1598 18.0161 19.1742 17.9557 19.203C17.8952 19.2317 17.8421 19.274 17.8006 19.3265C17.1118 20.2377 15.7167 20.8175 14.1951 20.848C12.5908 20.8786 11.1434 20.3074 10.3063 19.3134C10.2654 19.2656 10.2146 19.2271 10.1574 19.2008C10.1002 19.1745 10.0379 19.1608 9.97497 19.1608C4.10247 19.1608 0 23.7865 0 30.4088V38.5833C0 38.6989 0.045932 38.8098 0.127692 38.8915C0.209452 38.9733 0.320343 39.0192 0.435969 39.0192ZM14.2126 21.72C15.2413 21.7132 16.2529 21.4558 17.1597 20.9701L14.06 29.175L10.9472 20.9352C11.946 21.4838 13.0736 21.7548 14.2126 21.72ZM0.871938 30.4088C0.871938 25.4998 3.16513 21.8726 6.81419 20.5647V24.6017C6.14406 24.7065 5.53322 25.0467 5.09135 25.5613C4.64948 26.0758 4.40552 26.7311 4.40329 27.4094V31.9783C4.40329 32.0939 4.44922 32.2048 4.53098 32.2866C4.61274 32.3684 4.72363 32.4143 4.83925 32.4143H5.88558V31.5424H5.27522V27.4094C5.33089 26.9281 5.56153 26.484 5.92326 26.1617C6.285 25.8394 6.75259 25.6613 7.23708 25.6613C7.72158 25.6613 8.18917 25.8394 8.5509 26.1617C8.91264 26.484 9.14328 26.9281 9.19894 27.4094V31.5424H8.61039V32.4143H9.65671C9.77234 32.4143 9.88323 32.3684 9.96499 32.2866C10.0467 32.2048 10.0927 32.0939 10.0927 31.9783V27.4094C10.0906 26.7317 9.84727 26.077 9.40628 25.5625C8.96528 25.048 8.35547 24.7074 7.68613 24.6017V20.3074C8.33701 20.1459 9.00371 20.0567 9.67415 20.0415L13.6502 30.5614C13.6807 30.6456 13.7365 30.7183 13.8098 30.7697C13.8831 30.8211 13.9705 30.8486 14.06 30.8486C14.1495 30.8486 14.2369 30.8211 14.3102 30.7697C14.3835 30.7183 14.4393 30.6456 14.4698 30.5614L18.4458 20.0415C19.2491 20.0614 20.0464 20.186 20.8175 20.4121V25.9445C20.3863 26.051 20.0091 26.3117 19.7569 26.6773C19.5048 27.0429 19.3952 27.4882 19.4488 27.929C19.5025 28.3699 19.7156 28.7759 20.0481 29.0704C20.3806 29.3649 20.8094 29.5274 21.2535 29.5274C21.6976 29.5274 22.1264 29.3649 22.4589 29.0704C22.7913 28.7759 23.0045 28.3699 23.0582 27.929C23.1118 27.4882 23.0022 27.0429 22.7501 26.6773C22.4979 26.3117 22.1206 26.051 21.6895 25.9445V20.7129C25.1162 22.1254 27.2481 25.6742 27.2481 30.4088V38.1473H0.871938V30.4088ZM21.2535 26.7598C21.4406 26.7598 21.6235 26.8153 21.7791 26.9192C21.9347 27.0232 22.0559 27.1709 22.1275 27.3438C22.1991 27.5167 22.2179 27.7069 22.1814 27.8904C22.1449 28.0739 22.0548 28.2425 21.9224 28.3748C21.7901 28.5071 21.6216 28.5972 21.4381 28.6337C21.2545 28.6702 21.0643 28.6515 20.8914 28.5799C20.7186 28.5083 20.5708 28.387 20.4669 28.2314C20.3629 28.0758 20.3074 27.8929 20.3074 27.7058C20.3074 27.4549 20.4071 27.2143 20.5845 27.0369C20.7619 26.8594 21.0026 26.7598 21.2535 26.7598ZM6.76624 11.1521H6.91883C7.19725 12.8452 8.06816 14.3843 9.37616 15.4947C10.6842 16.6052 12.3442 17.2148 14.06 17.2148C15.7758 17.2148 17.4358 16.6052 18.7438 15.4947C20.0518 14.3843 20.9227 12.8452 21.2012 11.1521H21.3538C22.0641 11.1521 22.7454 10.8702 23.2481 10.3683C23.7508 9.86644 24.0338 9.18558 24.035 8.47524V8.03927C24.0338 7.59833 23.8578 7.17585 23.5456 6.86447C23.2334 6.55309 22.8105 6.37822 22.3696 6.37823H21.3102V4.11555C21.309 3.02439 20.875 1.97826 20.1035 1.20669C19.3319 0.435126 18.2858 0.00115405 17.1946 0H10.9254C9.83463 0.00115546 8.78894 0.435266 8.01807 1.20696C7.2472 1.97865 6.81419 3.02479 6.81419 4.11555V6.37823H5.75043C5.31025 6.37938 4.88842 6.55475 4.57717 6.866C4.26591 7.17726 4.09054 7.59909 4.08939 8.03927V8.47524C4.08939 9.18518 4.37141 9.86605 4.87342 10.3681C5.37543 10.8701 6.05629 11.1521 6.76624 11.1521ZM21.3102 9.97497V7.25016H22.3696C22.5793 7.25016 22.7804 7.33316 22.9291 7.48102C23.0778 7.62888 23.1619 7.82958 23.163 8.03927V8.47524C23.1619 8.95433 22.9707 9.4134 22.6316 9.75177C22.2924 10.0901 21.8329 10.2801 21.3538 10.2801H21.3102V9.97497ZM14.06 16.3488C12.7098 16.3479 11.3948 15.9185 10.3042 15.1225C9.21368 14.3265 8.40383 13.205 7.99131 11.9194C8.08722 11.1826 10.4981 10.4109 14.06 10.4109C15.5274 10.3906 16.9918 10.5517 18.4197 10.8905C19.4486 11.1739 20.0764 11.5532 20.1243 11.9194C19.712 13.2043 18.9028 14.3253 17.8132 15.1212C16.7235 15.9171 15.4094 16.347 14.06 16.3488ZM7.68613 6.81419V4.11555C7.68613 3.25604 8.02727 2.43168 8.63462 1.82351C9.24197 1.21534 10.0659 0.873093 10.9254 0.871938H17.1946C18.0545 0.873091 18.8789 1.2152 19.4869 1.82324C20.095 2.43129 20.4371 3.25564 20.4382 4.11555V7.66433C20.0648 7.67886 19.6925 7.61542 19.3449 7.47805C18.9974 7.34069 18.6823 7.13241 18.4197 6.86651C17.6524 5.99457 17.8834 4.60383 17.8878 4.59511C17.906 4.49837 17.8909 4.39832 17.845 4.31125C17.7991 4.22417 17.725 4.1552 17.6349 4.11555C17.5452 4.07597 17.4448 4.06778 17.3499 4.0923C17.255 4.11682 17.1711 4.17263 17.1118 4.2507C15.0802 6.90139 9.13791 7.52046 7.67741 7.63382L7.68613 6.81419ZM7.68613 8.51883C8.99404 8.42728 14.2911 7.92156 17.0159 5.61528C17.076 6.28452 17.3375 6.91986 17.7657 7.43763C18.1077 7.79995 18.5229 8.08532 18.9837 8.27475C19.4445 8.46418 19.9403 8.55333 20.4382 8.53627V9.97497C20.4347 10.2667 20.4128 10.5579 20.3728 10.8469C19.1652 9.90957 16.4491 9.539 14.06 9.539C11.6709 9.539 8.9548 9.89213 7.74717 10.8469C7.70861 10.5578 7.68823 10.2666 7.68613 9.97497V8.51883ZM4.96133 8.03927C4.96133 7.82998 5.04446 7.62927 5.19245 7.48129C5.34044 7.3333 5.54115 7.25016 5.75043 7.25016H6.81419V10.3019H6.76624C6.28755 10.3019 5.82846 10.1118 5.48997 9.7733C5.15149 9.43481 4.96133 8.97573 4.96133 8.49703V8.03927Z" fill="#505050"/>
<path id="Vector_2" d="M24.0873 32.6977H21.2535V33.5696H24.0873V32.6977Z" fill="#505050"/>
</g>
</svg>
