<svg width="25" height="25" viewBox="0 0 25 25" fill="none" xmlns="http://www.w3.org/2000/svg">
<g id="Group 155">
<g id="Group 154">
<path id="Vector" d="M20.075 6.08334H19.4667V3.04167C19.4667 2.23497 19.1462 1.46131 18.5758 0.890885C18.0054 0.320461 17.2317 0 16.425 0H7.90835C7.10164 0 6.32798 0.320461 5.75756 0.890885C5.18714 1.46131 4.86667 2.23497 4.86667 3.04167V6.08334H4.25834C3.12935 6.08463 2.04698 6.53369 1.24866 7.33201C0.450347 8.13032 0.00128806 9.2127 0 10.3417V21.2917C0 22.0984 0.320461 22.8721 0.890885 23.4425C1.46131 24.0129 2.23497 24.3334 3.04167 24.3334H21.2917C22.0984 24.3334 22.8721 24.0129 23.4425 23.4425C24.0129 22.8721 24.3334 22.0984 24.3334 21.2917V10.3417C24.3321 9.2127 23.883 8.13032 23.0847 7.33201C22.2864 6.53369 21.204 6.08463 20.075 6.08334ZM7.90835 4.25834C7.90979 3.77476 8.10253 3.31141 8.44447 2.96946C8.78642 2.62752 9.24977 2.43478 9.73335 2.43334H14.6C15.0836 2.43478 15.547 2.62752 15.8889 2.96946C16.2308 3.31141 16.4236 3.77476 16.425 4.25834V6.08334H7.90835V4.25834ZM23.1167 19.7709H1.21667V10.3417C1.21667 9.53498 1.53713 8.76132 2.10755 8.1909C2.67798 7.62047 3.45164 7.30001 4.25834 7.30001H20.075C20.8817 7.30001 21.6554 7.62047 22.2258 8.1909C22.7962 8.76132 23.1167 9.53498 23.1167 10.3417V19.7709Z" fill="white"/>
<path id="Vector_2" d="M15.1171 11.7469H13.8031V10.4329C13.8033 10.2611 13.7697 10.0909 13.704 9.93212C13.6384 9.77332 13.542 9.62905 13.4205 9.50755C13.299 9.38605 13.1548 9.28972 12.996 9.22407C12.8372 9.15843 12.667 9.12476 12.4952 9.125H11.8382C11.6663 9.12476 11.4962 9.15843 11.3374 9.22407C11.1786 9.28972 11.0343 9.38605 10.9128 9.50755C10.7913 9.62905 10.695 9.77332 10.6293 9.93212C10.5637 10.0909 10.53 10.2611 10.5302 10.4329V11.7469H9.21625C9.04442 11.7467 8.87424 11.7803 8.71544 11.846C8.55665 11.9116 8.41237 12.008 8.29087 12.1295C8.16937 12.251 8.07304 12.3952 8.0074 12.554C7.94175 12.7128 7.90809 12.883 7.90833 13.0548V13.7118C7.90801 13.8837 7.94162 14.0539 8.00723 14.2127C8.07285 14.3716 8.16918 14.5159 8.29069 14.6374C8.41221 14.7589 8.55652 14.8552 8.71535 14.9209C8.87418 14.9865 9.0444 15.0201 9.21625 15.0198H10.5302V16.3338C10.53 16.5056 10.5637 16.6758 10.6293 16.8346C10.695 16.9934 10.7913 17.1376 10.9128 17.2591C11.0343 17.3806 11.1786 17.477 11.3374 17.5426C11.4962 17.6083 11.6663 17.6419 11.8382 17.6417H12.4952C12.667 17.6419 12.8372 17.6083 12.996 17.5426C13.1548 17.477 13.299 17.3806 13.4205 17.2591C13.542 17.1376 13.6384 16.9934 13.704 16.8346C13.7697 16.6758 13.8033 16.5056 13.8031 16.3338V15.0198H15.1171C15.2889 15.0201 15.4592 14.9865 15.618 14.9209C15.7768 14.8552 15.9211 14.7589 16.0426 14.6374C16.1642 14.5159 16.2605 14.3716 16.3261 14.2127C16.3917 14.0539 16.4253 13.8837 16.425 13.7118V13.0548C16.4252 12.883 16.3916 12.7128 16.3259 12.554C16.2603 12.3952 16.164 12.251 16.0425 12.1295C15.921 12.008 15.7767 11.9116 15.6179 11.846C15.4591 11.7803 15.2889 11.7467 15.1171 11.7469Z" fill="white"/>
</g>
</g>
</svg>
