<svg width="23" height="21" viewBox="0 0 23 21" fill="none" xmlns="http://www.w3.org/2000/svg">
<g id="Group 151">
<g id="Layer 2">
<path id="options-2" d="M19.049 6.72267C18.3554 6.72462 17.6795 6.94188 17.1138 7.34464C16.548 7.74741 16.1203 8.31597 15.8891 8.97237H1.12053C0.823345 8.97237 0.538335 9.09089 0.328195 9.30184C0.118055 9.51279 0 9.7989 0 10.0972C0 10.3956 0.118055 10.6817 0.328195 10.8926C0.538335 11.1036 0.823345 11.2221 1.12053 11.2221H15.8891C16.0947 11.8057 16.4562 12.3214 16.9341 12.7126C17.4121 13.1038 17.988 13.3555 18.5989 13.4401C19.2098 13.5247 19.8321 13.439 20.3978 13.1924C20.9634 12.9457 21.4505 12.5476 21.8059 12.0416C22.1612 11.5357 22.371 10.9413 22.4124 10.3237C22.4538 9.70599 22.3251 9.08879 22.0405 8.53961C21.7558 7.99044 21.3262 7.53045 20.7986 7.20998C20.2709 6.88952 19.6657 6.72093 19.049 6.72267ZM19.049 11.2221C18.8274 11.2221 18.6107 11.1561 18.4264 11.0325C18.2422 10.9089 18.0986 10.7332 18.0137 10.5277C17.9289 10.3222 17.9067 10.096 17.95 9.87778C17.9932 9.65958 18.0999 9.45915 18.2566 9.30184C18.4134 9.14452 18.613 9.03739 18.8304 8.99399C19.0477 8.95059 19.273 8.97286 19.4778 9.058C19.6825 9.14314 19.8575 9.28731 19.9807 9.47229C20.1038 9.65727 20.1695 9.87475 20.1695 10.0972C20.1695 10.3956 20.0514 10.6817 19.8413 10.8926C19.6312 11.1036 19.3462 11.2221 19.049 11.2221ZM1.12053 4.47296H2.44275C2.67829 5.12442 3.10793 5.68728 3.67328 6.08505C4.23862 6.48282 4.91226 6.69621 5.60264 6.69621C6.29302 6.69621 6.96666 6.48282 7.532 6.08505C8.09735 5.68728 8.52699 5.12442 8.76253 4.47296H21.29C21.5872 4.47296 21.8722 4.35445 22.0824 4.14349C22.2925 3.93254 22.4106 3.64643 22.4106 3.3481C22.4106 3.04977 22.2925 2.76366 22.0824 2.55271C21.8722 2.34176 21.5872 2.22325 21.29 2.22325H8.76253C8.52699 1.57179 8.09735 1.00892 7.532 0.611154C6.96666 0.213384 6.29302 0 5.60264 0C4.91226 0 4.23862 0.213384 3.67328 0.611154C3.10793 1.00892 2.67829 1.57179 2.44275 2.22325H1.12053C0.823345 2.22325 0.538335 2.34176 0.328195 2.55271C0.118055 2.76366 0 3.04977 0 3.3481C0 3.64643 0.118055 3.93254 0.328195 4.14349C0.538335 4.35445 0.823345 4.47296 1.12053 4.47296ZM5.60264 2.22325C5.82426 2.22325 6.0409 2.28922 6.22517 2.41282C6.40944 2.53642 6.55306 2.7121 6.63787 2.91764C6.72268 3.12318 6.74487 3.34935 6.70164 3.56755C6.6584 3.78575 6.55168 3.98618 6.39497 4.14349C6.23826 4.30081 6.03861 4.40794 5.82124 4.45134C5.60388 4.49475 5.37858 4.47247 5.17383 4.38733C4.96908 4.3022 4.79408 4.15802 4.67096 3.97304C4.54783 3.78806 4.48211 3.57058 4.48211 3.3481C4.48211 3.04977 4.60017 2.76366 4.81031 2.55271C5.02045 2.34176 5.30546 2.22325 5.60264 2.22325ZM21.29 15.7215H13.2446C13.0091 15.07 12.5795 14.5072 12.0141 14.1094C11.4488 13.7116 10.7751 13.4983 10.0848 13.4983C9.39437 13.4983 8.72073 13.7116 8.15539 14.1094C7.59004 14.5072 7.1604 15.07 6.92486 15.7215H1.12053C0.823345 15.7215 0.538335 15.84 0.328195 16.051C0.118055 16.2619 0 16.548 0 16.8464C0 17.1447 0.118055 17.4308 0.328195 17.6417C0.538335 17.8527 0.823345 17.9712 1.12053 17.9712H6.92486C7.1604 18.6227 7.59004 19.1855 8.15539 19.5833C8.72073 19.9811 9.39437 20.1945 10.0848 20.1945C10.7751 20.1945 11.4488 19.9811 12.0141 19.5833C12.5795 19.1855 13.0091 18.6227 13.2446 17.9712H21.29C21.5872 17.9712 21.8722 17.8527 22.0824 17.6417C22.2925 17.4308 22.4106 17.1447 22.4106 16.8464C22.4106 16.548 22.2925 16.2619 22.0824 16.051C21.8722 15.84 21.5872 15.7215 21.29 15.7215ZM10.0848 17.9712C9.86313 17.9712 9.64649 17.9052 9.46222 17.7816C9.27795 17.658 9.13433 17.4824 9.04952 17.2768C8.96471 17.0713 8.94252 16.8451 8.98575 16.6269C9.02899 16.4087 9.13571 16.2083 9.29242 16.051C9.44913 15.8936 9.64879 15.7865 9.86615 15.7431C10.0835 15.6997 10.3088 15.722 10.5136 15.8071C10.7183 15.8923 10.8933 16.0364 11.0164 16.2214C11.1396 16.4064 11.2053 16.6239 11.2053 16.8464C11.2053 17.1447 11.0872 17.4308 10.8771 17.6417C10.6669 17.8527 10.3819 17.9712 10.0848 17.9712Z" fill="#128C56"/>
</g>
</g>
</svg>
