<svg width="26" height="25" viewBox="0 0 26 25" fill="none" xmlns="http://www.w3.org/2000/svg">
<rect y="0.5" width="26" height="24" rx="4" fill="#DAECE4"/>
<path d="M11.496 15.5L9.704 13.3L8.952 14.084V15.5H7.664V9.9H8.952V12.516L11.432 9.9H12.872L10.552 12.396L13.008 15.5H11.496ZM17.1668 14.252V12.612H18.3508V14.884C17.7348 15.348 16.8868 15.596 16.0868 15.596C14.3268 15.596 13.0308 14.388 13.0308 12.7C13.0308 11.012 14.3268 9.804 16.1108 9.804C17.0948 9.804 17.9108 10.14 18.4548 10.772L17.6228 11.54C17.2148 11.108 16.7428 10.908 16.1748 10.908C15.0868 10.908 14.3428 11.636 14.3428 12.7C14.3428 13.748 15.0868 14.492 16.1588 14.492C16.5108 14.492 16.8388 14.428 17.1668 14.252Z" fill="black"/>
</svg>
