<svg width="22" height="15" viewBox="0 0 22 15" fill="none" xmlns="http://www.w3.org/2000/svg">
<g id="Group 177">
<g id="_x37_7_Essential_Icons">
<path id="Camera" d="M11.0834 3.475C8.45837 3.475 6.33337 5.6 6.33337 8.225C6.33337 10.85 8.45837 12.975 11.0834 12.975C13.7084 12.975 15.8334 10.85 15.8334 8.225C15.8334 5.625 13.7084 3.475 11.0834 3.475ZM11.0834 11.975C9.00837 11.975 7.33337 10.3 7.33337 8.225C7.33337 6.15 9.00837 4.475 11.0834 4.475C13.1584 4.475 14.8334 6.15 14.8334 8.225C14.8334 10.3 13.1584 11.975 11.0834 11.975ZM19.3334 2.475L15.5834 2.5L14.0084 0.2C13.9084 0.0749998 13.7584 0 13.6084 0H8.55837C8.40837 0 8.25837 0.0749998 8.15837 0.2L6.58337 2.5H2.83337C1.73337 2.5 0.833374 3.375 0.833374 4.475V13C0.833374 14.1 1.73337 15 2.83337 15H19.3334C20.4334 15 21.3334 14.1 21.3334 13V4.25C21.3334 3.15 20.4334 2.475 19.3334 2.475ZM20.3334 13C20.3334 13.55 19.8834 14 19.3334 14H2.83337C2.28337 14 1.83337 13.55 1.83337 13V4.475C1.83337 3.925 2.28337 3.5 2.83337 3.5H6.83337C6.98337 3.5 7.13337 3.425 7.23337 3.3L8.80837 1H13.3584L14.9334 3.3C15.0334 3.425 15.1834 3.5 15.3334 3.5L19.3334 3.475C19.8834 3.475 20.3334 3.7 20.3334 4.25V13Z" fill="white"/>
</g>
</g>
</svg>
