<svg width="20" height="25" viewBox="0 0 20 25" fill="none" xmlns="http://www.w3.org/2000/svg">
<g id="Group 176">
<g id="Group">
<path id="Vector" fill-rule="evenodd" clip-rule="evenodd" d="M18.1205 8.40342C18.4226 7.46439 19.8129 7.53629 19.9843 8.56145C19.9938 8.59756 19.9993 8.64565 19.9999 8.70737L20 8.72044V9.67973C20 12.2668 18.9973 14.7505 17.2072 16.611L17.1591 16.6606L17.1156 16.7049L17.0719 16.749L17.0266 16.7939L16.9813 16.8384L16.936 16.8823L16.8907 16.9256L16.8456 16.9682L16.7828 17.0267L16.7583 17.0492L16.7114 17.092L16.6644 17.1342L16.6173 17.176L16.5704 17.2172L16.5237 17.2576L16.4586 17.3131L16.4333 17.3345L16.3847 17.375L16.3361 17.4151L16.2875 17.4547L16.2389 17.4937L16.1907 17.5319L16.1235 17.5844L16.0974 17.6046L16.0472 17.6429L15.997 17.6807L15.9468 17.7181L15.8967 17.7549L15.847 17.791L15.778 17.8403L15.6993 17.8954L15.6476 17.931L15.596 17.9661L15.5444 18.0006L15.4932 18.0346L15.4227 18.0804L15.3417 18.1322L15.2885 18.1655L15.2354 18.1983L15.1825 18.2306L15.1298 18.2623L15.0581 18.3048L14.9747 18.3531L14.9202 18.3841L14.8658 18.4146L14.8115 18.4446L14.7575 18.474L14.6847 18.513L14.5991 18.5578L14.5434 18.5865L14.4877 18.6146L14.4321 18.6423L14.3769 18.6694L14.3032 18.7049L14.2155 18.7462L14.1586 18.7724L14.1018 18.7982L14.0451 18.8234L13.9887 18.8481L13.914 18.8803L13.8245 18.9178L13.7665 18.9416L13.7086 18.9649L13.6509 18.9877L13.5936 19.01C13.5785 19.0158 13.5634 19.0215 13.5484 19.0273C12.4263 19.4529 11.226 19.6772 10.0026 19.6772C10.0009 19.6772 9.99915 19.6772 9.99742 19.6772C7.34593 19.6772 4.80304 18.6239 2.92816 16.749C1.05328 14.8741 0 12.3312 0 9.67973V8.70945C0.0620284 7.43218 1.86934 7.40679 1.93549 8.72044C1.93549 8.72044 1.93549 9.14046 1.93549 9.67973C1.93549 11.8179 2.78487 13.8685 4.29678 15.3804C5.80869 16.8923 7.85925 17.7417 9.99742 17.7417C9.99915 17.7417 10.0009 17.7417 10.0026 17.7417C11.2434 17.7417 12.4546 17.4557 13.5484 16.9201C13.5958 16.8969 13.6429 16.8732 13.69 16.849L13.7387 16.8237L13.8091 16.7865L13.8793 16.7484L13.9587 16.7043L14.02 16.6694L14.0953 16.6256L14.1538 16.5908L14.2315 16.5435L14.2702 16.5196L14.3458 16.4718L14.4012 16.436L14.4777 16.3856L14.5252 16.3536L14.5909 16.3087L14.644 16.2716L14.6815 16.245L14.7236 16.2148L14.7929 16.1642L14.8445 16.1258L14.8814 16.0979L14.9179 16.07L14.9656 16.033L15.0409 15.9735L15.077 15.9444L15.1128 15.9152L15.1583 15.8776L15.2196 15.8261L15.2683 15.7844L15.3033 15.7541L15.346 15.7165L15.4074 15.6616L15.455 15.6183L15.4892 15.5867L15.5282 15.5503L15.5682 15.5123L15.637 15.4459L15.6703 15.4132L15.7177 15.3659L15.7737 15.3091L15.8216 15.2594L15.8774 15.2008L15.9251 15.1495L15.9789 15.0907L16.0259 15.0383L16.0782 14.979L16.1239 14.9261L16.1753 14.8656L16.22 14.8119L16.2702 14.7505L16.3143 14.6955L16.3627 14.634L16.4057 14.5783L16.453 14.5158L16.4949 14.4594L16.541 14.3962L16.5815 14.3394L16.6267 14.2751L16.6669 14.2165L16.7101 14.1525L16.7492 14.0931L16.7911 14.0286L16.8438 13.9452L16.8954 13.8612L16.946 13.7766L16.9956 13.6914L17.0441 13.6057L17.0915 13.5194L17.1378 13.4326L17.1831 13.3452L17.2273 13.2573L17.2704 13.1689L17.3124 13.08L17.3533 12.9906L17.3932 12.9007L17.4319 12.8103L17.4695 12.7194L17.5061 12.6281L17.5239 12.5823L17.5587 12.4904L17.5924 12.398L17.6089 12.3517L17.6409 12.2587L17.6565 12.212L17.6718 12.1653L17.6869 12.1184L17.7016 12.0715L17.7161 12.0245L17.7302 11.9773L17.7441 11.9301L17.7577 11.8828L17.771 11.8354L17.784 11.7879L17.7968 11.7403L17.8092 11.6926L17.8214 11.6449L17.8333 11.597L17.8448 11.5491L17.8561 11.5011L17.8671 11.453L17.8778 11.4049L17.8883 11.3566L17.8984 11.3083L17.9082 11.2599L17.9177 11.2114L17.927 11.1629L17.9359 11.1143L17.9446 11.0656L17.9529 11.0169L17.961 10.968L17.9687 10.9192L17.9762 10.8703L17.9834 10.8212L17.9902 10.7722L17.9968 10.7231L18.0031 10.6739L18.009 10.6246L18.0147 10.5753L18.02 10.526L18.0251 10.4766L18.0298 10.4271L18.0343 10.3776L18.0384 10.328C18.0558 10.1133 18.0645 9.89697 18.0645 9.67973V8.70945C18.0645 8.59552 18.0842 8.48617 18.1205 8.40342ZM11.2929 10.8062H15.1613C15.6954 10.8062 16.129 10.3726 16.129 9.83847C16.129 9.30437 15.6954 8.87073 15.1613 8.87073H11.2929C10.7587 8.87073 10.3251 9.30437 10.3251 9.83847C10.3251 10.3726 10.7587 10.8062 11.2929 10.8062ZM11.2903 6.93524H15.1588C15.6929 6.93524 16.1265 6.5016 16.1265 5.9675C16.1265 5.4334 15.6929 4.99976 15.1588 4.99976H11.2903C10.7562 4.99976 10.3226 5.4334 10.3226 5.9675C10.3226 6.5016 10.7562 6.93524 11.2903 6.93524Z" fill="black" fill-opacity="0.5"/>
<path id="Vector_2" fill-rule="evenodd" clip-rule="evenodd" d="M7.41946 25H12.5808C13.1149 25 13.5485 24.5664 13.5485 24.0323C13.5485 23.4982 13.1149 23.0645 12.5808 23.0645H7.41946C6.88536 23.0645 6.45172 23.4982 6.45172 24.0323C6.45172 24.5664 6.88536 25 7.41946 25ZM9.03239 19.631C6.11389 19.3501 3.56178 17.815 1.92188 15.571C1.60675 15.1398 1.70102 14.5338 2.13224 14.2187C2.56347 13.9035 3.16944 13.9978 3.48457 14.429C4.95207 16.4372 7.32498 17.7419 10.0027 17.7419H10.0053C11.1497 17.7419 12.2383 17.5034 13.2247 17.0732V17.0701C13.3337 17.0225 13.4417 16.9726 13.5485 16.9203L14.6817 16.2453L15.6704 15.4134L16.5531 14.3797L17.2916 13.1247L17.7578 11.883L17.9969 10.7233L18.0386 10.3283C18.0536 10.1413 18.0622 9.95304 18.0642 9.76404L18.0646 9.67997V8.70968L18.0661 8.6567L18.0715 8.5947L18.0828 8.5257L18.0992 8.46154L18.1155 8.41565L18.1206 8.40366C18.4227 7.46463 19.813 7.53653 19.9844 8.56169L19.994 8.61167L19.9986 8.66367L20 8.70764L20.0001 8.72071C20.0001 8.78639 20.0001 9.14193 20.0001 9.6826C20.0001 14.878 16.0361 19.1476 10.9679 19.6317V20.8065C10.9679 21.3406 10.5342 21.7742 10.0001 21.7742C9.466 21.7742 9.03239 21.3406 9.03239 20.8065V19.631ZM10.0001 0V6.19015e-05L9.98663 0.00182728C9.99103 0.000619533 9.99555 0 10.0001 0C8.3746 0 6.81565 0.64574 5.66622 1.79517C4.51682 2.94457 3.87108 4.50352 3.87108 6.12905C3.87108 7.38993 3.87108 8.7391 3.87108 9.99999C3.87108 11.6255 4.51682 13.1845 5.66622 14.3339C6.81565 15.4833 8.3746 16.129 10.0001 16.129C11.6257 16.129 13.1846 15.4833 14.334 14.3339C15.4834 13.1845 16.1292 11.6255 16.1291 9.99999V6.12905C16.1292 4.50352 15.4834 2.94457 14.334 1.79514C13.1846 0.64574 11.6257 0 10.0001 0ZM9.97941 1.93552L10.0238 1.93555C11.1274 1.94177 12.1846 2.38288 12.9654 3.16376C13.7518 3.95019 14.1937 5.01684 14.1937 6.12905V9.99999C14.1937 11.1122 13.7518 12.1788 12.9654 12.9653C12.179 13.7517 11.1123 14.1935 10.0001 14.1935C8.88792 14.1935 7.82127 13.7517 7.03481 12.9653C6.24838 12.1788 5.80657 11.1122 5.80657 9.99999V6.12905C5.80657 5.01684 6.24838 3.95019 7.03481 3.16376C7.81641 2.38216 8.8747 1.94097 9.97941 1.93552Z" fill="white"/>
</g>
</g>
</svg>
