<svg width="12" height="16" viewBox="0 0 12 16" fill="none" xmlns="http://www.w3.org/2000/svg">
<g id="Group 169">
<path id="Vector" d="M5.79097 0.739998C2.59742 0.739998 0 3.33742 0 6.53097C0 6.91419 0.0425806 7.29742 0.106452 7.68064C0.106452 7.70193 0.106452 7.74451 0.127742 7.7658C0.766452 10.6187 5.25871 14.9194 5.45032 15.111C5.55677 15.1961 5.68452 15.26 5.81226 15.26C5.94 15.26 6.06774 15.2174 6.17419 15.111C6.36581 14.9194 10.8155 10.64 11.4542 7.82968C11.4542 7.80839 11.4542 7.7871 11.4755 7.74451C11.5606 7.34 11.6032 6.93548 11.6032 6.50968C11.5819 3.33742 8.98452 0.739998 5.79097 0.739998ZM10.4535 7.57419V7.61677C9.98516 9.70323 6.87677 12.9606 5.81226 14.0252C4.74774 12.9606 1.63936 9.70322 1.14968 7.57419V7.51032C1.08581 7.19097 1.04323 6.87161 1.04323 6.53097C1.04323 3.91226 3.17226 1.76193 5.81226 1.76193C8.45226 1.76193 10.5813 3.89097 10.5813 6.53097C10.56 6.8929 10.5174 7.23355 10.4535 7.57419Z" fill="black"/>
<path id="Vector_2" d="M5.79106 3.99741C4.72654 3.99741 3.85364 4.87031 3.85364 5.93483C3.85364 6.99934 4.72654 7.87225 5.79106 7.87225C6.85557 7.87225 7.72847 6.99934 7.72847 5.93483C7.72847 4.87031 6.85557 3.99741 5.79106 3.99741ZM5.79106 6.85031C5.28009 6.85031 4.87557 6.4458 4.87557 5.93483C4.87557 5.42386 5.28009 5.01935 5.79106 5.01935C6.30202 5.01935 6.70654 5.42386 6.70654 5.93483C6.70654 6.4458 6.30202 6.85031 5.79106 6.85031Z" fill="black"/>
</g>
</svg>
