<svg width="66" height="66" viewBox="0 0 66 66" fill="none" xmlns="http://www.w3.org/2000/svg">
<g id="Man Avatar">
<path id="Vector" d="M35.5237 37.6414C36.2074 38.6414 37.7168 40.1579 35.2254 40.4917C36.8699 40.6206 37.16 39.6177 36.697 38.6176C36.3482 37.8263 34.0071 35.4682 34.1377 30.6355C33.9124 31.5769 33.8783 32.5644 33.9878 33.5372C34.1442 34.9347 34.6456 36.3557 35.5237 37.6414ZM30.7667 40.4917C26.586 39.9318 33.4143 37.1411 31.8539 30.6355C31.9192 33.0515 31.3527 35.3678 30.0766 37.3798C28.944 39.3032 28.515 40.6683 30.7667 40.4917ZM34.6419 40.5596C33.6467 41.3993 32.3798 41.4308 31.3502 40.5596C31.7006 41.0847 33.8953 41.6816 34.6419 40.5596ZM40.1542 45.2906C39.379 44.7896 38.6845 44.1781 37.8329 43.7778C36.3379 43.0749 34.4438 43.3299 33.2535 44.4876C32.738 44.9891 32.8752 44.1023 31.1312 43.5601C26.9426 42.2567 25.4196 48.0961 22.7233 44.702C22.6503 44.6102 22.5598 44.472 22.4274 44.5436C22.3057 44.6093 22.3899 44.7502 22.4201 44.8477C23.8689 49.5036 30.0096 49.2729 32.7707 46.7749C33.3931 46.2121 34.3505 48.8806 38.9337 48.4752C42.6296 48.1462 43.8903 44.7803 43.5379 44.5572C43.4025 44.4713 42.454 46.7763 40.1542 45.2906ZM27.8468 27.411C29.3209 27.8219 30.7102 27.5221 30.7414 27.4214C30.7496 27.3942 30.7336 27.3652 30.7063 27.3572C29.8012 27.0491 28.9666 26.8189 28.1753 26.4703C26.345 25.6873 25.2966 25.0984 24.1443 25.2505C22.1829 25.5833 20.0954 28.1353 20.6925 27.6424C21.4351 27.1122 22.1743 26.5535 22.9909 26.216C25.2246 25.208 25.9245 26.9216 27.8468 27.411ZM37.8163 26.4703C36.6458 26.986 35.2756 27.2935 35.2502 27.3937C35.1989 27.5869 36.8404 27.7747 38.1453 27.411C40.0807 26.918 40.7622 25.2058 43.0007 26.216C44.3235 26.7624 45.2573 27.7519 45.3668 27.638C45.3857 27.618 45.3848 27.5866 45.3653 27.5677C41.9887 24.3384 41.4276 24.9264 37.8163 26.4703ZM36.3462 30.4246C37.0903 30.1654 37.8144 29.9939 38.5191 29.8671C37.656 31.0121 38.4754 32.6447 39.9041 32.6447C41.4967 32.6447 42.2513 30.6775 41.055 29.6131C42.5583 29.5814 43.8581 29.7347 44.8207 29.8218C41.1262 28.4086 39.2888 27.7559 36.3462 30.4246ZM24.9371 29.6131C23.7403 30.678 24.4964 32.6447 26.0875 32.6447C27.0477 32.6447 27.8258 31.8665 27.8258 30.9066C27.8258 30.5151 27.6915 30.1576 27.473 29.8671C28.1777 29.9939 28.9018 30.1654 29.6454 30.4246C26.716 27.768 24.8609 28.4111 21.1709 29.8218C22.1335 29.7347 23.4338 29.5814 24.9371 29.6131Z" fill="#128C56"/>
<path id="Vector_2" d="M53.2374 25.6439C53.8964 22.3751 54.6013 19.7143 53.4423 15.7267C52.7444 14.2516 50.4922 13.8331 49.3159 14.9595C50.8207 12.3381 50.0537 8.8897 47.7611 6.9163C45.977 5.3814 43.5452 4.903 41.2229 4.4945C38.3669 -0.0820973 26.2985 -0.916997 19.4656 6.4776C16.177 10.0254 10.2234 12.4539 12.7381 22.195C12.9985 23.1829 13.2404 24.1784 13.4725 25.1758C7.81532 28.1682 9.98052 40.9654 16.4055 41.4409C17.2383 44.4718 16.7134 46.0998 19.2432 50.1308C21.3885 53.5423 20.1557 54.2359 21.131 56.7603C21.1966 56.9386 21.2526 57.2486 21.4312 57.2299C21.638 57.2017 21.5719 56.8917 21.5908 56.7041C21.6191 56.3941 21.5719 56.0841 21.6848 55.7179C22.1221 58.9413 24.6756 61.1826 24.4081 60.3659C24.3609 60.2158 24.2952 60.0749 24.3044 59.8216C24.8357 60.7705 26.6803 63.8538 26.6803 62.6383C26.6895 62.4507 26.6895 62.2626 26.6895 62.028C26.8958 62.0937 26.9903 62.2251 27.0934 62.3473C29.4745 65.2341 28.8612 64.9954 32.9902 64.9954C35.1108 64.9954 36.4982 65.2139 37.4221 64.1314C39.0545 62.1919 39.0047 62.1221 39.3001 62.028C39.3001 62.9088 39.2664 62.8929 39.3658 62.9391C39.7547 63.1475 41.4692 60.2085 41.6852 59.8216C41.6945 60.0749 41.6288 60.2158 41.5723 60.3659C41.5128 60.5473 41.6062 60.6434 41.9106 60.3379C43.2158 59.0892 44.0513 57.5866 44.3049 55.7179C44.4622 56.228 44.2974 57.1942 44.5584 57.2299C44.9601 57.272 45.2884 54.9653 45.338 54.1968C45.5951 50.1112 48.36 49.6992 49.1339 43.5038C49.3636 42.8566 49.587 42.1748 49.7972 41.4271C55.6991 40.7024 57.9798 29.4093 53.2374 25.6439ZM53.8413 33.5165C53.4372 36.8526 51.0816 40.6401 48.3504 39.4118C47.9587 41.0295 47.5221 42.4743 47.0545 43.6498C45.1992 45.9178 43.1079 46.174 41.7981 49.3702C41.6731 49.6945 38.6352 50.6814 37.8728 52.2062C37.0237 53.8697 35.8678 52.3773 34.8215 50.807C34.3986 50.178 33.8355 50.0841 33.2253 50.5348C33.0418 50.6771 32.9346 50.6664 32.7649 50.5348C31.4154 49.5383 31.1521 51.2504 29.8635 52.4692C29.5731 52.6029 28.842 53.6254 28.1169 52.2062C27.5762 51.1248 25.5636 50.0789 24.4548 49.605C24.0015 49.4316 23.8709 47.5105 20.7455 45.3609C20.1937 44.9786 19.7304 44.5348 19.3011 44.0671C18.7345 42.8861 18.1283 40.5775 17.8232 39.3203C15.0628 40.8272 12.5683 36.9626 12.1512 33.5165C11.5105 28.2278 14.798 24.816 17.7813 27.6767C17.5322 26.8197 17.3029 25.9724 17.1735 25.0955C16.6601 21.3576 18.476 18.7294 22.3262 18.7865C25.3676 18.8541 31.091 21.3461 41.203 19.9824C50.6232 18.6897 49.5565 23.8874 49.1266 26.999C52.262 25.3005 54.3316 29.4697 53.8413 33.5165Z" fill="#128C56"/>
</g>
</svg>
