<svg width="14" height="14" viewBox="0 0 14 14" fill="none" xmlns="http://www.w3.org/2000/svg">
<g id="Group 170">
<path id="Vector" d="M9.6759 7.75701C9.02096 8.74527 8.31122 9.69607 7.54999 10.6049C7.4665 10.7011 7.35912 10.7735 7.2387 10.8149V13.9259L10.1657 12.8809L9.6759 7.75701ZM6.44481 10.6025C5.68271 9.69518 4.97293 8.74513 4.3189 7.75701L3.83629 12.8809L6.75609 13.9259V10.8149C6.63503 10.7736 6.52745 10.7002 6.44481 10.6025ZM10.6508 12.905L13.6719 13.9839C13.7123 13.9994 13.756 14.0038 13.7987 13.9967C13.8413 13.9895 13.8812 13.971 13.9143 13.9432C13.9473 13.9153 13.9723 13.879 13.9865 13.8382C14.0008 13.7974 14.0038 13.7535 13.9953 13.7111L13.0301 8.64277C13.0223 8.60374 13.005 8.56723 12.9798 8.53649C12.9545 8.50575 12.9221 8.48174 12.8853 8.46658L10.1199 7.31534L10.6508 12.905ZM0.322866 13.9839L3.34402 12.905L3.87489 7.31534L1.11435 8.46658C1.07757 8.48174 1.0451 8.50575 1.01984 8.53649C0.99458 8.56723 0.97731 8.60374 0.969567 8.64277L0.00434221 13.7111C-0.00370039 13.753 -0.000532041 13.7962 0.0135255 13.8364C0.0275831 13.8766 0.0520291 13.9124 0.0843807 13.9401C0.116732 13.9678 0.155837 13.9864 0.197724 13.9941C0.23961 14.0018 0.282786 13.9983 0.322866 13.9839ZM7.18079 10.2936C7.33281 10.115 10.8583 5.92516 10.8583 3.86161C10.8583 2.83745 10.4515 1.85523 9.72746 1.13104C9.00341 0.406847 8.02137 0 6.9974 0C5.97342 0 4.99139 0.406847 4.26733 1.13104C3.54327 1.85523 3.1365 2.83745 3.1365 3.86161C3.1365 5.92516 6.66198 10.115 6.814 10.2936C6.83666 10.3201 6.86478 10.3414 6.89644 10.356C6.9281 10.3705 6.96254 10.3781 6.9974 10.3781C7.03225 10.3781 7.0667 10.3705 7.09835 10.356C7.13001 10.3414 7.15814 10.3201 7.18079 10.2936ZM5.30825 3.86161C5.30825 3.52747 5.40732 3.20083 5.59293 2.923C5.77853 2.64517 6.04234 2.42863 6.35099 2.30076C6.65964 2.17289 6.99927 2.13943 7.32693 2.20462C7.65459 2.26981 7.95557 2.43071 8.1918 2.66699C8.42803 2.90326 8.58891 3.20429 8.65408 3.53201C8.71926 3.85974 8.68581 4.19943 8.55796 4.50814C8.43011 4.81684 8.21361 5.0807 7.93583 5.26634C7.65806 5.45198 7.33148 5.55107 6.9974 5.55107C6.54941 5.55107 6.11977 5.37307 5.80299 5.05624C5.48622 4.7394 5.30825 4.30968 5.30825 3.86161Z" fill="white"/>
</g>
</svg>
