<svg width="22" height="23" viewBox="0 0 22 23" fill="none" xmlns="http://www.w3.org/2000/svg">
<path id="Vector" fill-rule="evenodd" clip-rule="evenodd" d="M20.35 19.75C20.35 19.1425 19.8575 18.65 19.25 18.65C18.6425 18.65 18.15 19.1425 18.15 19.75C18.15 20.3575 18.6425 20.85 19.25 20.85C19.8575 20.85 20.35 20.3575 20.35 19.75ZM19.25 22.5C20.7688 22.5 22 21.2688 22 19.75C22 18.2312 20.7688 17 19.25 17C17.7312 17 16.5 18.2312 16.5 19.75C16.5 21.2688 17.7312 22.5 19.25 22.5ZM20.35 11.5C20.35 10.8925 19.8575 10.4 19.25 10.4C18.6425 10.4 18.15 10.8925 18.15 11.5C18.15 12.1075 18.6425 12.6 19.25 12.6C19.8575 12.6 20.35 12.1075 20.35 11.5ZM19.25 14.25C20.7688 14.25 22 13.0188 22 11.5C22 9.98123 20.7688 8.75 19.25 8.75C17.7312 8.75 16.5 9.98123 16.5 11.5C16.5 13.0188 17.7312 14.25 19.25 14.25ZM20.35 3.25C20.35 2.64247 19.8575 2.15 19.25 2.15C18.6425 2.15 18.15 2.64247 18.15 3.25C18.15 3.85753 18.6425 4.35 19.25 4.35C19.8575 4.35 20.35 3.85753 20.35 3.25ZM19.25 6C20.7688 6 22 4.76877 22 3.25C22 1.73123 20.7688 0.500002 19.25 0.500002C17.7312 0.500002 16.5 1.73123 16.5 3.25C16.5 4.76877 17.7312 6 19.25 6ZM12.1 19.75C12.1 19.1425 11.6075 18.65 11 18.65C10.3925 18.65 9.9 19.1425 9.9 19.75C9.9 20.3575 10.3925 20.85 11 20.85C11.6075 20.85 12.1 20.3575 12.1 19.75ZM11 22.5C12.5188 22.5 13.75 21.2688 13.75 19.75C13.75 18.2312 12.5188 17 11 17C9.48123 17 8.25 18.2312 8.25 19.75C8.25 21.2688 9.48123 22.5 11 22.5ZM12.1 11.5C12.1 10.8925 11.6075 10.4 11 10.4C10.3925 10.4 9.9 10.8925 9.9 11.5C9.9 12.1075 10.3925 12.6 11 12.6C11.6075 12.6 12.1 12.1075 12.1 11.5ZM11 14.25C12.5188 14.25 13.75 13.0188 13.75 11.5C13.75 9.98123 12.5188 8.75 11 8.75C9.48123 8.75 8.25 9.98123 8.25 11.5C8.25 13.0188 9.48123 14.25 11 14.25ZM12.1 3.25C12.1 2.64247 11.6075 2.15 11 2.15C10.3925 2.15 9.9 2.64247 9.9 3.25C9.9 3.85753 10.3925 4.35 11 4.35C11.6075 4.35 12.1 3.85753 12.1 3.25ZM11 6C12.5188 6 13.75 4.76877 13.75 3.25C13.75 1.73123 12.5188 0.500001 11 0.500001C9.48123 0.500001 8.25 1.73123 8.25 3.25C8.25 4.76877 9.48123 6 11 6ZM3.85 11.5C3.85 10.8925 3.35753 10.4 2.75 10.4C2.14247 10.4 1.65 10.8925 1.65 11.5C1.65 12.1075 2.14247 12.6 2.75 12.6C3.35753 12.6 3.85 12.1075 3.85 11.5ZM2.75 14.25C4.26877 14.25 5.5 13.0188 5.5 11.5C5.5 9.98123 4.26877 8.75 2.75 8.75C1.23123 8.75 -8.12923e-07 9.98123 -9.45698e-07 11.5C-1.07847e-06 13.0188 1.23123 14.25 2.75 14.25Z" fill="#489875"/>
</svg>
