<svg width="112" height="23" viewBox="0 0 112 23" fill="none" xmlns="http://www.w3.org/2000/svg">
<path d="M10.2014 3.5934C10.5157 2.62603 11.8843 2.62603 12.1986 3.59341L13.4788 7.53348C13.6194 7.96611 14.0225 8.25901 14.4774 8.25901L18.6203 8.25901C19.6374 8.25901 20.0603 9.56061 19.2374 10.1585L15.8858 12.5936C15.5178 12.861 15.3638 13.3349 15.5044 13.7675L16.7846 17.7076C17.0989 18.675 15.9917 19.4794 15.1688 18.8815L11.8172 16.4464C11.4492 16.1791 10.9508 16.1791 10.5828 16.4464L7.2312 18.8815C6.4083 19.4794 5.30109 18.675 5.61541 17.7076L6.89562 13.7675C7.03619 13.3349 6.8822 12.861 6.51419 12.5936L3.16256 10.1585C2.33966 9.56061 2.76257 8.25901 3.77973 8.25901L7.92257 8.25901C8.37746 8.25901 8.78061 7.96611 8.92118 7.53348L10.2014 3.5934Z" fill="#F7C000"/>
<path d="M32.6013 3.5934C32.9156 2.62603 34.2842 2.62603 34.5985 3.59341L35.8787 7.53348C36.0193 7.96611 36.4224 8.25901 36.8773 8.25901L41.0202 8.25901C42.0373 8.25901 42.4602 9.56061 41.6373 10.1585L38.2857 12.5936C37.9177 12.861 37.7637 13.3349 37.9043 13.7675L39.1845 17.7076C39.4988 18.675 38.3916 19.4794 37.5687 18.8815L34.2171 16.4464C33.8491 16.1791 33.3507 16.1791 32.9827 16.4464L29.6311 18.8815C28.8082 19.4794 27.701 18.675 28.0153 17.7076L29.2955 13.7675C29.4361 13.3349 29.2821 12.861 28.9141 12.5936L25.5625 10.1585C24.7396 9.56061 25.1625 8.25901 26.1796 8.25901L30.3225 8.25901C30.7774 8.25901 31.1805 7.96611 31.3211 7.53348L32.6013 3.5934Z" fill="#F7C000"/>
<path d="M55.0014 3.5934C55.3158 2.62603 56.6843 2.62603 56.9987 3.59341L58.2789 7.53348C58.4194 7.96611 58.8226 8.25901 59.2775 8.25901L63.4203 8.25901C64.4375 8.25901 64.8604 9.56061 64.0375 10.1585L60.6859 12.5936C60.3178 12.861 60.1639 13.3349 60.3044 13.7675L61.5846 17.7076C61.899 18.675 60.7918 19.4794 59.9689 18.8815L56.6172 16.4464C56.2492 16.1791 55.7509 16.1791 55.3829 16.4464L52.0312 18.8815C51.2083 19.4794 50.1011 18.675 50.4155 17.7076L51.6957 13.7675C51.8362 13.3349 51.6822 12.861 51.3142 12.5936L47.9626 10.1585C47.1397 9.56061 47.5626 8.25901 48.5798 8.25901L52.7226 8.25901C53.1775 8.25901 53.5807 7.96611 53.7212 7.53348L55.0014 3.5934Z" fill="#F7C000"/>
<path d="M79.0657 3.70156L80.3459 7.64164C80.5333 8.21847 81.0709 8.60901 81.6774 8.60901H85.8202C86.4983 8.60901 86.7803 9.47674 86.2317 9.87533L82.88 12.3104C82.3894 12.6669 82.184 13.2988 82.3715 13.8757L83.6517 17.8158C83.8612 18.4607 83.1231 18.997 82.5745 18.5984L79.2228 16.1633C78.7322 15.8068 78.0677 15.8068 77.5771 16.1633L74.2254 18.5984C73.6768 18.997 72.9387 18.4607 73.1482 17.8157L74.4284 13.8757C74.6159 13.2988 74.4105 12.6669 73.9199 12.3104L70.5682 9.87533C70.0196 9.47674 70.3016 8.60901 70.9797 8.60901H75.1225C75.729 8.60901 76.2666 8.21847 76.454 7.64164L77.7342 3.70156C77.9438 3.05665 78.8561 3.05664 79.0657 3.70156Z" stroke="#F7C000" stroke-width="0.7"/>
<path d="M101.466 3.70156L102.746 7.64164C102.933 8.21847 103.471 8.60901 104.078 8.60901H108.22C108.898 8.60901 109.18 9.47674 108.632 9.87533L105.28 12.3104C104.79 12.6669 104.584 13.2988 104.772 13.8757L106.052 17.8158C106.261 18.4607 105.523 18.997 104.975 18.5984L101.623 16.1633C101.132 15.8068 100.468 15.8068 99.9772 16.1633L96.6256 18.5984C96.077 18.997 95.3388 18.4607 95.5484 17.8157L96.8286 13.8757C97.016 13.2988 96.8107 12.6669 96.32 12.3104L92.9684 9.87533C92.4198 9.47674 92.7017 8.60901 93.3798 8.60901H97.5227C98.1292 8.60901 98.6667 8.21847 98.8541 7.64164L100.134 3.70156C100.344 3.05665 101.256 3.05664 101.466 3.70156Z" stroke="#F7C000" stroke-width="0.7"/>
</svg>
