<svg width="23" height="25" viewBox="0 0 23 25" fill="none" xmlns="http://www.w3.org/2000/svg">
<path id="Vector" d="M16.0464 0.00115149C16.5216 0.0307635 16.8881 0.436539 16.8755 0.918845V2.21246C20.6498 2.57733 22.5806 4.65596 22.5806 8.39307V18.7309C22.5806 22.8882 20.2026 25 15.5228 25H7.05782C2.37806 25 0 22.8882 0 18.7309V8.39307C0 5.90535 0.850865 4.12524 2.59623 3.08593L2.71866 3.0164C2.97167 2.89873 3.26842 2.90952 3.51507 3.0522C3.80284 3.21867 3.97277 3.53595 3.95374 3.87123C3.9347 4.2065 3.72998 4.50193 3.42528 4.63384C2.26897 5.31935 1.72355 6.51346 1.72355 8.39307V8.72477H17.6391C18.115 8.72477 18.5009 9.11583 18.5009 9.59823C18.5009 10.0806 18.115 10.4717 17.6391 10.4717H1.72355V18.7309C1.72355 21.9042 3.27256 23.2199 7.05782 23.242H15.5228C19.2535 23.242 20.8462 21.8931 20.8462 18.7199V8.38201C20.8462 5.61788 19.6353 4.28003 16.8755 3.95939V4.79969C16.8118 5.24758 16.4249 5.57455 15.9788 5.55748C15.5327 5.54042 15.1712 5.18483 15.141 4.73335V0.841449L15.157 0.703196C15.1925 0.522024 15.2841 0.35562 15.4203 0.229266C15.5904 0.0713236 15.816 -0.0108476 16.0464 0.00115149ZM16.5428 17.7463L16.6817 17.7552C16.9199 17.7849 17.1433 17.8938 17.3157 18.0668C17.5227 18.2745 17.6391 18.5574 17.6391 18.8526C17.6391 19.4632 17.1507 19.9582 16.5482 19.9582C15.9458 19.9582 15.4574 19.4632 15.4574 18.8526C15.4574 18.2419 15.9458 17.7469 16.5482 17.7469L16.5428 17.7463ZM11.3121 17.7469L11.449 17.7555C11.9868 17.8237 12.403 18.2889 12.403 18.8526C12.403 19.4632 11.9146 19.9582 11.3121 19.9582C10.7097 19.9582 10.2213 19.4632 10.2213 18.8526C10.2213 18.2419 10.7097 17.7469 11.3121 17.7469ZM6.08172 17.7463L6.22045 17.7552C6.45863 17.7849 6.68201 17.8938 6.85446 18.0668C7.0614 18.2745 7.17781 18.5574 7.17781 18.8526C7.17781 19.4632 6.68942 19.9582 6.08696 19.9582C5.4845 19.9582 4.9961 19.4632 4.9961 18.8526C4.9961 18.2419 5.4845 17.7469 6.08696 17.7469L6.08172 17.7463ZM16.5428 13.2687L16.6817 13.2773C16.9199 13.307 17.1433 13.4158 17.3157 13.5889C17.5227 13.7966 17.6391 14.0795 17.6391 14.3747C17.6391 14.9853 17.1507 15.4803 16.5482 15.4803C15.9458 15.4803 15.4574 14.9853 15.4574 14.3747C15.4574 13.764 15.9458 13.269 16.5482 13.269L16.5428 13.2687ZM11.3121 13.269L11.449 13.2776C11.9868 13.3458 12.403 13.811 12.403 14.3747C12.403 14.9853 11.9146 15.4803 11.3121 15.4803C10.7097 15.4803 10.2213 14.9853 10.2213 14.3747C10.2213 13.764 10.7097 13.269 11.3121 13.269ZM6.08172 13.2687L6.22045 13.2773C6.45863 13.307 6.68201 13.4158 6.85446 13.5889C7.0614 13.7966 7.17781 14.0795 7.17781 14.3747C7.17781 14.9853 6.68942 15.4803 6.08696 15.4803C5.4845 15.4803 4.9961 14.9853 4.9961 14.3747C4.9961 13.764 5.4845 13.269 6.08696 13.269L6.08172 13.2687ZM6.57239 0.133059C7.01666 0.133059 7.39002 0.471358 7.43961 0.918845V2.12401H12.3703C12.8462 2.12401 13.232 2.51507 13.232 2.99748C13.232 3.47988 12.8462 3.87094 12.3703 3.87094H7.4178V4.74441C7.41782 4.978 7.32553 5.20186 7.16154 5.36599C6.99756 5.53011 6.77556 5.62083 6.54511 5.61788L6.4191 5.60533C6.00851 5.53343 5.69959 5.16807 5.70508 4.73335V0.918845L5.72944 0.788103C5.83013 0.407081 6.17254 0.133059 6.57239 0.133059Z" fill="white"/>
</svg>
