<svg width="18" height="18" viewBox="0 0 18 18" fill="none" xmlns="http://www.w3.org/2000/svg">
<path id="Vector" d="M13 4.5C13 6.71011 11.2101 8.5 9 8.5C6.78989 8.5 5 6.71011 5 4.5C5 2.28989 6.78989 0.5 9 0.5C11.2101 0.5 13 2.28989 13 4.5ZM0.5 15.75C0.5 15.1855 0.778802 14.6541 1.32296 14.1518C1.87052 13.6465 2.65278 13.2052 3.55953 12.842C5.37383 12.1151 7.56063 11.75 9 11.75C10.4394 11.75 12.6262 12.1151 14.4405 12.842C15.3472 13.2052 16.1295 13.6465 16.677 14.1518C17.2212 14.6541 17.5 15.1855 17.5 15.75V16.875C17.5 17.2176 17.2176 17.5 16.875 17.5H1.125C0.782392 17.5 0.5 17.2176 0.5 16.875V15.75Z" stroke="white"/>
</svg>
