<svg width="28" height="24" viewBox="0 0 28 24" fill="none" xmlns="http://www.w3.org/2000/svg">
<path id="Vector" d="M16 0C9.37333 0 4 5.37333 4 12H0L5.18667 17.1867L5.28 17.3733L10.6667 12H6.66667C6.66667 6.84 10.84 2.66667 16 2.66667C21.16 2.66667 25.3333 6.84 25.3333 12C25.3333 17.16 21.16 21.3333 16 21.3333C13.4267 21.3333 11.0933 20.28 9.41333 18.5867L7.52 20.48C9.69333 22.6533 12.68 24 16 24C22.6267 24 28 18.6267 28 12C28 5.37333 22.6267 0 16 0ZM14.6667 6.66667V13.3333L20.3333 16.6933L21.36 14.9867L16.6667 12.2V6.66667H14.6667Z" fill="white"/>
</svg>
