<svg width="255" height="181" viewBox="0 0 255 181" fill="none" xmlns="http://www.w3.org/2000/svg">
<g id="https://lottiefiles.com/animations/time-MQtTdX6jox" clip-path="url(#clip0_838_820)">
<g id="Clip path group">
<mask id="mask0_838_820" style="mask-type:luminance" maskUnits="userSpaceOnUse" x="0" y="0" width="255" height="181">
<g id="__lottie_element_921">
<path id="Vector" d="M254.5 0H0.5V181H254.5V0Z" fill="white"/>
</g>
</mask>
<g mask="url(#mask0_838_820)">
<g id="Group">
<g id="Group_2">
<g id="Group_3">
<path id="Vector_2" d="M164.816 41.9783L168.269 39.0323L172.878 44.4084L169.425 47.3544L164.816 41.9783Z" fill="#263238"/>
</g>
<g id="Group_4">
<path id="Vector_3" d="M171.253 38.6145L164.149 44.7034L159.167 38.9114C161.126 36.1674 163.463 34.0968 166.26 32.8225L171.253 38.6145Z" fill="#455A64"/>
</g>
<g id="Group_5">
<path id="Vector_4" d="M165.346 43.6826C165.306 43.7188 164.105 42.4011 162.661 40.7468C161.217 39.0924 160.077 37.7241 160.121 37.6879C160.164 37.6517 161.362 38.9693 162.806 40.6237C164.25 42.278 165.386 43.65 165.346 43.6826Z" fill="#263238"/>
</g>
<g id="Group_6">
<path id="Vector_5" d="M166.689 42.5241C166.401 42.2454 166.134 41.9467 165.89 41.63C165.411 41.0689 164.762 40.2906 164.047 39.4218L162.233 37.1918L161.688 36.5149C161.558 36.3484 161.489 36.2724 161.489 36.2615C161.561 36.1963 162.77 37.5683 164.199 39.3023C164.925 40.1711 165.549 40.9639 166.014 41.5467C166.267 41.8519 166.493 42.1791 166.689 42.5241Z" fill="#263238"/>
</g>
<g id="Group_7">
<path id="Vector_6" d="M168.503 40.9784C168.211 40.7008 167.941 40.4018 167.694 40.0843C167.211 39.5159 166.558 38.7232 165.839 37.8435L164.025 35.5774L163.481 34.886C163.411 34.8034 163.347 34.7151 163.292 34.6217C163.604 34.8787 163.884 35.1716 164.127 35.4941C164.617 36.0552 165.277 36.8444 165.992 37.724C166.707 38.6037 167.349 39.411 167.806 40.001C168.066 40.3066 168.299 40.6338 168.503 40.9784Z" fill="#263238"/>
</g>
<g id="Group_8">
<path id="Vector_7" d="M170.139 39.5304C170.099 39.563 168.906 38.2344 167.472 36.562C166.039 34.8896 164.914 33.5031 164.954 33.4669C164.994 33.4307 166.184 34.7629 167.618 36.4389C169.051 38.115 170.179 39.4978 170.139 39.5304Z" fill="#263238"/>
</g>
<g id="Group_9">
<path id="Vector_8" d="M225.931 39.4149L229.069 42.6917L223.943 47.5787L220.805 44.3019L225.931 39.4149Z" fill="#263238"/>
</g>
<g id="Group_10">
<path id="Vector_9" d="M229.22 45.9161L222.754 39.1648L228.28 33.8977C231.125 35.7077 233.324 37.9268 234.742 40.649L229.22 45.9161Z" fill="#455A64"/>
</g>
<g id="Group_11">
<path id="Vector_10" d="M223.835 40.2979C223.798 40.258 225.05 38.991 226.632 37.467C228.214 35.943 229.535 34.7375 229.561 34.7737C229.586 34.8099 228.345 36.0769 226.763 37.6046C225.181 39.1322 223.871 40.3341 223.835 40.2979Z" fill="#263238"/>
</g>
<g id="Group_12">
<path id="Vector_11" d="M225.069 41.583C225.327 41.2789 225.608 40.9958 225.91 40.7359C226.444 40.2291 227.191 39.5377 228.022 38.7775L230.159 36.848L230.809 36.2688C230.965 36.1312 231.041 36.0625 231.052 36.0588C231.121 36.1276 229.811 37.4055 228.149 38.9186C227.318 39.6752 226.556 40.3666 225.998 40.8336C225.708 41.1073 225.397 41.3578 225.069 41.583Z" fill="#263238"/>
</g>
<g id="Group_13">
<path id="Vector_12" d="M226.709 43.2952C226.97 42.9883 227.255 42.7026 227.561 42.4409C228.102 41.9305 228.86 41.2355 229.706 40.4753L231.883 38.5422L232.547 37.963C232.628 37.8909 232.713 37.8232 232.801 37.7603C232.561 38.085 232.283 38.3804 231.974 38.6399C231.437 39.1576 230.678 39.8562 229.837 40.6164C228.995 41.3766 228.218 42.0644 227.659 42.5423C227.362 42.8174 227.044 43.069 226.709 43.2952Z" fill="#263238"/>
</g>
<g id="Group_14">
<path id="Vector_13" d="M228.244 44.8554C228.207 44.8156 229.477 43.5594 231.078 42.0426C232.678 40.5259 234.006 39.3313 234.042 39.3711C234.078 39.4109 232.808 40.667 231.208 42.1802C229.608 43.6934 228.28 44.888 228.244 44.8554Z" fill="#263238"/>
</g>
<g id="Group_15">
<path id="Vector_14" d="M194.723 27.0487H200.1V35.4218H194.723V27.0487Z" fill="#263238"/>
</g>
<g id="Group_16">
<path id="Vector_15" d="M202.974 29.5537H191.907V20.529C195.786 19.5734 199.487 19.5154 202.985 20.529L202.974 29.5537Z" fill="#017E8A"/>
</g>
<g id="Group_17">
<path id="Vector_16" d="M203.116 20.5653C202.986 20.6464 202.849 20.7141 202.706 20.768C202.327 20.9345 201.938 21.0772 201.541 21.1952C200.946 21.378 200.34 21.5206 199.727 21.6223C198.981 21.7403 198.228 21.8033 197.473 21.8106C196.719 21.8117 195.966 21.7559 195.22 21.6441C194.607 21.5492 194 21.4124 193.406 21.235C193.008 21.1192 192.618 20.9801 192.237 20.8187C192.093 20.7687 191.955 20.7021 191.827 20.6196C191.827 20.587 192.437 20.8368 193.442 21.1047C194.032 21.2603 194.63 21.3812 195.234 21.4667C195.973 21.5662 196.717 21.6173 197.462 21.6187C198.208 21.6104 198.952 21.5521 199.69 21.445C200.292 21.3581 200.888 21.2372 201.476 21.083C202.506 20.7897 203.101 20.5327 203.116 20.5653Z" fill="#263238"/>
</g>
<g id="Group_18">
<path id="Vector_17" d="M195.565 29.5284C195.514 29.5284 195.47 27.7944 195.47 25.6586C195.47 23.5228 195.514 21.7888 195.565 21.7888C195.615 21.7888 195.659 23.5192 195.659 25.6586C195.659 27.798 195.619 29.5284 195.565 29.5284Z" fill="#263238"/>
</g>
<g id="Group_19">
<path id="Vector_18" d="M197.673 29.579C197.622 29.579 197.579 27.8378 197.579 25.6911C197.579 23.5445 197.622 21.8069 197.673 21.8069C197.724 21.8069 197.767 23.5445 197.767 25.6911C197.767 27.8378 197.727 29.579 197.673 29.579Z" fill="#263238"/>
</g>
<g id="Group_20">
<path id="Vector_19" d="M199.781 29.5465C199.73 29.5465 199.687 27.8053 199.687 25.6586C199.687 23.512 199.73 21.7708 199.781 21.7708C199.832 21.7708 199.875 23.512 199.875 25.6586C199.875 27.8053 199.836 29.5465 199.781 29.5465Z" fill="#263238"/>
</g>
<g id="Group_21">
<path id="Vector_20" d="M201.523 29.5465C201.468 29.5465 201.428 27.6641 201.428 25.3437C201.428 23.0233 201.468 21.1409 201.523 21.1409C201.577 21.1409 201.617 23.0233 201.617 25.3437C201.617 27.6641 201.588 29.5465 201.523 29.5465Z" fill="#263238"/>
</g>
<g id="Group_22">
<path id="Vector_21" d="M193.573 29.4922C193.522 29.4922 193.478 27.6098 193.478 25.2894C193.478 22.9689 193.522 21.0865 193.573 21.0865C193.623 21.0865 193.667 22.9689 193.667 25.2894C193.667 27.6098 193.627 29.4922 193.573 29.4922Z" fill="#263238"/>
</g>
<g id="Group_23">
<path id="Vector_22" d="M169.095 44.2643C184.375 29.0205 209.149 29.0205 224.429 44.2643C239.709 59.5081 239.709 84.2237 224.429 99.4675C209.149 114.711 184.375 114.711 169.095 99.4675C153.815 84.2237 153.815 59.5081 169.095 44.2643Z" fill="#017E8A"/>
</g>
<g id="Group_24">
<path id="Vector_23" d="M196.762 38.7738C214.911 38.7738 229.623 53.4511 229.623 71.5565C229.623 89.662 214.911 104.339 196.762 104.339C178.614 104.339 163.902 89.662 163.902 71.5565C163.902 53.4511 178.614 38.7738 196.762 38.7738Z" fill="#FAFAFA"/>
</g>
<g id="Group_25">
<path id="Vector_24" d="M229.622 71.5566C229.622 71.5566 229.622 71.3792 229.597 71.0281C229.572 70.677 229.597 70.1521 229.528 69.4679C229.399 67.4718 229.085 65.4917 228.592 63.5528C228.236 62.1533 227.787 60.7795 227.246 59.4405C226.61 57.8441 225.846 56.3016 224.96 54.8286C222.793 51.23 219.961 48.074 216.614 45.5288C212.552 42.446 207.824 40.3533 202.807 39.4183C198.555 38.6378 194.192 38.6881 189.959 39.5667C188.472 39.8885 187.008 40.3059 185.575 40.8156C179.479 43.031 174.176 46.9975 170.335 52.215C169.333 53.5735 168.44 55.0092 167.665 56.5083C167.262 57.2576 166.917 58.0359 166.576 58.8178C166.235 59.5998 165.93 60.4106 165.673 61.236C165.116 62.8878 164.698 64.583 164.424 66.304C164.149 68.0441 164.004 69.8024 163.993 71.5639C164.005 73.3264 164.149 75.0858 164.421 76.8273C164.699 78.5476 165.116 80.2424 165.669 81.8953C165.93 82.7171 166.257 83.5135 166.572 84.3099C166.888 85.1063 167.269 85.8737 167.661 86.6231C168.436 88.1228 169.331 89.5585 170.335 90.9164C174.175 96.1357 179.478 100.104 185.575 102.319C187.008 102.829 188.472 103.246 189.959 103.568C191.408 103.871 192.876 104.075 194.353 104.18C197.179 104.393 200.021 104.237 202.807 103.717C207.824 102.782 212.552 100.689 216.614 97.6061C219.962 95.062 222.794 91.9061 224.96 88.3064C225.845 86.833 226.609 85.2905 227.246 83.6945C228.535 80.4937 229.305 77.109 229.528 73.6671C229.59 72.9829 229.579 72.458 229.597 72.1069C229.615 71.7557 229.622 71.5747 229.622 71.5747C229.622 71.5747 229.622 71.7557 229.622 72.1069C229.622 72.458 229.622 72.9829 229.572 73.6671C229.373 77.1187 228.617 80.5158 227.333 83.7271C226.701 85.3307 225.939 86.8804 225.054 88.3607C222.892 91.9778 220.06 95.1511 216.708 97.7111C212.632 100.813 207.886 102.92 202.847 103.865C200.049 104.393 197.193 104.553 194.353 104.343C192.869 104.238 191.393 104.033 189.937 103.731C188.441 103.41 186.969 102.992 185.528 102.479C179.395 100.255 174.061 96.2678 170.197 91.0214C169.189 89.6562 168.291 88.2133 167.512 86.7063C167.106 85.9534 166.757 85.1642 166.402 84.3787C166.046 83.5931 165.756 82.7786 165.495 81.9496C164.938 80.2899 164.518 78.5877 164.239 76.8599C163.663 73.355 163.663 69.7799 164.239 66.275C164.52 64.5545 164.94 62.8596 165.495 61.207C165.76 60.3781 166.086 59.578 166.406 58.778C166.725 57.978 167.106 57.2069 167.512 56.454C168.294 54.9477 169.193 53.5048 170.201 52.1389C174.063 46.8932 179.396 42.9072 185.528 40.6853C186.968 40.1727 188.439 39.7542 189.933 39.4327C191.391 39.1305 192.868 38.9263 194.353 38.821C197.192 38.6106 200.046 38.7714 202.844 39.2988C207.883 40.2396 212.631 42.3476 216.705 45.4528C220.056 48.0147 222.888 51.189 225.05 54.8069C226.676 57.5378 227.898 60.4885 228.679 63.5673C229.163 65.513 229.466 67.4993 229.583 69.5005C229.637 70.1846 229.619 70.7095 229.633 71.0607C229.648 71.4118 229.622 71.5566 229.622 71.5566Z" fill="#263238"/>
</g>
<g id="Group_26">
<path id="Vector_25" d="M224.8 70.3691C223.759 70.4126 222.91 70.3691 222.906 70.2786C222.902 70.1881 223.741 70.0651 224.782 70.0071C225.823 69.9492 226.672 69.9854 226.68 70.094C226.687 70.2026 225.834 70.3257 224.8 70.3691Z" fill="#263238"/>
</g>
<g id="Group_27">
<path id="Vector_26" d="M224.1 77.9169C223.084 77.678 222.285 77.4137 222.285 77.3232C222.285 77.2327 223.149 77.3413 224.169 77.5621C225.188 77.783 225.983 78.0508 225.983 78.1558C225.983 78.2608 225.108 78.1522 224.1 77.9169Z" fill="#263238"/>
</g>
<g id="Group_28">
<path id="Vector_27" d="M221.389 84.994C220.471 84.4945 219.767 84.0202 219.811 83.9406C219.854 83.861 220.638 84.1904 221.56 84.6646C222.481 85.1388 223.189 85.6275 223.138 85.7216C223.087 85.8158 222.304 85.4972 221.389 84.994Z" fill="#263238"/>
</g>
<g id="Group_29">
<path id="Vector_28" d="M216.872 91.0901C216.124 90.3661 215.569 89.7217 215.634 89.6421C215.7 89.5624 216.36 90.1018 217.122 90.8186C217.884 91.5353 218.432 92.1761 218.359 92.2666C218.287 92.3571 217.616 91.8177 216.872 91.0901Z" fill="#263238"/>
</g>
<g id="Group_30">
<path id="Vector_29" d="M210.884 95.7599C210.362 94.8585 209.999 94.0911 210.079 94.044C210.159 93.997 210.659 94.6848 211.196 95.5753C211.734 96.4658 212.096 97.2332 212.006 97.2912C211.915 97.3491 211.411 96.654 210.884 95.7599Z" fill="#263238"/>
</g>
<g id="Group_31">
<path id="Vector_30" d="M203.863 98.6523C203.602 97.6423 203.46 96.8061 203.551 96.7844C203.642 96.7627 203.936 97.5554 204.215 98.5582C204.495 99.5609 204.632 100.397 204.527 100.426C204.422 100.455 204.124 99.6587 203.863 98.6523Z" fill="#263238"/>
</g>
<g id="Group_32">
<path id="Vector_31" d="M196.319 99.5501C196.319 98.5075 196.425 97.6641 196.515 97.6641C196.606 97.6641 196.682 98.5111 196.682 99.5501C196.682 100.589 196.592 101.436 196.486 101.436C196.381 101.436 196.301 100.596 196.319 99.5501Z" fill="#263238"/>
</g>
<g id="Group_33">
<path id="Vector_32" d="M188.823 98.4169C189.12 97.4178 189.432 96.6322 189.523 96.6576C189.614 96.6829 189.454 97.5155 189.16 98.5183C188.866 99.521 188.565 100.328 188.46 100.278C188.355 100.227 188.507 99.416 188.823 98.4169Z" fill="#263238"/>
</g>
<g id="Group_34">
<path id="Vector_33" d="M181.881 95.3002C182.436 94.4205 182.948 93.7436 183.028 93.7906C183.108 93.8377 182.73 94.6015 182.19 95.492C181.649 96.3826 181.134 97.0559 181.043 97.0016C180.952 96.9473 181.326 96.1835 181.881 95.3002Z" fill="#263238"/>
</g>
<g id="Group_35">
<path id="Vector_34" d="M176.043 90.4494C176.816 89.7471 177.494 89.233 177.553 89.3018C177.611 89.3706 177.052 90.0005 176.29 90.7136C175.528 91.4268 174.856 91.9408 174.78 91.8648C174.704 91.7888 175.274 91.1516 176.043 90.4494Z" fill="#263238"/>
</g>
<g id="Group_36">
<path id="Vector_35" d="M171.718 84.2157C172.65 83.7487 173.441 83.4338 173.481 83.5134C173.521 83.5931 172.81 84.0528 171.885 84.5379C170.959 85.023 170.172 85.3379 170.121 85.2402C170.07 85.1424 170.789 84.6863 171.718 84.2157Z" fill="#263238"/>
</g>
<g id="Group_37">
<path id="Vector_36" d="M169.229 77.0553C170.255 76.8526 171.101 76.7621 171.119 76.8526C171.137 76.9431 170.324 77.1929 169.305 77.4101C168.285 77.6273 167.436 77.7178 167.414 77.6128C167.392 77.5078 168.213 77.258 169.229 77.0553Z" fill="#263238"/>
</g>
<g id="Group_38">
<path id="Vector_37" d="M168.768 69.504C169.809 69.5801 170.647 69.7176 170.644 69.8081C170.64 69.8986 169.787 69.924 168.746 69.8624C167.704 69.8009 166.863 69.6669 166.87 69.5583C166.877 69.4497 167.726 69.4099 168.768 69.504Z" fill="#263238"/>
</g>
<g id="Group_39">
<path id="Vector_38" d="M170.346 62.0722C171.329 62.4342 172.099 62.7962 172.07 62.8722C172.041 62.9482 171.213 62.7527 170.226 62.4125C169.239 62.0722 168.47 61.7174 168.503 61.6161C168.535 61.5147 169.366 61.7174 170.346 62.0722Z" fill="#263238"/>
</g>
<g id="Group_40">
<path id="Vector_39" d="M173.87 55.3571C174.719 55.9617 175.365 56.5119 175.321 56.5879C175.277 56.6639 174.53 56.244 173.67 55.654C172.81 55.0639 172.164 54.5137 172.219 54.4232C172.273 54.3327 173.017 54.7526 173.87 55.3571Z" fill="#263238"/>
</g>
<g id="Group_41">
<path id="Vector_40" d="M179.062 49.8257C179.719 50.633 180.194 51.3353 180.125 51.3968C180.056 51.4583 179.45 50.8538 178.783 50.0538C178.115 49.2538 177.636 48.5551 177.719 48.4863C177.803 48.4175 178.405 49.0185 179.062 49.8257Z" fill="#263238"/>
</g>
<g id="Group_42">
<path id="Vector_41" d="M185.557 45.8799C185.971 46.8356 186.243 47.6392 186.156 47.6899C186.069 47.7406 185.655 46.9876 185.227 46.0392C184.799 45.0908 184.527 44.2871 184.624 44.2292C184.722 44.1713 185.132 44.9279 185.557 45.8799Z" fill="#263238"/>
</g>
<g id="Group_43">
<path id="Vector_42" d="M192.865 43.8273C193.007 44.859 193.05 45.7061 192.956 45.7206C192.861 45.735 192.662 44.9097 192.506 43.8816C192.35 42.8535 192.306 42.0028 192.412 41.9883C192.517 41.9739 192.724 42.7956 192.865 43.8273Z" fill="#263238"/>
</g>
<g id="Group_44">
<path id="Vector_43" d="M200.463 43.802C200.325 44.8337 200.14 45.6627 200.049 45.6518C199.959 45.641 199.981 44.7903 200.104 43.7586C200.227 42.7269 200.412 41.8943 200.518 41.9088C200.623 41.9232 200.601 42.7667 200.463 43.802Z" fill="#263238"/>
</g>
<g id="Group_45">
<path id="Vector_44" d="M207.789 45.8039C207.379 46.7632 206.977 47.5089 206.89 47.4727C206.802 47.4365 207.06 46.6293 207.456 45.6627C207.851 44.6962 208.257 43.9541 208.355 43.9975C208.453 44.041 208.203 44.8482 207.789 45.8039Z" fill="#263238"/>
</g>
<g id="Group_46">
<path id="Vector_45" d="M214.306 49.7026C213.653 50.5171 213.065 51.1288 212.993 51.0709C212.92 51.013 213.381 50.2999 214.023 49.4781C214.665 48.6564 215.25 48.0301 215.337 48.1134C215.424 48.1967 214.948 48.8917 214.306 49.7026Z" fill="#263238"/>
</g>
<g id="Group_47">
<path id="Vector_46" d="M219.542 55.1978C218.693 55.8059 217.964 56.2403 217.91 56.1643C217.855 56.0883 218.49 55.5272 219.328 54.9046C220.166 54.2819 220.896 53.8511 220.961 53.938C221.026 54.0249 220.391 54.5896 219.542 55.1978Z" fill="#263238"/>
</g>
<g id="Group_48">
<path id="Vector_47" d="M223.109 61.902C222.13 62.264 221.295 62.4776 221.273 62.3943C221.251 62.3111 221.999 61.9346 222.982 61.5617C223.966 61.1889 224.775 60.9681 224.815 61.0694C224.855 61.1708 224.089 61.54 223.109 61.902Z" fill="#263238"/>
</g>
<g id="Group_49">
<path id="Vector_48" d="M224.746 69.2941C223.704 69.3774 222.855 69.3701 222.848 69.2941C222.841 69.2181 223.675 69.0516 224.713 68.9321C225.751 68.8127 226.604 68.8416 226.611 68.9502C226.618 69.0588 225.776 69.2108 224.746 69.2941Z" fill="#263238"/>
</g>
<g id="Group_50">
<path id="Vector_49" d="M184.001 36.0914L183.888 36.1421L183.554 36.2761C183.264 36.3991 182.828 36.5476 182.273 36.7901C180.709 37.4424 179.19 38.1983 177.727 39.0526C176.798 39.5884 175.814 40.2291 174.78 40.9495C173.746 41.6699 172.69 42.5097 171.634 43.4545C166.998 47.531 163.457 52.6989 161.333 58.4884C160.836 59.8133 160.462 61.1092 160.139 62.322C159.816 63.5346 159.598 64.693 159.435 65.7501C159.17 67.4204 159.016 69.1058 158.974 70.7964C158.945 71.3973 158.974 71.8606 158.974 72.1756C158.974 72.3276 158.974 72.4435 158.974 72.5376C158.978 72.5785 158.978 72.6198 158.974 72.6607C158.97 72.6208 158.97 72.581 158.974 72.5412C158.974 72.4507 158.974 72.3312 158.974 72.1792C158.974 71.8643 158.934 71.4009 158.952 70.8C158.966 69.1033 159.1 67.4095 159.355 65.732C159.508 64.6677 159.744 63.5129 160.037 62.2857C160.365 60.9815 160.76 59.6946 161.22 58.4305C163.334 52.6022 166.896 47.4047 171.573 43.3242C172.636 42.3794 173.717 41.5649 174.74 40.8228C175.764 40.0807 176.772 39.4653 177.712 38.9368C179.185 38.0915 180.717 37.3508 182.295 36.7213C182.85 36.4896 183.297 36.3593 183.594 36.2399L183.935 36.124C183.956 36.1117 183.978 36.1008 184.001 36.0914Z" fill="white"/>
</g>
<g id="Group_51">
<path id="Vector_50" d="M194.922 33.9774C194.549 34.0549 194.171 34.1044 193.79 34.1258C193.086 34.1982 192.121 34.3032 191.054 34.4407C189.988 34.5783 189.026 34.7231 188.329 34.8317C187.956 34.9081 187.578 34.9566 187.197 34.9765C187.558 34.8509 187.93 34.7589 188.308 34.7014C189.001 34.5602 189.962 34.3937 191.029 34.2561C192.096 34.1186 193.072 34.0317 193.779 33.9919C194.159 33.9513 194.542 33.9466 194.922 33.9774Z" fill="white"/>
</g>
<g id="Group_52">
<g id="Group_53">
<path id="Vector_51" d="M170.499 91.2638C170.499 91.2638 187.527 118.074 213.943 104.343C241.521 90.0077 226.281 57.1489 226.281 57.1489C226.281 57.1489 239.256 83.336 212.376 100.408C205.681 104.661 198.391 104.665 192.832 104.108C178.627 102.689 170.499 91.2638 170.499 91.2638Z" fill="black"/>
</g>
</g>
<g id="Group_54">
<g id="Group_55">
<path id="Vector_52" d="M193.279 71.7132L181.415 51.6112L197.834 68.8149L197.023 72.5655L193.279 71.7132Z" fill="#017E8A"/>
</g>
<path id="Vector_53" d="M181.416 51.6112L195.152 69.2249L197.836 68.8149L181.416 51.6112ZM193.658 70.7206C194.68 68.8636 197.017 68.1842 198.876 69.203C200.736 70.2218 201.414 72.5528 200.392 74.4097C199.369 76.2667 197.032 76.9461 195.173 75.9273C193.313 74.9086 192.635 72.5776 193.658 70.7206ZM198.876 69.203C198.586 69.0832 198.289 68.9802 197.987 68.8936C197.155 68.6909 196.278 68.7723 195.497 69.1246C194.33 69.65 193.509 70.7302 193.317 71.9929C193.258 72.3485 193.256 72.7108 193.309 73.0671C193.356 73.4412 193.463 73.8052 193.625 74.1456C194.315 75.6261 195.888 76.4876 197.51 76.2741C198.246 76.1755 198.938 75.8651 199.501 75.3807C201.082 74.0051 201.247 71.6124 199.871 70.0362C199.791 69.9456 199.708 69.8587 199.62 69.7759C199.386 69.5676 199.139 69.373 198.882 69.1935C199.171 69.3266 199.438 69.5048 199.671 69.7211C200.334 70.3097 200.771 71.1103 200.907 71.9853C201.003 72.5865 200.955 73.2016 200.767 73.7806C200.55 74.4468 200.159 75.0429 199.634 75.5073C199.352 75.7619 199.032 75.97 198.686 76.1243C198.328 76.2937 197.945 76.405 197.552 76.4539C195.848 76.6885 194.192 75.7814 193.476 74.2209C193.308 73.8635 193.197 73.482 193.147 73.0901C193.095 72.7157 193.101 72.3357 193.164 71.9627C193.273 71.271 193.568 70.6213 194.017 70.0828C194.989 68.913 196.557 68.4186 198.024 68.8189C198.327 68.9019 198.614 69.0316 198.876 69.203ZM195.192 74.7388C193.986 73.7221 193.836 71.9219 194.856 70.7176C195.876 69.5134 197.68 69.362 198.886 70.3787C200.092 71.3955 200.242 73.1956 199.222 74.3999C198.201 75.6041 196.397 75.7555 195.192 74.7388Z" fill="black"/>
<g id="Group_56">
<path id="Vector_54" d="M193.662 70.7221C194.685 68.8653 197.021 68.1859 198.88 69.2043C200.74 70.2228 201.418 72.5534 200.395 74.4101C199.372 76.2669 197.036 76.9463 195.177 75.9279C193.318 74.9094 192.64 72.5788 193.662 70.7221Z" fill="#FAFAFA"/>
</g>
<g id="Group_57">
<path id="Vector_55" d="M198.88 69.2042C198.59 69.0845 198.294 68.9815 197.992 68.895C197.159 68.6924 196.283 68.7738 195.502 69.1261C194.335 69.6515 193.514 70.7316 193.322 71.9941C193.263 72.3497 193.261 72.7119 193.314 73.0681C193.36 73.4421 193.467 73.8061 193.63 74.1464C194.319 75.6267 195.892 76.4879 197.514 76.2743C198.25 76.1757 198.942 75.8652 199.504 75.3809C201.085 74.0054 201.251 71.6131 199.874 70.0372C199.795 69.9467 199.712 69.8597 199.624 69.777C199.39 69.5688 199.143 69.3742 198.886 69.1947C199.175 69.3277 199.442 69.5059 199.675 69.7222C200.337 70.3106 200.774 71.1111 200.911 71.986C201.006 72.5871 200.958 73.202 200.77 73.781C200.554 74.447 200.162 75.0431 199.637 75.5075C199.356 75.762 199.036 75.9701 198.689 76.1245C198.331 76.2938 197.949 76.4052 197.556 76.4541C195.852 76.6888 194.196 75.782 193.481 74.2218C193.313 73.8644 193.202 73.4829 193.152 73.0912C193.1 72.7168 193.106 72.3369 193.169 71.964C193.278 71.2723 193.573 70.6227 194.022 70.0842C194.994 68.9146 196.561 68.4201 198.029 68.8202C198.331 68.9032 198.618 69.0329 198.88 69.2042Z" fill="#263238"/>
</g>
<g id="Group_58">
<path id="Vector_56" d="M195.196 74.7397C193.991 73.7232 193.841 71.9234 194.861 70.7192C195.881 69.5151 197.685 69.3636 198.89 70.3801C200.095 71.3965 200.245 73.1964 199.225 74.4006C198.205 75.6047 196.401 75.7562 195.196 74.7397Z" fill="#455A64"/>
</g>
</g>
</g>
<g id="Group_59">
<g id="Group_60">
<path id="Vector_57" d="M166.805 164.67H185.71L176.896 88.889L166.805 164.67Z" fill="#E0E0E0"/>
</g>
<g id="Group_61">
<path id="Vector_58" d="M73.7825 88.889L61.4744 165.564L166.503 166.929L176.896 88.889H73.7825Z" fill="#FAFAFA"/>
</g>
<g id="Group_62">
<path id="Vector_59" d="M172.218 124.014H68.1438L70.408 109.896H174.098L172.218 124.014Z" fill="#EBEBEB"/>
</g>
<g id="Group_63">
<path id="Vector_60" d="M172.226 124.025H68.1328L70.4007 109.907H174.109L172.226 124.025ZM68.1546 124.007H172.211L174.087 109.889H70.4188L68.1546 124.007Z" fill="#263238"/>
</g>
<g id="Group_64">
<path id="Vector_61" d="M73.7825 88.889L70.408 109.896H174.098L176.896 88.889H73.7825Z" fill="#017E8A"/>
</g>
<g id="Group_65">
<path id="Vector_62" d="M73.7971 88.8891L176.91 88.8022H177.008V88.9C173.971 111.746 170.524 137.654 166.881 165.018V165.101H165.618L61.5616 165.072H61.46V164.982L73.7971 88.8891C73.6955 89.519 69.0074 118.917 61.6523 165.018L61.5761 164.927H165.593H166.772L166.681 165.007C170.328 137.643 173.782 111.739 176.841 88.8927L176.925 88.9869L73.7971 88.8891Z" fill="#263238"/>
</g>
<g id="Group_66">
<path id="Vector_63" d="M174.098 109.896C174.098 109.947 150.875 109.99 122.257 109.99C93.6381 109.99 70.408 109.947 70.408 109.896C70.408 109.845 93.6308 109.802 122.257 109.802C150.882 109.802 174.098 109.842 174.098 109.896Z" fill="#263238"/>
</g>
<g id="Group_67">
<path id="Vector_64" d="M172.219 124.014C172.219 124.068 148.872 124.108 120.083 124.108C91.2942 124.108 67.9443 124.068 67.9443 124.014C67.9443 123.96 91.2833 123.92 120.083 123.92C148.883 123.92 172.219 123.963 172.219 124.014Z" fill="#263238"/>
</g>
<g id="Group_68">
<path id="Vector_65" d="M170.099 137.006C170.099 137.06 146.757 137.1 117.968 137.1C89.1786 137.1 65.8142 137.06 65.8142 137.006C65.8142 136.952 89.1532 136.912 117.953 136.912C146.753 136.912 170.099 136.955 170.099 137.006Z" fill="#263238"/>
</g>
<g id="Group_69">
<path id="Vector_66" d="M167.984 149.998C167.984 150.049 144.638 150.092 115.849 150.092C87.0596 150.092 63.7097 150.049 63.7097 149.998C63.7097 149.948 87.0487 149.904 115.849 149.904C144.649 149.904 167.984 149.948 167.984 149.998Z" fill="#263238"/>
</g>
<g id="Group_70">
<path id="Vector_67" d="M76.2173 165.123C76.1665 165.123 78.0715 152.742 80.4772 137.495C82.883 122.247 84.8678 109.885 84.9186 109.896C84.9694 109.907 83.0644 122.269 80.6623 137.524C78.2602 152.778 76.2717 165.13 76.2173 165.123Z" fill="#263238"/>
</g>
<g id="Group_71">
<path id="Vector_68" d="M92.2665 165.123C92.2121 165.123 94.1207 152.742 96.5228 137.495C98.9249 122.247 100.913 109.885 100.968 109.896C101.022 109.907 99.1136 122.269 96.7079 137.524C94.3021 152.778 92.3028 165.13 92.2665 165.123Z" fill="#263238"/>
</g>
<g id="Group_72">
<path id="Vector_69" d="M107.18 164.569C107.129 164.569 109.016 152.315 111.393 137.22C113.769 122.124 115.747 109.885 115.794 109.896C115.841 109.907 113.958 122.146 111.581 137.249C109.205 152.351 107.227 164.576 107.18 164.569Z" fill="#263238"/>
</g>
<g id="Group_73">
<path id="Vector_70" d="M121.93 165.007C121.879 165.007 123.781 152.652 126.179 137.437C128.578 122.222 130.563 109.885 130.613 109.896C130.664 109.907 128.763 122.244 126.364 137.466C123.966 152.688 121.981 165.014 121.93 165.007Z" fill="#263238"/>
</g>
<g id="Group_74">
<path id="Vector_71" d="M136.753 165.007C136.702 165.007 138.603 152.652 141.002 137.437C143.4 122.222 145.385 109.885 145.436 109.896C145.487 109.907 143.589 122.244 141.19 137.466C138.792 152.688 136.807 165.014 136.753 165.007Z" fill="#263238"/>
</g>
<g id="Group_75">
<path id="Vector_72" d="M151.565 165.072C151.514 165.072 153.419 152.702 155.821 137.462C158.223 122.222 160.208 109.871 160.262 109.881C160.317 109.892 158.408 122.247 156.006 137.491C153.604 152.735 151.616 165.094 151.565 165.072Z" fill="#263238"/>
</g>
<g id="Group_76">
<g id="Group_77">
<path id="Vector_73" d="M142.239 110.881C144.024 110.091 145.142 108.238 145.603 106.345C146.064 104.451 145.991 102.475 146.06 100.524C146.129 98.5725 146.361 96.5634 147.359 94.8874C147.951 93.8991 148.782 93.0774 149.438 92.1253C150.095 91.1732 150.581 90.0148 150.338 88.8673L139.169 88.9252L142.239 110.881Z" fill="black"/>
</g>
</g>
<g id="Group_78">
<path id="Vector_74" d="M98.9685 128.387C98.9685 128.387 99.0048 128.293 99.081 128.108C99.2015 127.84 99.347 127.584 99.5164 127.344C100.184 126.414 101.125 125.715 102.209 125.342C102.985 125.062 103.814 124.954 104.636 125.024C105.616 125.119 106.56 125.44 107.394 125.961C108.357 126.553 109.17 127.358 109.771 128.314C110.466 129.382 110.812 130.637 110.761 131.909C110.72 132.595 110.506 133.26 110.141 133.842C109.758 134.446 109.248 134.96 108.646 135.348C107.364 136.168 105.855 136.562 104.335 136.474C103.539 136.431 102.755 136.261 102.013 135.971C101.241 135.67 100.546 135.2 99.9809 134.595C99.7 134.277 99.4631 133.923 99.277 133.542C99.0995 133.153 98.9772 132.741 98.9141 132.318C98.7936 131.452 98.8691 130.57 99.1354 129.737C99.6902 128 100.893 126.542 102.495 125.665C104.179 124.742 106.196 124.65 107.956 125.415C108.857 125.793 109.645 126.395 110.246 127.163C110.848 127.952 111.224 128.889 111.335 129.875C111.46 130.874 111.298 131.889 110.867 132.8C110.645 133.257 110.354 133.677 110.003 134.045C109.646 134.408 109.244 134.723 108.806 134.983C107.019 135.964 104.905 136.16 102.967 135.526C102.023 135.236 101.156 134.742 100.427 134.078C99.7044 133.413 99.2106 132.537 99.0157 131.576C98.811 130.631 98.946 129.644 99.3967 128.789C99.6253 128.367 99.9392 127.997 100.318 127.703C100.692 127.421 101.108 127.203 101.552 127.055C102.423 126.776 103.337 126.653 104.252 126.693C105.142 126.699 106.027 126.821 106.886 127.055C107.735 127.277 108.519 127.697 109.176 128.278C109.805 128.864 110.233 129.631 110.402 130.472C110.569 131.285 110.52 132.127 110.261 132.915C110.004 133.676 109.57 134.364 108.994 134.925C107.901 135.991 106.454 136.619 104.927 136.691C104.212 136.729 103.497 136.626 102.822 136.387C102.174 136.155 101.592 135.772 101.124 135.268C100.681 134.788 100.346 134.219 100.141 133.6C99.9384 133.018 99.8485 132.404 99.8757 131.79C99.9276 130.652 100.383 129.569 101.16 128.734C101.825 128.009 102.666 127.466 103.602 127.16C104.388 126.904 105.221 126.825 106.041 126.928C107.174 127.068 108.251 127.501 109.165 128.184C109.402 128.358 109.627 128.549 109.836 128.756C109.978 128.897 110.047 128.973 110.047 128.973C110.047 128.973 109.967 128.905 109.825 128.771C109.61 128.571 109.382 128.385 109.143 128.213C108.227 127.551 107.157 127.133 106.033 127C104.236 126.793 102.449 127.467 101.24 128.81C100.483 129.627 100.041 130.686 99.9954 131.797C99.9707 132.4 100.061 133.001 100.26 133.571C100.462 134.172 100.79 134.723 101.222 135.189C101.677 135.676 102.241 136.049 102.869 136.275C103.527 136.503 104.224 136.601 104.919 136.564C106.41 136.491 107.821 135.874 108.885 134.83C109.441 134.288 109.86 133.622 110.108 132.887C110.356 132.125 110.401 131.311 110.239 130.526C110.076 129.719 109.663 128.982 109.06 128.419C108.421 127.859 107.661 127.455 106.839 127.239C105.995 127.009 105.124 126.887 104.248 126.877C103.355 126.844 102.464 126.966 101.614 127.239C100.747 127.504 100.012 128.088 99.56 128.872C99.1304 129.69 99.0019 130.633 99.1971 131.536C99.3851 132.46 99.8615 133.3 100.558 133.936C101.264 134.587 102.107 135.072 103.025 135.355C104.911 135.974 106.969 135.783 108.708 134.827C109.132 134.578 109.521 134.274 109.865 133.922C110.202 133.569 110.482 133.166 110.696 132.727C111.114 131.848 111.271 130.869 111.15 129.904C111.046 128.952 110.686 128.047 110.108 127.283C109.527 126.54 108.765 125.958 107.895 125.592C106.186 124.848 104.228 124.936 102.593 125.831C101.036 126.687 99.8673 128.105 99.3278 129.795C99.069 130.603 98.9936 131.459 99.1064 132.3C99.1717 132.708 99.2936 133.106 99.4693 133.48C99.6489 133.846 99.8757 134.187 100.144 134.494C100.691 135.079 101.363 135.535 102.111 135.826C102.837 136.112 103.603 136.281 104.382 136.326C105.87 136.416 107.348 136.036 108.606 135.24C109.785 134.52 110.552 133.283 110.671 131.909C110.721 130.665 110.385 129.436 109.709 128.39C109.122 127.446 108.325 126.65 107.38 126.063C106.561 125.546 105.633 125.225 104.669 125.125C103.859 125.049 103.041 125.15 102.274 125.422C101.2 125.784 100.262 126.467 99.589 127.377C99.4152 127.613 99.2646 127.865 99.1391 128.13C99.0157 128.296 98.9685 128.387 98.9685 128.387Z" fill="#017E8A"/>
</g>
<g id="Group_79">
<g id="Group_80">
<path id="Vector_75" d="M156.528 124.807C156.528 124.807 157.933 133.473 156.51 139.001L142.78 138.708C142.78 138.708 145.588 129.882 143.807 125.469L156.528 124.807Z" fill="#EBEBEB"/>
</g>
<g id="Group_81">
<path id="Vector_76" d="M156.467 124.481C156.467 124.481 156.376 135.381 155.821 138.708L142.116 138.06C142.116 138.06 143.317 127.344 142.841 124.481H156.467Z" fill="#455A64"/>
</g>
<g id="Group_82">
<path id="Vector_77" d="M144.786 129.332C144.786 129.382 146.847 129.426 149.391 129.43C151.935 129.433 153.999 129.397 153.999 129.346C153.999 129.296 151.938 129.252 149.391 129.249C146.844 129.245 144.786 129.281 144.786 129.332Z" fill="white"/>
</g>
<g id="Group_83">
<path id="Vector_78" d="M144.917 131.638C144.917 131.688 146.978 131.732 149.522 131.735C152.065 131.739 154.13 131.703 154.13 131.652C154.13 131.602 152.069 131.558 149.522 131.554C146.974 131.551 144.917 131.587 144.917 131.638Z" fill="white"/>
</g>
<g id="Group_84">
<path id="Vector_79" d="M147.374 133.763C147.626 133.817 147.884 133.84 148.143 133.831C148.618 133.831 149.275 133.857 150.001 133.86C150.726 133.864 151.379 133.86 151.855 133.835C152.113 133.846 152.371 133.825 152.624 133.773C152.372 133.72 152.113 133.698 151.855 133.708C151.379 133.69 150.726 133.679 150.001 133.676C149.275 133.672 148.618 133.676 148.143 133.701C147.885 133.691 147.626 133.712 147.374 133.763Z" fill="white"/>
</g>
</g>
<g id="Group_85">
<g id="Group_86">
<path id="Vector_80" d="M91.6533 149.781C91.6533 149.781 91.7695 158.675 89.5197 164L75.8074 161.669C75.8074 161.669 79.9367 153.242 78.8118 148.557L91.6533 149.781Z" fill="#EBEBEB"/>
</g>
<g id="Group_87">
<path id="Vector_81" d="M91.6497 149.448C91.6497 149.448 89.9297 160.366 88.8774 163.624L75.2485 160.923C75.2485 160.923 78.0534 150.368 78.0171 147.428L91.6497 149.448Z" fill="#017E8A"/>
</g>
<g id="Group_88">
<path id="Vector_82" d="M79.3997 152.322C79.3997 152.373 81.4244 152.844 83.9463 153.372C86.4681 153.901 88.5183 154.288 88.5291 154.241C88.54 154.194 86.5044 153.72 83.9825 153.191C81.4607 152.663 79.4105 152.272 79.3997 152.322Z" fill="white"/>
</g>
<g id="Group_89">
<path id="Vector_83" d="M79.0513 154.636C79.0513 154.686 81.076 155.153 83.5979 155.685C86.1197 156.217 88.1699 156.601 88.1808 156.554C88.1916 156.507 86.156 156.033 83.6342 155.504C81.1123 154.976 79.0622 154.574 79.0513 154.636Z" fill="white"/>
</g>
<g id="Group_90">
<path id="Vector_84" d="M81.0542 157.253C81.2868 157.354 81.5303 157.427 81.7799 157.47C82.248 157.582 82.8975 157.731 83.6123 157.883C84.3272 158.035 84.9839 158.158 85.4593 158.245C85.7133 158.308 85.9742 158.34 86.2358 158.339C85.9945 158.237 85.7427 158.163 85.4847 158.118C85.0202 158.002 84.3707 157.854 83.6523 157.705C82.9338 157.557 82.2807 157.427 81.8089 157.343C81.5618 157.283 81.3086 157.252 81.0542 157.253Z" fill="white"/>
</g>
</g>
<g id="Group_91">
<g id="Group_92">
<path id="Vector_85" d="M109.27 165.01C109.23 164.974 112.089 161.984 115.653 158.339C119.216 154.693 122.137 151.758 122.184 151.794C122.231 151.83 119.365 154.82 115.801 158.469C112.238 162.118 109.306 165.047 109.27 165.01Z" fill="#017E8A"/>
</g>
<g id="Group_93">
<path id="Vector_86" d="M121.357 165.007C121.357 165.007 121.309 164.967 121.237 164.88L120.932 164.518C120.649 164.156 120.272 163.689 119.811 163.117C118.864 161.937 117.521 160.333 115.965 158.628C114.408 156.923 112.931 155.443 111.843 154.393L110.551 153.126L110.188 152.786C110.146 152.748 110.108 152.705 110.075 152.659C110.075 152.659 110.13 152.688 110.213 152.757L110.576 153.072C110.899 153.347 111.356 153.756 111.915 154.27C113.025 155.298 114.52 156.768 116.084 158.476C117.648 160.185 118.987 161.807 119.894 163.009C120.359 163.609 120.725 164.095 120.983 164.457L121.262 164.855C121.3 164.901 121.332 164.952 121.357 165.007Z" fill="#017E8A"/>
</g>
</g>
<g id="Group_94">
<g id="Group_95">
<path id="Vector_87" d="M139.09 138.523C139.119 138.563 136.368 140.666 132.939 143.229C129.51 145.792 126.709 147.815 126.676 147.772C126.644 147.729 129.398 145.629 132.827 143.066C136.256 140.503 139.057 138.479 139.09 138.523Z" fill="#263238"/>
</g>
<g id="Group_96">
<path id="Vector_88" d="M140.157 147.428C140.131 147.472 137.206 145.665 133.625 143.388C130.044 141.111 127.173 139.236 127.199 139.189C127.224 139.142 130.149 140.956 133.73 143.229C137.312 145.502 140.2 147.385 140.157 147.428Z" fill="#263238"/>
</g>
</g>
<g id="Group_97">
<g id="Group_98">
<path id="Vector_89" d="M108.798 138.382C108.831 138.422 105.954 140.876 102.369 143.866C98.7835 146.856 95.8371 149.242 95.8153 149.202C95.7935 149.162 98.6601 146.708 102.245 143.721C105.83 140.735 108.766 138.342 108.798 138.382Z" fill="#263238"/>
</g>
<g id="Group_99">
<path id="Vector_90" d="M109.426 148.88C109.255 148.779 109.094 148.664 108.944 148.536L107.666 147.544C106.596 146.697 105.126 145.517 103.508 144.206C101.89 142.896 100.435 141.701 99.3859 140.829L98.1486 139.786C97.9918 139.667 97.8459 139.534 97.7131 139.388C97.8833 139.489 98.0444 139.605 98.1957 139.732L99.4694 140.724C100.54 141.571 102.009 142.751 103.628 144.061C105.246 145.372 106.701 146.567 107.753 147.439L108.987 148.478C109.143 148.601 109.29 148.735 109.426 148.88Z" fill="#263238"/>
</g>
</g>
<g id="Group_100">
<g id="Group_101">
<path id="Vector_91" d="M95.9314 125.06C95.9017 125.109 95.865 125.152 95.8226 125.19L95.4887 125.552C95.1948 125.853 94.763 126.276 94.2187 126.805C93.1302 127.847 91.6171 129.266 89.8935 130.787C88.1699 132.307 86.5733 133.632 85.4013 134.573C84.8135 135.044 84.3345 135.42 84.0007 135.659L83.6124 135.949C83.5692 135.987 83.5203 136.017 83.4673 136.04C83.4673 136.04 83.5072 135.992 83.587 135.92L83.9499 135.601L85.3106 134.454C86.4645 133.487 88.0465 132.144 89.7665 130.631C91.4864 129.118 93.0322 127.714 94.1208 126.696L95.4307 125.491L95.7935 125.169C95.8349 125.127 95.881 125.09 95.9314 125.06Z" fill="#263238"/>
</g>
<g id="Group_102">
<path id="Vector_92" d="M95.0933 136.184C94.9391 136.05 94.7947 135.905 94.6615 135.75L93.5258 134.541C92.5461 133.502 91.2325 132.105 89.7847 130.559L86.0037 126.613L84.8571 125.415C84.7123 125.272 84.5777 125.12 84.4543 124.959C84.6187 125.08 84.7718 125.215 84.9115 125.364C85.1946 125.632 85.601 126.027 86.0981 126.519C87.0923 127.504 88.4494 128.883 89.919 130.432C91.3885 131.982 92.6948 133.408 93.6237 134.454C94.0882 134.975 94.4619 135.402 94.7123 135.699C94.8538 135.849 94.9816 136.011 95.0933 136.184Z" fill="#263238"/>
</g>
</g>
<g id="Group_103">
<path id="Vector_93" d="M159.431 99.8178C156.87 99.8178 154.29 98.2142 152.933 95.691C151.613 93.1784 151.204 90.2885 151.775 87.5098C152.526 83.8898 154.928 80.9214 157.896 79.973C160.418 79.1657 164.925 79.611 167.051 83.1622C168.064 84.8987 168.567 86.8847 168.503 88.8927C168.463 89.4925 167.943 89.9461 167.342 89.9063C166.74 89.8665 166.286 89.3477 166.326 88.7479C166.345 87.1801 165.942 85.6358 165.157 84.2772C163.517 81.5441 159.921 81.5984 158.535 82.04C155.995 82.8509 154.369 85.5912 153.88 87.9479C153.409 90.2295 153.744 92.6028 154.827 94.6666C155.897 96.6576 158.063 97.8956 159.983 97.6024C160.578 97.5199 161.128 97.9344 161.211 98.5284C161.292 99.1109 160.894 99.6517 160.313 99.7491C160.021 99.7943 159.727 99.8171 159.431 99.8178Z" fill="#263238"/>
</g>
<g id="Group_104">
<path id="Vector_94" d="M89.1533 99.8179C86.5879 99.8179 84.0116 98.2142 82.6545 95.6911C81.3341 93.1788 80.924 90.2889 81.4933 87.5099C82.1283 84.4546 84.2765 80.9359 87.6619 79.9658C89.2941 79.5249 91.0249 79.6121 92.604 80.2156L91.8203 82.2428C90.6838 81.812 89.4406 81.7446 88.2643 82.0509C85.7678 82.7749 84.1422 85.5333 83.6415 87.9479C83.1712 90.2296 83.5058 92.6028 84.5885 94.6666C85.6589 96.6612 87.8288 97.8956 89.7447 97.6024L90.0749 99.7491C89.7701 99.7961 89.4617 99.8189 89.1533 99.8179Z" fill="#263238"/>
</g>
<g id="Group_105">
<path id="Vector_95" d="M158.535 88.947L157.534 94.4168H172.269L173.579 89.0013L158.535 88.947Z" fill="#017E8A"/>
</g>
<g id="Group_106">
<path id="Vector_96" d="M92.8871 98.9527C92.8893 100.244 91.8413 101.293 90.5467 101.295C89.252 101.297 88.2012 100.252 88.199 98.9599C88.1968 97.6683 89.2447 96.62 90.5394 96.6178C90.5419 96.6178 90.5441 96.6178 90.5467 96.6178C91.8384 96.6196 92.8853 97.664 92.8871 98.9527Z" fill="#263238"/>
</g>
<g id="Group_107">
<path id="Vector_97" d="M163.103 98.9527C163.106 100.244 162.058 101.293 160.763 101.295C159.468 101.297 158.417 100.252 158.415 98.9599C158.413 97.6683 159.461 96.62 160.756 96.6178C160.758 96.6178 160.76 96.6178 160.763 96.6178C162.055 96.6196 163.102 97.664 163.103 98.9527Z" fill="#263238"/>
</g>
</g>
<g id="Group_108">
<g id="Group_109">
<g id="Group_110">
<path id="Vector_98" d="M124.258 53.5228L119.975 67.9877L106.638 69.0257L106.568 71.3781L125.23 72.578L129.224 56.3263L124.258 53.5228Z" fill="#B88A68"/>
</g>
<g id="Group_111">
<path id="Vector_99" d="M130.326 46.2744C130.326 46.2744 125.218 47.9036 123.964 53.5171L129.223 56.3291L130.326 46.2744Z" fill="#017E8A"/>
</g>
</g>
<g id="Group_112">
<path id="Vector_100" d="M130.04 73.0951C130.04 73.0951 109.255 72.1068 103.337 76.7151C97.419 81.3233 100.286 88.8891 100.286 88.8891L133.734 88.8022L136.687 71.886L130.04 73.0951Z" fill="#263238"/>
</g>
<g id="Group_113">
<path id="Vector_101" d="M133.578 84.2555C133.477 84.258 133.376 84.2508 133.277 84.2337C133.081 84.212 132.794 84.1831 132.424 84.136C131.698 84.0455 130.61 83.8935 129.303 83.6726C125.874 83.0905 122.481 82.3086 119.143 81.3305C117.191 80.7549 115.344 80.1757 113.639 79.7522C112.133 79.3634 110.594 79.1209 109.041 79.0282C107.994 78.9695 106.943 79.0304 105.91 79.2092C105.547 79.2526 105.268 79.3467 105.072 79.3793C104.975 79.4032 104.877 79.4213 104.778 79.4336C104.87 79.3942 104.966 79.3638 105.064 79.3431C105.337 79.2584 105.615 79.1896 105.895 79.1368C106.931 78.9279 107.989 78.8465 109.045 78.8942C110.62 78.9692 112.183 79.2009 113.711 79.5857C115.428 79.9983 117.278 80.5775 119.223 81.1531C122.543 82.1229 125.911 82.9193 129.314 83.5387C130.624 83.7776 131.687 83.9478 132.424 84.0636L133.273 84.1975C133.376 84.2084 133.478 84.2276 133.578 84.2555Z" fill="#455A64"/>
</g>
<g id="Group_114">
<path id="Vector_102" d="M114.259 79.64C113.682 79.1651 113.067 78.7376 112.42 78.3622C111.741 78.0458 111.039 77.7841 110.319 77.5803C110.542 77.5607 110.767 77.5828 110.983 77.6454C111.513 77.7595 112.026 77.9444 112.507 78.1957C112.987 78.4483 113.431 78.7636 113.827 79.1332C114.002 79.2741 114.148 79.446 114.259 79.64Z" fill="#455A64"/>
</g>
<g id="Group_115">
<path id="Vector_103" d="M132.242 118.168L132.522 126.881L130.766 133.839C130.651 134.317 130.947 134.797 131.426 134.912C131.448 134.917 131.47 134.921 131.491 134.925C131.776 134.976 132.068 134.887 132.275 134.686C133.596 133.397 138.444 128.633 138.382 128C138.317 127.276 138.698 118.783 138.698 118.783L132.242 118.168Z" fill="#017E8A"/>
</g>
<g id="Group_116">
<g id="Group_117">
<path id="Vector_104" d="M131.459 134.939L138.353 127.424V127.786C138.357 128.106 138.246 128.417 138.041 128.662C137.493 129.317 135.936 131.095 132.275 134.693C132.063 134.903 131.759 134.992 131.466 134.932L131.459 134.939Z" fill="white"/>
</g>
</g>
<g id="Group_118">
<g id="Group_119">
<path id="Vector_105" d="M136.524 124.626C136.295 124.793 136.233 125.109 136.383 125.35C136.541 125.575 136.848 125.638 137.083 125.495C137.319 125.32 137.382 124.995 137.228 124.745C137.041 124.525 136.711 124.493 136.484 124.673" fill="white"/>
</g>
</g>
<g id="Group_120">
<path id="Vector_106" d="M133.422 131.109C133.371 131.134 133.168 130.682 132.649 130.439C132.328 130.313 131.985 130.252 131.64 130.258C131.64 130.237 131.742 130.168 131.945 130.135C132.495 130.069 133.033 130.328 133.324 130.798C133.425 130.975 133.44 131.102 133.422 131.109Z" fill="#263238"/>
</g>
<g id="Group_121">
<path id="Vector_107" d="M132.809 132.286C132.558 132.149 132.298 132.028 132.032 131.924C131.749 131.874 131.463 131.84 131.176 131.822C131.446 131.649 131.785 131.617 132.083 131.739C132.598 131.877 132.852 132.26 132.809 132.286Z" fill="#263238"/>
</g>
<g id="Group_122">
<path id="Vector_108" d="M134.565 129.596C134.194 129.352 133.806 129.136 133.404 128.948C132.979 128.818 132.544 128.721 132.104 128.658C133.038 128.463 133.999 128.83 134.565 129.596Z" fill="#263238"/>
</g>
<g id="Group_123">
<path id="Vector_109" d="M134.703 126.946C134.681 127 134.195 126.801 133.567 126.787C132.939 126.772 132.442 126.924 132.42 126.87C133.137 126.476 134.013 126.505 134.703 126.946Z" fill="#263238"/>
</g>
<g id="Group_124">
<path id="Vector_110" d="M134.684 124.387C134.302 124.267 133.905 124.2 133.505 124.188C133.108 124.234 132.72 124.335 132.351 124.488C132.351 124.47 132.431 124.358 132.631 124.242C133.172 123.937 133.828 123.909 134.394 124.166C134.594 124.264 134.699 124.365 134.684 124.387Z" fill="#263238"/>
</g>
<g id="Group_125">
<path id="Vector_111" d="M133.516 123.699C133.494 123.59 133.494 123.478 133.516 123.37C133.543 123.067 133.631 122.773 133.774 122.504C133.859 122.298 134.011 122.126 134.206 122.016C134.344 121.954 134.506 121.984 134.612 122.092C134.706 122.2 134.756 122.339 134.753 122.483C134.718 123.084 134.263 123.578 133.665 123.663C133.073 123.728 132.5 123.431 132.213 122.91C132.142 122.78 132.131 122.625 132.184 122.486C132.254 122.354 132.398 122.277 132.547 122.294C132.763 122.34 132.963 122.441 133.128 122.588C133.366 122.776 133.57 123.004 133.73 123.261C133.794 123.352 133.841 123.454 133.868 123.561C133.637 123.234 133.36 122.943 133.044 122.696C132.897 122.576 132.723 122.492 132.536 122.454C132.454 122.44 132.372 122.481 132.333 122.555C132.307 122.649 132.32 122.749 132.37 122.834C132.629 123.274 133.123 123.523 133.632 123.471C134.142 123.406 134.537 122.994 134.579 122.483C134.584 122.383 134.553 122.286 134.492 122.208C134.436 122.144 134.345 122.125 134.267 122.161C134.108 122.258 133.982 122.4 133.904 122.57C133.711 122.921 133.58 123.303 133.516 123.699Z" fill="#263238"/>
</g>
<g id="Group_126">
<path id="Vector_112" d="M136.669 71.8859C136.669 71.8859 127.681 88.8384 127.558 91.7959C127.435 94.7535 127.558 122.016 127.558 122.016H141.47C141.833 122.016 143.919 109.733 143.495 106.906C143.07 104.079 141.572 88.8818 141.572 88.8818H149.576C149.576 88.8818 151.771 86.5397 151.692 83.5677C151.644 81.9278 150.57 78.5757 149.514 76.7983C148.829 75.658 144.434 69.6886 144.434 69.6886L136.669 71.8859Z" fill="#263238"/>
</g>
<g id="Group_127">
<path id="Vector_113" d="M136.067 73.0335C136.057 73.0675 136.044 73.1001 136.027 73.1312C135.995 73.2036 135.951 73.2941 135.897 73.4063L135.374 74.4634C135.138 74.9231 134.859 75.4806 134.532 76.1286L134.01 77.1675L133.462 78.3512L130.766 84.1758C130.254 85.2618 129.717 86.4238 129.158 87.6148L128.313 89.4248C128.04 90.0507 127.833 90.7034 127.696 91.3724C127.558 92.0432 127.487 92.7259 127.482 93.4104C127.46 94.0874 127.446 94.7571 127.435 95.4123C127.435 96.73 127.409 97.997 127.413 99.2061C127.413 101.624 127.442 103.803 127.467 105.632C127.493 107.46 127.515 108.926 127.533 109.976C127.533 110.475 127.533 110.87 127.533 111.152C127.533 111.279 127.533 111.38 127.533 111.46C127.533 111.539 127.533 111.565 127.533 111.565C127.527 111.53 127.527 111.495 127.533 111.46C127.533 111.38 127.533 111.279 127.533 111.156C127.533 110.87 127.504 110.479 127.482 109.976C127.446 108.955 127.398 107.474 127.359 105.632C127.319 103.789 127.275 101.628 127.264 99.2061C127.264 97.997 127.264 96.7264 127.264 95.4123C127.264 94.7535 127.286 94.0838 127.311 93.4032C127.315 92.7078 127.386 92.0142 127.525 91.3326C127.666 90.6513 127.877 89.9863 128.157 89.3488L129.006 87.5388L130.624 84.107L133.375 78.2969L133.933 77.1168C134.126 76.7548 134.296 76.3928 134.471 76.0851L135.338 74.4344C135.574 73.9891 135.762 73.6416 135.893 73.3918C135.955 73.2832 136.005 73.1964 136.042 73.124C136.078 73.0516 136.063 73.0298 136.067 73.0335Z" fill="#455A64"/>
</g>
<g id="Group_128">
<path id="Vector_114" d="M133.157 78.8074C132.869 78.1182 132.626 77.4108 132.431 76.6897C132.177 75.9874 131.969 75.2692 131.811 74.5394C132.149 75.2084 132.417 75.911 132.609 76.6354C132.866 77.3388 133.05 78.0664 133.157 78.8074Z" fill="#455A64"/>
</g>
<g id="Group_129">
<path id="Vector_115" d="M143.524 106.374C143.501 106.312 143.486 106.247 143.48 106.182C143.463 106.034 143.438 105.85 143.404 105.628C143.339 105.118 143.255 104.422 143.15 103.579C142.95 101.827 142.682 99.4486 142.384 96.8205C142.087 94.1923 141.844 91.785 141.695 90.0511C141.626 89.204 141.568 88.5089 141.524 87.9985C141.524 87.7705 141.495 87.5858 141.484 87.4374C141.48 87.3723 141.48 87.3071 141.484 87.2419C141.507 87.3035 141.521 87.3683 141.524 87.4338C141.543 87.5822 141.568 87.7668 141.597 87.9913C141.655 88.5017 141.735 89.1931 141.829 90.0402C142.022 91.7923 142.283 94.1742 142.555 96.8024C142.827 99.4305 143.085 101.809 143.281 103.565C143.36 104.412 143.429 105.107 143.477 105.617C143.495 105.842 143.509 106.03 143.52 106.178C143.527 106.243 143.528 106.308 143.524 106.374Z" fill="#455A64"/>
</g>
<g id="Group_130">
<g id="Group_131">
<path id="Vector_116" d="M137.624 26.2324C137.224 24.8236 138.276 23.2809 139.677 22.9272C141.079 22.5735 142.631 23.2741 143.455 24.4854C144.244 25.7233 144.482 27.2325 144.112 28.6512C143.871 29.6064 143.327 30.612 142.369 30.8095C141.411 31.0069 140.574 30.367 139.844 29.7714" fill="#263238"/>
</g>
<g id="Group_132">
<path id="Vector_117" d="M128.43 34.673C124.727 28.7513 131.144 24.7002 134.997 25.2663C138.622 25.7999 140.343 27.3442 141.225 29.6037C142.163 31.8636 142.363 34.3607 141.796 36.7393C141.487 37.897 140.82 39.1158 139.659 39.4055" fill="#263238"/>
</g>
<g id="Group_133">
<path id="Vector_118" d="M137.682 28.4708C138.303 28.4547 138.834 28.9182 138.9 29.5359L140.33 45.6435C140.554 47.5389 137.929 48.968 135.893 49.1887C133.841 49.4114 133.641 48.4149 133.362 46.6217C132.921 43.6227 132.772 42.4917 132.774 42.5096C132.777 42.5276 130.129 42.415 129.151 39.1132C128.662 37.4715 128.387 34.7101 128.232 32.4443C128.096 30.4061 129.111 27.7473 131.157 27.6824L137.682 28.4708Z" fill="#B88A68"/>
</g>
<g id="Group_134">
<path id="Vector_119" d="M129.805 34.1927C129.832 34.4284 130.043 34.5993 130.28 34.5766C130.51 34.5649 130.687 34.3695 130.676 34.1398C130.675 34.1354 130.675 34.1315 130.675 34.1271C130.646 33.8923 130.436 33.7224 130.2 33.7432C129.97 33.7549 129.793 33.9503 129.805 34.18C129.805 34.1844 129.805 34.1883 129.805 34.1927Z" fill="#263238"/>
</g>
<g id="Group_135">
<path id="Vector_120" d="M129.026 33.8016C129.087 33.8485 129.386 33.5647 129.851 33.5043C130.315 33.4439 130.691 33.6326 130.733 33.5686C130.776 33.5045 130.688 33.4465 130.523 33.3584C130.303 33.2452 130.053 33.2023 129.808 33.2357C129.566 33.2647 129.339 33.3727 129.164 33.5424C129.034 33.669 128.998 33.7797 129.026 33.8016Z" fill="#263238"/>
</g>
<g id="Group_136">
<path id="Vector_121" d="M134.364 33.5989C134.392 33.8283 134.593 33.9976 134.824 33.9846C135.054 33.973 135.232 33.7775 135.22 33.5479C135.22 33.5435 135.219 33.5396 135.219 33.5352C135.19 33.3004 134.98 33.1305 134.744 33.1513C134.516 33.1708 134.346 33.3708 134.364 33.5989Z" fill="#263238"/>
</g>
<g id="Group_137">
<path id="Vector_122" d="M133.636 33.2887C133.697 33.3356 133.992 33.0522 134.456 32.9919C134.921 32.9315 135.297 33.1202 135.34 33.0597C135.383 32.9993 135.294 32.9341 135.129 32.8459C134.909 32.7323 134.659 32.6892 134.414 32.7233C134.172 32.7547 133.947 32.8623 133.77 33.03C133.619 33.1594 133.593 33.2723 133.636 33.2887Z" fill="#263238"/>
</g>
<g id="Group_138">
<path id="Vector_123" d="M132.381 36.9607C132.126 36.9172 131.867 36.9042 131.609 36.9224C131.49 36.9378 131.37 36.9169 131.342 36.8402C131.314 36.7167 131.326 36.5878 131.374 36.4709C131.448 36.1692 131.523 35.8527 131.615 35.5195C131.84 34.7106 132.001 33.8849 132.095 33.0507C131.803 33.8391 131.575 34.6504 131.415 35.476L131.197 36.4319C131.141 36.5851 131.141 36.7531 131.197 36.9065C131.244 36.9862 131.325 37.0403 131.417 37.0532C131.485 37.0618 131.554 37.0627 131.622 37.0557C131.878 37.0557 132.133 37.0236 132.381 36.9607Z" fill="#263238"/>
</g>
<g id="Group_139">
<path id="Vector_124" d="M132.782 42.504C134.383 42.3256 135.902 41.7044 137.167 40.7102C137.167 40.7102 136.371 43.1741 132.948 43.2972L132.782 42.504Z" fill="#EB996E"/>
</g>
<g id="Group_140">
<path id="Vector_125" d="M132.726 38.0539C132.877 37.8055 133.146 37.6519 133.437 37.6473C133.648 37.6377 133.854 37.7151 134.007 37.8618C134.154 38.0041 134.197 38.2228 134.115 38.4103C133.985 38.6019 133.75 38.6948 133.524 38.6442C133.292 38.5951 133.073 38.4994 132.88 38.3627C132.823 38.3325 132.771 38.292 132.729 38.2435C132.688 38.1955 132.679 38.128 132.706 38.0711" fill="#EB996E"/>
</g>
<g id="Group_141">
<path id="Vector_126" d="M133.797 37.104C133.722 37.1138 133.784 37.6135 133.399 38.0287C133.015 38.444 132.468 38.4566 132.472 38.5146C132.476 38.5725 132.603 38.5961 132.845 38.572C133.143 38.5366 133.418 38.3988 133.624 38.1821C133.82 37.9737 133.928 37.6981 133.926 37.4124C133.903 37.2144 133.829 37.0962 133.797 37.104Z" fill="#263238"/>
</g>
<g id="Group_142">
<path id="Vector_127" d="M133.306 32.5024C133.369 32.6221 133.829 32.5002 134.385 32.4974C134.94 32.4946 135.402 32.5808 135.459 32.46C135.484 32.4019 135.39 32.2936 135.197 32.1907C134.94 32.0692 134.657 32.0109 134.373 32.0201C134.089 32.0216 133.81 32.0919 133.559 32.2247C133.367 32.33 133.28 32.4437 133.306 32.5024Z" fill="#263238"/>
</g>
<g id="Group_143">
<path id="Vector_128" d="M129.022 32.4294C129.119 32.5265 129.425 32.377 129.813 32.3265C130.202 32.276 130.542 32.3048 130.596 32.1845C130.621 32.1264 130.575 32.0228 130.4 31.9468C130.194 31.8472 129.962 31.8145 129.737 31.854C129.511 31.8882 129.301 31.9908 129.135 32.1479C129.012 32.2699 128.979 32.3838 129.022 32.4294Z" fill="#263238"/>
</g>
<g id="Group_144">
<path id="Vector_129" d="M132.7 26.3575C131.561 26.5649 130.493 27.0553 129.595 27.7833C128.564 28.4997 127.861 29.596 127.64 30.8309C127.577 31.0904 127.623 31.3641 127.769 31.5884C128.026 31.8388 128.425 31.8714 128.719 31.6659C129.002 31.4608 129.23 31.189 129.383 30.8748C129.669 31.6221 130.508 31.9967 131.256 31.7114C131.777 31.5126 132.138 31.0334 132.184 30.4782C132.325 31.1435 132.966 31.5799 133.638 31.469C134.292 31.3259 134.799 30.808 134.927 30.1511C135.083 30.7247 135.359 31.2589 135.737 31.7186C136.13 32.1846 136.774 32.3552 137.347 32.1449C137.291 32.6569 137.367 33.1751 137.566 33.6502C137.808 34.1009 139.589 42.1195 140.049 41.8917C140.509 41.664 139.405 33.3932 139.45 32.898C139.568 31.9441 139.564 30.9787 139.438 30.0254C139.239 27.988 137.589 26.3945 135.543 26.2621C134.55 26.1665 133.549 26.2045 132.566 26.3748" fill="#263238"/>
</g>
<g id="Group_145">
<path id="Vector_130" d="M141.407 40.2473C141.407 40.2473 141.378 40.2731 141.309 40.3075C141.213 40.3576 141.111 40.3964 141.006 40.4236C140.003 40.6854 138.938 40.3462 138.271 39.5521C137.819 38.9608 137.568 38.2417 137.552 37.4985C137.504 36.7196 137.592 35.9926 137.589 35.3356C137.595 34.7513 137.57 34.1671 137.513 33.5855C137.448 33.0901 137.396 32.6915 137.359 32.4115C137.325 32.2703 137.306 32.1259 137.303 31.9807C137.364 32.1162 137.408 32.2591 137.435 32.4053C137.526 32.7926 137.597 33.1843 137.648 33.579C137.724 34.1636 137.763 34.7525 137.766 35.3419C137.773 36.0128 137.697 36.742 137.741 37.4922C137.755 38.1979 137.988 38.8819 138.407 39.4504C138.767 39.8995 139.27 40.2121 139.832 40.3351C140.211 40.4257 140.605 40.4345 140.987 40.3603C141.261 40.3064 141.401 40.2298 141.407 40.2473Z" fill="#263238"/>
</g>
<g id="Group_146">
<path id="Vector_131" d="M131.454 26.0812C131.617 26.3102 131.714 26.5792 131.735 26.8591C131.947 28.2724 130.976 29.59 129.562 29.8076C129.289 29.8701 129.003 29.8564 128.737 29.7686C128.733 29.7363 129.054 29.7823 129.536 29.6649C130.848 29.4031 131.747 28.1903 131.614 26.8602C131.563 26.3812 131.422 26.0926 131.454 26.0812Z" fill="#455A64"/>
</g>
<g id="Group_147">
<path id="Vector_132" d="M132.471 29.9866C132.489 29.9843 132.476 30.2199 132.25 30.5051C131.943 30.8626 131.504 31.0794 131.033 31.1055C130.576 31.1241 130.121 31.0315 129.706 30.8358C129.391 30.6904 129.214 30.5708 129.224 30.533C129.405 30.565 129.582 30.6194 129.75 30.6948C130.156 30.8424 130.586 30.9108 131.017 30.8957C131.443 30.8655 131.843 30.6837 132.146 30.3834C132.387 30.1839 132.448 29.975 132.471 29.9866Z" fill="#455A64"/>
</g>
<g id="Group_148">
<path id="Vector_133" d="M140.484 27.8948C140.549 28.2008 140.568 28.5147 140.541 28.8261C140.537 29.5895 140.347 30.3399 139.986 31.0127C139.602 31.6898 138.954 32.1782 138.196 32.3628C137.967 32.4137 137.731 32.4206 137.5 32.3838C137.339 32.3572 137.258 32.3203 137.26 32.3091C137.563 32.3237 137.867 32.2978 138.164 32.2318C138.864 32.0229 139.457 31.5537 139.821 30.921C140.164 30.2712 140.363 29.5555 140.405 28.8218C140.412 28.5115 140.438 28.202 140.484 27.8948Z" fill="#455A64"/>
</g>
<g id="Group_149">
<path id="Vector_134" d="M141.317 29.4474C141.362 29.5354 141.393 29.6301 141.408 29.7277C141.467 29.986 141.507 30.2481 141.53 30.5118C141.626 31.3981 141.422 32.2906 140.948 33.0454C140.679 33.4616 140.302 33.7969 139.857 34.0161C139.492 34.1903 139.088 34.268 138.683 34.2416C138.412 34.2253 138.147 34.1531 137.906 34.0285C137.74 33.9368 137.664 33.8626 137.671 33.8545C137.991 34.0036 138.336 34.0902 138.688 34.1095C139.066 34.1145 139.44 34.0298 139.778 33.862C140.189 33.6468 140.538 33.3298 140.791 32.9415C141.239 32.2157 141.452 31.3693 141.399 30.5179C141.371 29.8604 141.285 29.4552 141.317 29.4474Z" fill="#455A64"/>
</g>
</g>
<g id="Group_150">
<path id="Vector_135" d="M95.4089 73.9023L88.823 88.9289H97.8908L104.35 73.7828L95.4089 73.9023Z" fill="#455A64"/>
</g>
<g id="Group_151">
<path id="Vector_136" d="M90.6193 57.92L98.0469 72.4941H121.473L120.526 70.59L113.741 70.3873L108.207 58.101C107.864 57.3364 107.102 56.8445 106.262 56.8448H91.2797C90.8791 56.8304 90.5431 57.1428 90.5285 57.5424C90.5238 57.6742 90.555 57.8049 90.6193 57.92Z" fill="#E0E0E0"/>
</g>
<g id="Group_152">
<path id="Vector_137" d="M102.35 64.4541C102.35 64.9478 101.949 65.3482 101.454 65.3482C100.959 65.3482 100.558 64.9478 100.558 64.4541C100.558 63.9603 100.959 63.5599 101.454 63.5599C101.948 63.5617 102.349 63.961 102.35 64.4541Z" fill="#263238"/>
</g>
<g id="Group_153">
<path id="Vector_138" d="M95.3328 72.5231H123.969V73.9168H95.3328V72.5231Z" fill="#455A64"/>
</g>
<g id="Group_154">
<path id="Vector_139" d="M115.148 73.2217L123.86 88.9433H128.026L128.933 87.1442L129.768 85.2509L123.969 73.9167L115.148 73.2217Z" fill="#455A64"/>
</g>
<g id="Group_155">
<path id="Vector_140" d="M130.287 46.2673C130.287 46.2673 126.749 54.1806 126.883 58.5029C126.93 60.0052 127.917 63.9329 127.917 63.9329L129.757 73.6562C129.757 73.6562 143.839 71.7557 144.151 71.7557C144.464 71.7557 143.68 63.7736 143.68 63.7736L145.977 48.4356C145.977 48.4356 144.924 46.3469 140.171 45.6229C137.323 45.1776 130.287 46.2673 130.287 46.2673Z" fill="#017E8A"/>
</g>
<g id="Group_156">
<path id="Vector_141" d="M128.951 50.861C128.984 50.8791 128.614 51.4691 128.168 52.49C127.909 53.0876 127.691 53.7019 127.514 54.3289C127.302 55.0971 127.148 55.8801 127.054 56.6711C126.97 57.4635 126.945 58.2606 126.977 59.0566C127.01 59.7064 127.087 60.3537 127.206 60.9933C127.409 62.0793 127.641 62.7454 127.605 62.7563C127.529 62.6122 127.468 62.4605 127.424 62.3038C127.359 62.1246 127.303 61.9421 127.257 61.7572C127.199 61.54 127.122 61.2974 127.072 61.0332C126.936 60.3888 126.846 59.7354 126.803 59.0784C126.76 58.2718 126.78 57.4635 126.865 56.6602C126.961 55.858 127.123 55.0652 127.347 54.2891C127.534 53.6581 127.768 53.0424 128.048 52.4465C128.15 52.2152 128.264 51.9893 128.389 51.7696C128.476 51.5994 128.571 51.4336 128.676 51.2736C128.753 51.127 128.846 50.9887 128.951 50.861Z" fill="#263238"/>
</g>
<g id="Group_157">
<path id="Vector_142" d="M131.999 46.1948L132.202 44.0228C132.249 43.5555 132.639 43.1971 133.11 43.1902L140.058 43.0853C140.496 43.0802 140.862 43.414 140.897 43.8491L141.074 46.1912C140.493 47.4213 139.509 48.4172 138.284 49.0148C136.241 50.0031 133.066 50.0357 133.066 50.0357L131.999 46.1948Z" fill="#017E8A"/>
</g>
<g id="Group_158">
<path id="Vector_143" d="M133.817 43.2083C133.839 43.2083 133.738 43.3495 133.694 43.5703C133.655 43.8899 133.655 44.2136 133.694 44.5332C133.755 44.9995 133.755 45.4715 133.694 45.9378C133.569 45.4838 133.506 45.015 133.505 44.5441C133.457 44.2088 133.472 43.8675 133.549 43.5377C133.669 43.2879 133.806 43.1902 133.817 43.2083Z" fill="#263238"/>
</g>
<g id="Group_159">
<path id="Vector_144" d="M135.483 45.8943C135.362 45.4509 135.303 44.9929 135.309 44.5332C135.282 44.2081 135.282 43.8809 135.309 43.5558C135.345 43.2951 135.45 43.1612 135.472 43.1938C135.494 43.2264 135.439 43.3458 135.443 43.5847C135.447 43.8237 135.483 44.1639 135.483 44.5259C135.544 44.9799 135.544 45.4404 135.483 45.8943Z" fill="#263238"/>
</g>
<g id="Group_160">
<path id="Vector_145" d="M137.569 45.8364C137.419 45.4139 137.327 44.973 137.297 44.526C137.207 44.0829 137.179 43.63 137.214 43.1793C137.365 43.605 137.457 44.0496 137.486 44.5006C137.574 44.9401 137.602 45.3893 137.569 45.8364Z" fill="#263238"/>
</g>
<g id="Group_161">
<path id="Vector_146" d="M139.369 45.974C139.203 45.5088 139.115 45.0198 139.108 44.526C139.038 44.0337 139.05 43.5337 139.144 43.0454C139.239 43.5225 139.29 44.0072 139.296 44.4934C139.367 44.9836 139.391 45.4791 139.369 45.974Z" fill="#263238"/>
</g>
<g id="Group_162">
<g id="Group_163">
<path id="Vector_147" d="M140.748 54.2675C140.469 56.7037 140.654 60.9029 141.517 63.2016L145.574 56.5155L140.748 54.2675Z" fill="black"/>
</g>
</g>
<g id="Group_164">
<path id="Vector_148" d="M131.959 50.6293C131.553 50.3933 131.18 50.1047 130.849 49.7713C130.476 49.4843 130.144 49.1483 129.862 48.7722C130.641 49.2949 131.347 49.9198 131.959 50.6293Z" fill="#FAFAFA"/>
</g>
<g id="Group_165">
<path id="Vector_149" d="M130.882 54.8176C130.597 55.1094 130.267 55.3537 129.906 55.5416C129.574 55.782 129.206 55.9699 128.817 56.0991C129.433 55.5709 130.127 55.1413 130.875 54.8249L130.882 54.8176Z" fill="#FAFAFA"/>
</g>
<g id="Group_166">
<path id="Vector_150" d="M135.334 55.8494C135.269 55.335 135.269 54.8144 135.334 54.3C135.337 53.7827 135.4 53.2676 135.523 52.7651C135.586 53.2785 135.586 53.7976 135.523 54.3109C135.521 54.8293 135.458 55.3458 135.334 55.8494Z" fill="#FAFAFA"/>
</g>
<g id="Group_167">
<path id="Vector_151" d="M139.663 60.0377C139.302 59.6996 138.965 59.3365 138.654 58.9517C138.297 58.6125 137.964 58.2498 137.656 57.8657C138.092 58.1177 138.477 58.4478 138.792 58.8395C139.151 59.1845 139.446 59.5899 139.663 60.0377Z" fill="#FAFAFA"/>
</g>
<g id="Group_168">
<path id="Vector_152" d="M140.272 51.2809C139.961 51.6041 139.606 51.8818 139.217 52.1062C138.86 52.3799 138.468 52.604 138.052 52.7723C138.364 52.4487 138.721 52.1707 139.111 51.947C139.467 51.6747 139.858 51.4507 140.272 51.2809Z" fill="#FAFAFA"/>
</g>
<g id="Group_169">
<path id="Vector_153" d="M136.361 48.1134C136.017 48.4475 135.628 48.7339 135.207 48.9641C134.821 49.2494 134.399 49.4832 133.952 49.6591C134.296 49.3243 134.685 49.0372 135.106 48.8048C135.493 48.5228 135.915 48.2908 136.361 48.1134Z" fill="#FAFAFA"/>
</g>
<g id="Group_170">
<path id="Vector_154" d="M139.888 49.3732C139.65 49.0228 139.464 48.6398 139.336 48.2365C139.158 47.8528 139.035 47.4459 138.973 47.0275C139.214 47.3775 139.4 47.762 139.525 48.1678C139.706 48.5493 139.828 48.9555 139.888 49.3732Z" fill="#FAFAFA"/>
</g>
<g id="Group_171">
<path id="Vector_155" d="M130.515 61.0549C130.219 60.6462 129.976 60.2024 129.79 59.7336C129.546 59.2912 129.359 58.8206 129.231 58.3326C129.526 58.7413 129.77 59.1852 129.956 59.6539C130.2 60.0959 130.388 60.5665 130.515 61.0549Z" fill="#FAFAFA"/>
</g>
<g id="Group_172">
<path id="Vector_156" d="M135.846 66.7673C135.505 66.4581 135.208 66.1037 134.964 65.7139C134.673 65.3584 134.429 64.9663 134.238 64.5482C134.58 64.8577 134.878 65.2121 135.124 65.6016C135.416 65.9557 135.66 66.3477 135.846 66.7673Z" fill="#FAFAFA"/>
</g>
<g id="Group_173">
<path id="Vector_157" d="M140.251 64.3708C139.877 64.6138 139.472 64.8038 139.046 64.9356C138.643 65.1256 138.214 65.2559 137.772 65.3229C138.549 64.8889 139.383 64.5681 140.251 64.3708Z" fill="#FAFAFA"/>
</g>
<g id="Group_174">
<path id="Vector_158" d="M129.398 68.9972C129.572 68.3141 129.865 67.6672 130.265 67.0858C130.204 67.4362 130.081 67.7733 129.902 68.0813C129.789 68.4136 129.618 68.7239 129.398 68.9972Z" fill="#FAFAFA"/>
</g>
<g id="Group_175">
<path id="Vector_159" d="M125.983 52.6384C125.773 52.3734 125.647 52.052 125.62 51.7153C125.535 51.3891 125.55 51.0445 125.664 50.7271C125.739 51.0409 125.787 51.3606 125.809 51.6827C125.893 51.9962 125.951 52.3155 125.983 52.6384Z" fill="#FAFAFA"/>
</g>
<g id="Group_176">
<path id="Vector_160" d="M132.046 65.3338C131.659 65.2321 131.291 65.067 130.958 64.8451C130.597 64.6815 130.263 64.4614 129.971 64.1935C130.358 64.297 130.725 64.4621 131.06 64.6822C131.419 64.8487 131.752 65.0681 132.046 65.3338Z" fill="#FAFAFA"/>
</g>
<g id="Group_177">
<path id="Vector_161" d="M135.548 59.3029C134.953 60.0138 134.262 60.6386 133.494 61.1599C133.77 60.7852 134.095 60.4493 134.46 60.1608C134.781 59.8267 135.148 59.5382 135.548 59.3029Z" fill="#FAFAFA"/>
</g>
<g id="Group_178">
<g id="Group_179">
<path id="Vector_162" d="M133.404 59.1907C133.58 60.4526 134.144 61.6287 135.018 62.5573C135.925 63.4406 137.33 63.8858 138.509 63.4261C138.771 63.3544 138.98 63.1596 139.071 62.9048C139.112 62.5866 138.923 62.2836 138.618 62.1808C138.324 62.0867 138.016 62.0425 137.707 62.0505C135.918 61.9332 134.317 60.9008 133.476 59.321" fill="black"/>
</g>
</g>
<g id="Group_180">
<path id="Vector_163" d="M138.121 62.1084C138.121 62.1084 138.037 62.1373 137.878 62.1518C137.653 62.1746 137.427 62.1746 137.203 62.1518C136.869 62.1127 136.542 62.0349 136.227 61.9201C135.449 61.641 134.758 61.1628 134.224 60.5337C134.007 60.2785 133.82 59.9994 133.668 59.7011C133.561 59.5023 133.478 59.2924 133.418 59.0748C133.389 58.9973 133.373 58.9152 133.371 58.8323C133.407 58.8323 133.505 59.1581 133.785 59.6359C133.948 59.9147 134.139 60.1767 134.354 60.4178C134.621 60.7114 134.919 60.9746 135.243 61.2034C135.57 61.4249 135.921 61.6106 136.288 61.7572C136.589 61.8752 136.902 61.9629 137.221 62.0179C137.769 62.0975 138.121 62.0722 138.121 62.1084Z" fill="#017E8A"/>
</g>
<g id="Group_181">
<g id="Group_182">
<path id="Vector_164" d="M145.722 48.0413L145.742 48.0645C146.797 49.3523 147.525 50.8758 147.864 52.5051L148.351 55.9516L140.3 56.582C139.971 55.111 139.983 53.5845 140.334 52.118C140.919 49.5909 145.722 48.0413 145.722 48.0413Z" fill="#017E8A"/>
</g>
<g id="Group_183">
<path id="Vector_165" d="M148.351 55.9515C148.298 55.9657 148.244 55.975 148.189 55.9793L147.727 56.0281L146.002 56.1783L140.17 56.6194L140.069 56.6118L140.077 56.5071C140.095 56.0255 140.119 55.5261 140.147 55.0126C140.23 53.6789 140.345 52.4057 140.512 51.2527C140.646 50.218 141.041 49.2346 141.661 48.394C142.077 47.8286 142.623 47.3714 143.253 47.061C143.424 46.9768 143.602 46.9096 143.785 46.8612C143.847 46.8383 143.912 46.825 143.977 46.8212C143.977 46.8212 143.717 46.8997 143.284 47.1323C142.682 47.4564 142.164 47.9142 141.768 48.471C141.177 49.3079 140.804 50.2781 140.68 51.2943C140.51 52.4363 140.417 53.7075 140.337 55.0414C140.299 55.5469 140.286 56.0507 140.261 56.5281L140.163 56.43L146.012 56.0519L147.739 55.9601L148.206 55.9406C148.255 55.9381 148.303 55.9417 148.351 55.9515Z" fill="#263238"/>
</g>
<g id="Group_184">
<path id="Vector_166" d="M144.634 50.9998C144.086 50.5559 143.622 50.0181 143.263 49.4115C143.556 49.6093 143.812 49.8573 144.019 50.1438C144.274 50.3895 144.483 50.6794 144.634 50.9998Z" fill="#FAFAFA"/>
</g>
<g id="Group_185">
<path id="Vector_167" d="M142.374 54.369C142.286 54.0037 142.262 53.6261 142.303 53.2527C142.277 52.879 142.316 52.5036 142.419 52.1433C142.531 52.8824 142.515 53.635 142.374 54.369Z" fill="#FAFAFA"/>
</g>
<g id="Group_186">
<path id="Vector_168" d="M146.45 53.9426C146.023 53.9778 145.595 53.931 145.186 53.804C144.765 53.7374 144.36 53.5925 143.993 53.3762C144.413 53.4122 144.828 53.4946 145.229 53.6219C145.646 53.6852 146.056 53.7927 146.45 53.9426Z" fill="#FAFAFA"/>
</g>
<g id="Group_187">
<path id="Vector_169" d="M116.836 65.9411L122.12 65.7239L125.631 68.4173L139.996 66.0958L141.062 56.4705L147.394 56.1176L146.507 67.8012C146.209 70.749 143.579 72.9023 140.625 72.6156L119.99 70.4893L119.245 68.668L114.816 68.2012L116.836 65.9411Z" fill="#B88A68"/>
</g>
<g id="Group_188">
<path id="Vector_170" d="M139.833 66.0626C139.744 66.0908 139.652 66.1118 139.559 66.1256L138.777 66.2667L135.891 66.755L126.355 68.3173L125.467 68.4614L125.431 68.4587L125.402 68.4565L121.896 65.754L121.946 65.7578L116.658 65.971L116.696 65.952L115.173 67.6077L114.776 68.0432C114.731 68.0954 114.681 68.1429 114.627 68.1846C114.665 68.1282 114.707 68.0743 114.752 68.0232L115.15 67.5733L116.631 65.889L116.653 65.8907L121.938 65.63L121.967 65.6322L121.989 65.6338L125.503 68.326L125.438 68.3211L126.326 68.177L135.869 66.6624L138.766 66.2223L139.553 66.1106C139.645 66.0873 139.739 66.0711 139.833 66.0626Z" fill="#EB996E"/>
</g>
<g id="Group_189">
<path id="Vector_171" d="M119.583 67.6484C118.901 67.6767 118.218 67.6519 117.54 67.5747L117.178 67.5475L117.23 67.5333C116.793 67.8782 116.325 68.1835 115.833 68.4455C116.237 68.0625 116.673 67.7137 117.135 67.4026L117.158 67.3825L117.56 67.4127C118.239 67.4358 118.916 67.5147 119.583 67.6484Z" fill="#EB996E"/>
</g>
<g id="Group_190">
<path id="Vector_172" d="M142.315 67.8405C142.078 67.3955 141.756 67.0012 141.366 66.6795C140.949 66.4008 140.48 66.2076 139.987 66.111C140.137 66.0714 140.295 66.0705 140.445 66.1091C141.188 66.2445 141.825 66.718 142.167 67.3899C142.255 67.5243 142.306 67.68 142.315 67.8405Z" fill="#EB996E"/>
</g>
</g>
</g>
<g id="Group_191">
<g id="Group_192">
<g id="Group_193">
<path id="Vector_173" d="M43.8497 122.576L45.1154 122.429C46.0155 122.325 46.8822 122.028 47.6564 121.558C48.035 121.321 48.4279 121.107 48.8328 120.918C50.3819 120.239 52.1408 120.293 53.8277 120.15C56.5917 119.919 59.2812 119.137 61.737 117.851C61.8845 117.78 62.0074 117.666 62.089 117.524C62.3341 117.041 61.834 116.634 61.4083 116.391C59.2208 115.145 56.9966 113.886 54.5485 113.311C52.1005 112.737 49.3447 112.941 47.3256 114.432C44.9523 116.184 44.1794 119.645 43.8679 122.575" fill="#017E8A"/>
</g>
<g id="Group_194">
<path id="Vector_174" d="M62.0943 117.357C62.02 117.33 61.9474 117.298 61.8769 117.263L61.2643 116.968C60.7329 116.71 59.9686 116.33 58.9996 115.909C57.8767 115.401 56.7101 114.996 55.5137 114.699C54.0506 114.332 52.5288 114.259 51.0375 114.486C49.5436 114.702 48.148 115.356 47.0275 116.365C46.1549 117.231 45.4683 118.264 45.0097 119.403C44.5957 120.37 44.3438 121.19 44.1665 121.747L43.9596 122.395C43.9397 122.472 43.9132 122.546 43.88 122.618C43.8879 122.539 43.9034 122.461 43.9266 122.385C43.9719 122.22 44.0299 122.001 44.1006 121.731C44.3159 120.932 44.578 120.147 44.8854 119.379C45.3352 118.214 46.0242 117.155 46.9082 116.271C48.0438 115.227 49.468 114.549 50.9958 114.324C52.5072 114.09 54.0503 114.162 55.5336 114.535C56.7369 114.845 57.9091 115.264 59.0355 115.789C59.9978 116.228 60.7553 116.623 61.2801 116.899L61.8792 117.223C61.9563 117.259 62.0286 117.304 62.0943 117.357Z" fill="#263238"/>
</g>
<g id="Group_195">
<path id="Vector_175" d="M59.1002 119.105C59.076 119.142 57.3755 118.126 55.3063 116.833C53.2371 115.54 51.578 114.457 51.5949 114.42C51.6118 114.384 53.3159 115.399 55.3851 116.693C57.4543 117.986 59.1242 119.064 59.1002 119.105Z" fill="#263238"/>
</g>
<g id="Group_196">
<path id="Vector_176" d="M57.3339 114.067C56.496 114.361 55.6049 114.473 54.7201 114.397C55.1479 114.293 55.5847 114.227 56.0242 114.201C56.456 114.119 56.8941 114.074 57.3339 114.067Z" fill="#263238"/>
</g>
<g id="Group_197">
<path id="Vector_177" d="M49.8364 112.984C49.5444 113.744 49.1525 114.461 48.6704 115.117C48.7872 114.727 48.958 114.356 49.1778 114.013C49.3474 113.641 49.5692 113.294 49.8364 112.984Z" fill="#263238"/>
</g>
<g id="Group_198">
<path id="Vector_178" d="M51.5718 120.334C51.2875 120.227 51.015 120.09 50.7594 119.926C50.2674 119.653 49.6037 119.24 48.9053 118.767C48.2069 118.294 47.5706 117.833 47.1165 117.501C46.863 117.334 46.6257 117.145 46.4077 116.934C46.6818 117.065 46.9424 117.222 47.1859 117.404L49.0023 118.63C49.7081 119.106 50.3574 119.523 50.8323 119.826C51.0931 119.974 51.3406 120.144 51.5718 120.334Z" fill="#263238"/>
</g>
<g id="Group_199">
<path id="Vector_179" d="M45.8964 127.899C44.6745 127.618 43.2674 128.842 43.0658 130.076C42.8641 131.311 43.3632 132.548 43.9382 133.67C45.1783 136.162 46.9665 138.343 49.1697 140.049C51.391 141.746 54.1216 142.645 56.9184 142.599C56.3272 140.242 56.889 137.739 56.5249 135.334C55.8572 130.974 52.2598 127.651 47.8517 127.324C47.0766 127.266 46.177 127.176 45.8928 127.899" fill="#017E8A"/>
</g>
<g id="Group_200">
<path id="Vector_180" d="M56.9183 142.599C56.8567 142.58 56.7974 142.556 56.7416 142.525C56.5798 142.441 56.4248 142.344 56.2781 142.236C55.7553 141.812 55.3294 141.281 55.0279 140.68C54.8235 140.324 54.5918 139.912 54.3663 139.467C54.1408 139.021 53.9144 138.551 53.6649 138.041C53.4147 137.519 53.1294 137.014 52.8118 136.53C52.4714 136.014 52.0909 135.525 51.6737 135.068C50.8143 134.126 49.8941 133.316 49.0946 132.535C48.3727 131.856 47.7114 131.115 47.1181 130.322C46.7203 129.784 46.3888 129.2 46.1303 128.583C46.0467 128.365 45.9827 128.19 45.9497 128.071C45.9277 128.012 45.9133 127.951 45.9072 127.888C45.9072 127.888 45.9989 128.131 46.1912 128.56C46.4702 129.159 46.8131 129.727 47.2138 130.254C47.8174 131.029 48.4829 131.754 49.2034 132.422C50.0061 133.193 50.9299 134.002 51.8005 134.955C52.227 135.418 52.6165 135.914 52.9648 136.438C53.2816 136.93 53.5667 137.442 53.8186 137.971L54.5055 139.397C54.7237 139.839 54.9479 140.244 55.149 140.611C55.434 141.207 55.8371 141.739 56.3342 142.176C56.6927 142.476 56.9359 142.583 56.9183 142.599Z" fill="#263238"/>
</g>
<g id="Group_201">
<path id="Vector_181" d="M50.5896 140.834C50.5876 140.559 50.6162 140.285 50.6746 140.016C50.7521 139.514 50.885 138.825 51.0702 138.073C51.2554 137.32 51.4579 136.651 51.6232 136.171C51.6937 135.905 51.7958 135.648 51.9277 135.407C51.8878 135.678 51.8239 135.944 51.7368 136.203C51.6008 136.693 51.4129 137.366 51.2349 138.114C51.0568 138.863 50.9199 139.541 50.7915 140.038C50.7505 140.31 50.6829 140.576 50.5896 140.834Z" fill="#263238"/>
</g>
<g id="Group_202">
<path id="Vector_182" d="M56.4355 134.804C56.1436 134.771 55.8553 134.715 55.573 134.634C55.0463 134.517 54.3183 134.353 53.5108 134.199C52.7033 134.044 51.9661 133.931 51.4333 133.847C51.1415 133.82 50.8533 133.766 50.5711 133.688C50.8638 133.67 51.1577 133.685 51.4475 133.731C51.9865 133.782 52.7304 133.88 53.5412 134.024C54.352 134.167 55.081 134.36 55.6015 134.51C55.8888 134.579 56.1684 134.677 56.4355 134.804Z" fill="#263238"/>
</g>
<g id="Group_203">
<path id="Vector_183" d="M45.954 136.849C45.9571 136.53 45.99 136.213 46.0528 135.9C46.1422 135.321 46.2821 134.52 46.4814 133.648C46.6807 132.775 46.8938 131.989 47.0636 131.426C47.1465 131.117 47.2576 130.816 47.3963 130.527C47.3542 130.842 47.287 131.153 47.1953 131.458C47.0548 132.027 46.8562 132.813 46.6604 133.681C46.4646 134.55 46.3027 135.349 46.1877 135.921C46.1363 136.237 46.0582 136.547 45.954 136.849Z" fill="#263238"/>
</g>
<g id="Group_204">
<path id="Vector_184" d="M53.4837 129.818C53.4851 129.861 51.9616 129.792 50.0945 129.655C48.2274 129.518 46.7122 129.372 46.718 129.329C47.8495 129.324 48.9808 129.377 50.1071 129.488C51.2376 129.54 52.3645 129.65 53.4837 129.818Z" fill="#263238"/>
</g>
<g id="Group_205">
<path id="Vector_185" d="M44.8217 128.382C44.8079 128.445 44.7882 128.506 44.7626 128.565C44.7127 128.701 44.6459 128.87 44.5694 129.075C44.526 129.189 44.4793 129.31 44.4257 129.442C44.3721 129.574 44.3339 129.731 44.2847 129.889L44.117 130.401C44.0615 130.584 44.0168 130.767 43.9625 130.986C43.7133 131.946 43.5244 132.92 43.3967 133.903C43.2551 135.108 43.1747 136.319 43.1559 137.533C43.1445 139.739 43.2817 141.945 43.5663 144.133C43.6708 144.977 43.7698 145.655 43.8436 146.123C43.8727 146.343 43.9005 146.523 43.9198 146.664C43.9266 146.727 43.9288 146.792 43.9262 146.856C43.9014 146.796 43.8847 146.733 43.8764 146.669C43.8463 146.529 43.8114 146.352 43.7678 146.137C43.676 145.669 43.5553 144.992 43.4364 144.152C43.1161 141.96 42.963 139.746 42.9782 137.531C42.9909 136.312 43.0711 135.094 43.2183 133.883C43.3528 132.898 43.5555 131.923 43.824 130.965C43.8824 130.761 43.9302 130.563 43.9894 130.384L44.1681 129.871L44.3273 129.427C44.3807 129.292 44.4348 129.174 44.4818 129.06L44.708 128.56C44.7363 128.495 44.7745 128.435 44.8217 128.382Z" fill="#263238"/>
</g>
<g id="Group_206">
<path id="Vector_186" d="M44.0046 122.118C43.9876 122.206 43.9651 122.292 43.9371 122.377C43.8815 122.557 43.8063 122.802 43.7151 123.109L43.5514 123.636C43.5 123.834 43.4419 124.046 43.3806 124.272C43.2579 124.725 43.1157 125.241 42.9937 125.821L42.7848 126.73C42.7229 127.047 42.6615 127.379 42.5967 127.718C42.4528 128.4 42.3579 129.138 42.2313 129.903C42.0222 131.453 41.8515 133.176 41.7523 134.972C41.653 136.768 41.6569 138.503 41.6878 140.07C41.7187 141.638 41.7879 143.048 41.9073 144.228C41.9454 144.821 42.0031 145.352 42.0479 145.821C42.0927 146.29 42.1353 146.695 42.1753 147.023C42.2154 147.351 42.238 147.593 42.2589 147.784C42.2666 147.872 42.2696 147.96 42.2678 148.048C42.2418 147.964 42.2243 147.877 42.2156 147.789C42.1874 147.598 42.15 147.35 42.0995 147.033C42.0489 146.716 41.9954 146.312 41.943 145.832C41.8906 145.352 41.826 144.832 41.7771 144.24C41.6575 143.056 41.5775 141.646 41.5211 140.076C41.4648 138.506 41.4829 136.777 41.5744 134.967C41.6659 133.156 41.8512 131.437 42.0673 129.879C42.1972 129.104 42.2993 128.365 42.4472 127.694C42.5155 127.351 42.5842 127.019 42.646 126.702L42.8659 125.796C42.9951 125.216 43.1483 124.7 43.2818 124.246C43.3467 124.02 43.4086 123.811 43.4636 123.614C43.5186 123.416 43.5855 123.248 43.6419 123.09L43.8929 122.357C43.921 122.274 43.9585 122.193 44.0046 122.118Z" fill="#263238"/>
</g>
</g>
<g id="Group_207">
<g id="Group_208">
<path id="Vector_187" d="M40.1239 147.852C40.0768 147.854 39.7582 140.084 39.4074 130.491C39.0566 120.897 38.8248 113.124 38.861 113.123C38.8972 113.122 39.2266 120.891 39.5774 130.485C39.9283 140.079 40.1709 147.851 40.1239 147.852Z" fill="#263238"/>
</g>
<g id="Group_209">
<path id="Vector_188" d="M38.671 149.278C38.6664 149.248 38.6653 149.217 38.668 149.187C38.6656 149.118 38.6627 149.032 38.6372 148.92C38.6108 148.675 38.5775 148.332 38.5338 147.895C38.4453 146.989 38.3223 145.703 38.1674 144.115C37.8571 140.927 37.412 136.534 36.7085 131.685C36.3514 129.263 35.9551 126.969 35.5515 124.889C35.3425 123.853 35.1498 122.867 34.9339 121.947C34.7179 121.026 34.5116 120.175 34.3403 119.395C34.1689 118.614 33.9606 117.919 33.7985 117.305C33.6363 116.691 33.4915 116.159 33.3827 115.728C33.2739 115.297 33.1724 114.975 33.1027 114.734C33.0774 114.63 33.0527 114.544 33.0359 114.476C33.0295 114.446 33.0285 114.416 33.0329 114.385C33.0487 114.412 33.0605 114.441 33.0684 114.471L33.1495 114.726C33.2264 114.962 33.3282 115.292 33.462 115.711C33.5958 116.131 33.7551 116.661 33.9245 117.279C34.094 117.896 34.2987 118.588 34.4881 119.368C34.6775 120.148 34.9055 120.995 35.1033 121.916C35.3011 122.836 35.5301 123.821 35.7392 124.861C36.1501 126.941 36.5501 129.238 36.9071 131.657C37.6104 136.502 38.0379 140.91 38.3193 144.102C38.4601 145.702 38.5652 146.992 38.6315 147.888C38.6463 148.326 38.6868 148.669 38.7024 148.918C38.7061 149.026 38.7091 149.117 38.7114 149.186C38.7027 149.218 38.6889 149.249 38.671 149.278Z" fill="#263238"/>
</g>
<g id="Group_210">
<path id="Vector_189" d="M38.8913 116.885C38.7496 115.803 37.6081 114.993 36.4983 115.019C35.3757 115.106 34.3555 115.704 33.7326 116.64C33.1251 117.569 32.6983 118.605 32.4743 119.692C31.8148 122.311 31.5005 125.049 31.9098 127.719C32.3192 130.39 33.4957 132.992 35.4882 134.82C35.8105 135.121 36.2342 135.414 36.6552 135.306C36.8824 135.232 37.0867 135.1 37.2485 134.924C40.9505 131.308 42.9057 126.271 42.6124 121.108C42.5491 120.092 42.3792 119.033 41.7887 118.205C41.1982 117.377 39.8444 116.516 38.8951 116.888" fill="#017E8A"/>
</g>
<g id="Group_211">
<path id="Vector_190" d="M30.317 108.334L28.8529 111.209C28.8188 111.275 28.7742 111.352 28.6982 111.359C28.6222 111.365 28.5508 111.295 28.505 111.227L24.1666 105.061L25.0984 104.49L30.317 108.334Z" fill="#017E8A"/>
</g>
<g id="Group_212">
<g id="Group_213">
<path id="Vector_191" d="M30.3169 108.334L28.8529 111.209C28.8189 111.275 28.7743 111.353 28.6983 111.359C28.6223 111.365 28.5509 111.295 28.5051 111.228L24.1666 105.061L25.0984 104.49L30.3169 108.334Z" fill="black"/>
</g>
</g>
<g id="Group_214">
<path id="Vector_192" d="M38.8619 113.14L24.506 105.317C24.3422 105.261 24.2075 105.141 24.1319 104.985C24.0705 104.781 24.2196 104.573 24.363 104.413C26.2547 102.321 28.9645 101.153 31.7879 101.213C34.621 101.322 37.219 102.817 38.7327 105.21C40.1705 107.586 40.3256 110.791 38.8437 113.14" fill="#017E8A"/>
</g>
<g id="Group_215">
<path id="Vector_193" d="M26.4621 102.604C26.5217 102.585 26.5838 102.576 26.6463 102.576C26.7659 102.572 26.9462 102.537 27.1784 102.533C27.8316 102.502 28.4863 102.531 29.1344 102.62C30.0997 102.752 31.0448 103.004 31.9476 103.371C35.1028 104.663 37.5147 107.295 38.5238 110.546C38.7266 111.169 38.8698 111.809 38.9512 112.459C38.9879 112.686 38.9867 112.867 38.9981 112.99C39.0064 113.051 39.0085 113.113 39.0044 113.174C39.0044 113.174 38.9632 112.922 38.8893 112.454C38.7876 111.814 38.6338 111.183 38.4301 110.567C37.0842 106.399 33.4798 103.357 29.1379 102.725C28.4964 102.625 27.8475 102.578 27.1983 102.583C26.7016 102.603 26.4626 102.618 26.4621 102.604Z" fill="#263238"/>
</g>
<g id="Group_216">
<path id="Vector_194" d="M36.7619 107.481C36.5395 107.626 36.2995 107.743 36.0475 107.827C35.6038 108.019 34.9731 108.265 34.2916 108.512C33.6101 108.76 32.9632 108.955 32.4957 109.087C32.248 109.171 31.9918 109.229 31.7318 109.257C31.9601 109.138 32.2001 109.042 32.4483 108.972L34.2208 108.352L35.9893 107.717C36.2385 107.613 36.4972 107.534 36.7619 107.481Z" fill="#263238"/>
</g>
<g id="Group_217">
<path id="Vector_195" d="M34.3471 101.614C34.49 102.122 34.5639 102.648 34.5664 103.175C34.6253 103.7 34.6138 104.23 34.5323 104.752C34.4471 104.234 34.4026 103.71 34.3999 103.185C34.341 102.663 34.3234 102.138 34.3471 101.614Z" fill="#263238"/>
</g>
<g id="Group_218">
<path id="Vector_196" d="M24.3697 105.168C24.6939 105.006 25.0322 104.873 25.3802 104.772C26.0118 104.551 26.8955 104.272 27.8956 103.999C28.8957 103.727 29.7817 103.516 30.416 103.379C30.7709 103.288 31.1334 103.227 31.4991 103.198C31.1586 103.32 30.8102 103.419 30.4562 103.494C29.8083 103.66 28.9163 103.907 27.9374 104.165C26.9586 104.422 26.071 104.694 25.4203 104.883C25.0768 105.001 24.726 105.096 24.3697 105.168Z" fill="#263238"/>
</g>
<g id="Group_219">
<path id="Vector_197" d="M32.4062 114.487C31.1642 113.611 29.8785 113.484 28.3608 113.581C26.8443 113.729 25.3693 114.157 24.0108 114.845C21.6706 115.959 19.4921 117.564 18.1472 119.775C16.8023 121.986 16.402 124.869 17.5439 127.193C17.636 127.437 17.8145 127.638 18.0458 127.759C18.3119 127.824 18.5926 127.792 18.8379 127.671C21.5097 126.702 24.1958 125.725 26.6333 124.268C29.0709 122.81 31.2655 120.821 32.512 118.276C32.8332 117.681 33.0308 117.028 33.0935 116.355C33.144 115.667 32.895 114.99 32.4102 114.497" fill="#017E8A"/>
</g>
<g id="Group_220">
<path id="Vector_198" d="M32.4184 114.204C32.359 114.24 32.2954 114.269 32.2289 114.29L31.6698 114.504L31.2646 114.651C31.1177 114.711 30.9604 114.781 30.7923 114.855C30.4561 115.004 30.0763 115.155 29.6517 115.372L29.0018 115.694C28.7733 115.806 28.5492 115.944 28.3106 116.079C27.8291 116.334 27.3463 116.658 26.8274 116.987C24.6133 118.461 22.6606 120.292 21.0492 122.406C20.7028 122.9 20.3373 123.365 20.0517 123.831C19.9034 124.06 19.7545 124.275 19.6239 124.493L19.282 125.121C19.0412 125.516 18.8654 125.899 18.6949 126.227C18.6132 126.389 18.5312 126.54 18.4634 126.684C18.3957 126.827 18.3419 126.956 18.2915 127.077L18.0412 127.622C18.0181 127.687 17.986 127.749 17.9458 127.806C17.9613 127.738 17.9834 127.672 18.0118 127.608L18.2289 127.05C18.2793 126.929 18.3329 126.797 18.3897 126.65C18.4465 126.503 18.5321 126.352 18.61 126.186C18.773 125.851 18.9483 125.45 19.1748 125.063C19.2914 124.859 19.4076 124.645 19.5163 124.424C19.625 124.203 19.792 123.988 19.9366 123.755C20.2184 123.282 20.5692 122.814 20.9263 122.313C21.7366 121.248 22.6301 120.249 23.5991 119.326C24.5795 118.416 25.6323 117.588 26.7465 116.848C27.269 116.519 27.7592 116.199 28.2444 115.947C28.4868 115.816 28.7146 115.682 28.9574 115.561L29.6185 115.249C30.0361 115.036 30.4305 114.893 30.7743 114.751C30.9462 114.684 31.1037 114.617 31.2543 114.561L31.6635 114.424L32.2346 114.242C32.295 114.225 32.3563 114.212 32.4184 114.204Z" fill="#263238"/>
</g>
<g id="Group_221">
<path id="Vector_199" d="M23.1334 119.628C22.1815 120.027 21.2093 120.375 20.2205 120.671C19.2489 121.022 18.2576 121.318 17.2516 121.556C18.2035 121.157 19.1756 120.809 20.1644 120.513C21.1369 120.164 22.1282 119.868 23.1334 119.628Z" fill="#263238"/>
</g>
<g id="Group_222">
<path id="Vector_200" d="M23.2274 126.101C23.168 125.8 23.1356 125.495 23.1315 125.188C23.1125 124.623 23.0862 123.838 23.0573 122.977C23.0284 122.116 23.0744 121.329 23.1025 120.763C23.0994 120.455 23.1283 120.149 23.1878 119.847C23.2223 120.152 23.2326 120.46 23.2186 120.766C23.2177 121.385 23.2212 122.139 23.2239 122.975C23.2267 123.812 23.2374 124.565 23.2401 125.184C23.2638 125.49 23.2596 125.796 23.2274 126.101Z" fill="#263238"/>
</g>
<g id="Group_223">
<path id="Vector_201" d="M28.703 123.1C28.6559 123.102 28.4541 121.519 28.2541 119.559C28.0541 117.598 27.9244 116.005 27.9715 116.004C28.0186 116.002 28.2167 117.582 28.4203 119.542C28.624 121.502 28.75 123.095 28.703 123.1Z" fill="#263238"/>
</g>
<g id="Group_224">
<path id="Vector_202" d="M21.5292 116.063C21.8404 116.013 22.156 115.993 22.4711 116.002C23.0513 115.983 23.8571 115.978 24.7466 115.977C25.6361 115.977 26.4388 115.986 27.0201 116C27.3354 115.993 27.6504 116.013 27.9624 116.059C27.6511 116.109 27.3356 116.129 27.0205 116.119C26.4402 116.139 25.6345 116.147 24.7449 116.144C23.8554 116.141 23.0528 116.135 22.4678 116.122C22.1537 116.129 21.8397 116.109 21.5292 116.063Z" fill="#263238"/>
</g>
<g id="Group_225">
<path id="Vector_203" d="M36.1182 135.552C36.1001 135.489 36.0903 135.423 36.0899 135.357C36.0851 135.216 36.0789 135.032 36.046 134.808C36.0081 134.328 35.9813 133.637 35.9777 132.775C35.9741 131.913 35.9871 130.895 36.0506 129.762C36.1142 128.63 36.2392 127.384 36.4241 126.084C36.609 124.785 36.851 123.564 37.0998 122.44C37.3487 121.316 37.6281 120.347 37.8832 119.516C38.1383 118.685 38.3564 118.051 38.5441 117.589C38.624 117.376 38.6878 117.222 38.7408 117.071C38.7608 117.01 38.7868 116.951 38.8183 116.895C38.8125 116.959 38.7961 117.022 38.7701 117.081L38.5814 117.62C38.4298 118.074 38.2229 118.719 37.9863 119.56C37.7497 120.401 37.4926 121.387 37.2427 122.482C36.9929 123.577 36.7658 124.809 36.5772 126.105C36.3885 127.4 36.2745 128.65 36.1958 129.765C36.1172 130.879 36.0866 131.913 36.0863 132.768C36.086 133.622 36.0912 134.318 36.1074 134.799C36.1149 135.023 36.121 135.204 36.1259 135.349C36.1281 135.416 36.1253 135.484 36.1182 135.552Z" fill="#263238"/>
</g>
<g id="Group_226">
<path id="Vector_204" d="M36.5348 125.943C36.3777 126.173 36.1961 126.385 35.9934 126.577C35.643 126.95 35.1407 127.453 34.5707 127.99C34.0007 128.527 33.4609 128.99 33.0617 129.319C32.8583 129.508 32.6352 129.674 32.396 129.815C32.5735 129.601 32.7709 129.404 32.986 129.227L34.4541 127.867L35.9107 126.492C36.1007 126.29 36.3097 126.106 36.5348 125.943Z" fill="#263238"/>
</g>
<g id="Group_227">
<path id="Vector_205" d="M41.1121 129.373C40.8829 129.121 40.6735 128.852 40.4861 128.568L39.0293 126.587L37.5406 124.63C37.3209 124.37 37.1211 124.093 36.9429 123.802C37.1963 124.031 37.4273 124.283 37.6324 124.555C38.0407 125.037 38.5861 125.715 39.1494 126.489C39.7127 127.264 40.223 127.975 40.5709 128.5C40.7783 128.773 40.9595 129.065 41.1121 129.373Z" fill="#263238"/>
</g>
<g id="Group_228">
<path id="Vector_206" d="M38.3986 118.188C38.4253 118.227 36.9829 119.271 35.1699 120.519C33.3569 121.768 31.8689 122.752 31.8422 122.713C31.8155 122.674 33.2578 121.63 35.0745 120.381C36.8912 119.133 38.3756 118.152 38.3986 118.188Z" fill="#263238"/>
</g>
<g id="Group_229">
<path id="Vector_207" d="M42.7424 122.552C41.9392 121.929 41.1694 121.264 40.4357 120.561C39.6661 119.901 38.9335 119.2 38.2415 118.46C39.0475 119.081 39.8188 119.746 40.5518 120.452C41.3217 121.109 42.0532 121.811 42.7424 122.552Z" fill="#263238"/>
</g>
<g id="Group_230">
<path id="Vector_208" d="M52.9123 148.005C52.9139 148.052 47.595 148.266 41.0346 148.485C34.4742 148.704 29.1528 148.845 29.1512 148.798C29.1497 148.751 34.4686 148.537 41.029 148.318C47.5894 148.099 52.9107 147.958 52.9123 148.005Z" fill="#455A64"/>
</g>
</g>
<g id="Group_231">
<path id="Vector_209" d="M29.2563 145.26H52.9509V148.507H29.2563V145.26Z" fill="#263238"/>
</g>
<g id="Group_232">
<path id="Vector_210" d="M52.9907 148.55H29.2163V145.22H52.9907V148.55ZM29.2961 148.467H52.9109V145.299H29.2961V148.467Z" fill="#263238"/>
</g>
<g id="Group_233">
<path id="Vector_211" d="M31.4553 147.428L34.8626 164.214H47.4827L50.7811 148.51L31.4553 147.428Z" fill="#263238"/>
</g>
<g id="Group_234">
<path id="Vector_212" d="M31.4553 162.625L33.2732 165.123H48.6112L50.7811 162.625H31.4553Z" fill="#455A64"/>
</g>
<g id="Group_235">
<path id="Vector_213" d="M49.2897 155.327C49.2897 155.374 45.701 155.414 41.2778 155.414C36.8546 155.414 33.2695 155.374 33.2695 155.327C33.2695 155.28 36.8546 155.244 41.2778 155.244C45.701 155.244 49.2897 155.298 49.2897 155.327Z" fill="#455A64"/>
</g>
<g id="Group_236">
<path id="Vector_214" d="M49.4276 156.304C49.4276 156.351 45.8426 156.388 41.4194 156.388C36.9962 156.388 33.4111 156.351 33.4111 156.304C33.4111 156.257 36.9962 156.221 41.4194 156.221C45.8426 156.221 49.4276 156.257 49.4276 156.304Z" fill="#455A64"/>
</g>
<g id="Group_237">
<path id="Vector_215" d="M49.4274 154.523C49.4274 154.57 45.719 154.607 41.1434 154.607C36.5678 154.607 32.8594 154.57 32.8594 154.523C32.8594 154.476 36.5678 154.44 41.1434 154.44C45.719 154.44 49.4274 154.476 49.4274 154.523Z" fill="#455A64"/>
</g>
</g>
<g id="Group_238">
<g id="Group_239">
<path id="Vector_216" d="M26.4443 25.9155H59.7329V74.0543H26.4443V25.9155Z" fill="#C2BBBB"/>
</g>
<g id="Group_240">
<path id="Vector_217" d="M24.7756 25.9155H58.0642V74.0543H24.7756V25.9155Z" fill="#F5F5F5"/>
</g>
<g id="Group_241">
<path id="Vector_218" d="M28.9116 31.1283H53.9306V68.8378H28.9116V31.1283Z" fill="white"/>
</g>
<g id="Group_242">
<path id="Vector_219" d="M53.9306 68.8415C53.9306 68.8415 53.9306 68.7763 53.9306 68.6569C53.9306 68.5374 53.9306 68.3528 53.9306 68.1211C53.9306 67.6469 53.9306 66.9518 53.9306 66.0541C53.9306 64.2441 53.9306 61.6123 53.9052 58.2856C53.9052 51.6356 53.8834 42.2164 53.8653 31.1356L53.9487 31.2188H28.9333L29.024 31.1283C29.024 45.3549 29.024 58.4702 29.024 68.8415L28.9515 68.7691L47.1633 68.8053L52.1925 68.8234H53.5133H53.9705H53.5278H52.2215H47.2068L28.9515 68.8596H28.8789V68.7872C28.8789 58.4159 28.8789 45.3006 28.8789 31.074V30.9835H28.9733H53.9886H54.0721V31.1319C54.0721 42.2453 54.0394 51.6791 54.0322 58.3435C54.0322 61.663 54.014 64.2875 54.0068 66.0903C54.0068 66.9844 54.0068 67.6722 54.0068 68.1428C54.0068 68.3709 54.0068 68.5483 54.0068 68.6677C54.0068 68.7872 53.9306 68.8415 53.9306 68.8415Z" fill="#E0E0E0"/>
</g>
<g id="Group_243">
<path id="Vector_220" d="M58.1615 25.9155C57.9895 26.2232 57.7903 26.5154 57.5664 26.7879C57.1818 27.302 56.6303 28.0043 56.0061 28.7645C55.382 29.5247 54.7942 30.1944 54.3588 30.6722C54.14 30.9423 53.8972 31.1917 53.6331 31.4179C53.821 31.1243 54.0333 30.8471 54.2681 30.5889L55.8719 28.6486L57.4685 26.6974C57.6767 26.4176 57.9086 26.1563 58.1615 25.9155Z" fill="#E0E0E0"/>
</g>
<g id="Group_244">
<path id="Vector_221" d="M54.0576 68.7184C55.3 70.6859 56.7605 72.5074 58.4119 74.1484L54.0576 68.7184Z" fill="white"/>
</g>
<g id="Group_245">
<path id="Vector_222" d="M58.4228 74.1629C58.1437 73.9616 57.8879 73.7295 57.6608 73.4714C57.0805 72.8832 56.5308 72.2656 56.0134 71.6216C55.411 70.865 54.9067 70.1447 54.562 69.6125C54.3638 69.3316 54.1937 69.0322 54.054 68.7184C54.2782 68.9769 54.4832 69.2516 54.6672 69.5401C55.03 70.0542 55.5526 70.7564 56.1513 71.5058C56.75 72.2551 57.3306 72.914 57.7515 73.3846C57.9935 73.6275 58.2181 73.8877 58.4228 74.1629Z" fill="#E0E0E0"/>
</g>
<g id="Group_246">
<path id="Vector_223" d="M24.7715 74.0145L29.1258 68.6497L24.7715 74.0145Z" fill="white"/>
</g>
<g id="Group_247">
<path id="Vector_224" d="M29.133 68.6497C28.4763 69.5985 27.7712 70.5129 27.0212 71.39C26.3191 72.3044 25.5683 73.1808 24.7715 74.0145C25.4283 73.0657 26.1333 72.1513 26.8833 71.2742C27.5854 70.3597 28.3362 69.4833 29.133 68.6497Z" fill="#E0E0E0"/>
</g>
<g id="Group_248">
<path id="Vector_225" d="M24.7756 25.9155C25.5278 26.721 26.2354 27.567 26.8947 28.4495C27.6008 29.2923 28.2598 30.1734 28.8687 31.0885C28.1179 30.2831 27.4114 29.4371 26.7532 28.5545C26.046 27.7118 25.386 26.8307 24.7756 25.9155Z" fill="#E0E0E0"/>
</g>
<g id="Group_249">
<path id="Vector_226" d="M37.7581 38.7847H46.1364V62.5138H37.7581V38.7847Z" fill="#BDB5B5"/>
</g>
</g>
<g id="Group_250">
<g id="Group_251">
<path id="Vector_227" d="M104.614 18.9V39.9829H74.265L73.1729 19.0484L104.614 18.9Z" fill="#E0E0E0"/>
</g>
<g id="Group_252">
<path id="Vector_228" d="M73.1694 39.9359V19.0485H103.519V39.9359H73.1694Z" fill="white"/>
</g>
<g id="Group_253">
<path id="Vector_229" d="M103.664 40.0809H73.0278V18.9039H103.664V40.0809ZM73.3181 39.7949H103.377V19.1863H73.3181V39.7949Z" fill="#E0E0E0"/>
</g>
<g id="Group_254">
<path id="Vector_230" d="M76.4604 21.6439H100.235V37.3402H76.4604V21.6439Z" fill="white"/>
</g>
<g id="Group_255">
<path id="Vector_231" d="M100.235 21.644H99.7778H98.4715H93.5729L76.4606 21.72L76.5295 21.6512C76.5295 26.4477 76.5295 31.7619 76.5295 37.3475L76.4569 37.2751H100.231L100.17 37.3331C100.17 32.5583 100.195 28.6451 100.202 25.912C100.202 24.5508 100.202 23.4866 100.202 22.7553C100.202 22.3933 100.202 22.1182 100.202 21.9263C100.202 21.7345 100.202 21.6367 100.202 21.6367C100.202 21.6367 100.202 21.7272 100.202 21.9119C100.202 22.0965 100.202 22.3752 100.202 22.73C100.202 23.454 100.202 24.5183 100.22 25.8758C100.22 28.6125 100.239 32.5438 100.249 37.3331V37.3946H100.191H76.417H76.3408V37.3186C76.3408 31.7329 76.3408 26.4188 76.3408 21.6223V21.5752H76.4098L93.5693 21.6078L98.4533 21.6295H99.7451H100.184L100.235 21.644Z" fill="#E0E0E0"/>
</g>
<g id="Group_256">
<path id="Vector_232" d="M103.522 19.0485C103.023 19.5383 102.49 19.9918 101.926 20.406C101.392 20.8577 100.827 21.2715 100.235 21.644C100.734 21.1542 101.268 20.7006 101.831 20.2865C102.364 19.8336 102.929 19.4199 103.522 19.0485Z" fill="#E0E0E0"/>
</g>
<g id="Group_257">
<path id="Vector_233" d="M103.497 39.9395L100.112 37.2028L103.497 39.9395Z" fill="white"/>
</g>
<g id="Group_258">
<path id="Vector_234" d="M100.112 37.2028C100.72 37.601 101.302 38.0386 101.853 38.5132C102.433 38.9512 102.982 39.428 103.497 39.9395C102.888 39.5434 102.307 39.1058 101.759 38.629C101.177 38.1928 100.626 37.7161 100.112 37.2028Z" fill="#E0E0E0"/>
</g>
<g id="Group_259">
<path id="Vector_235" d="M81.2864 31.7908V26.5345H96.247V31.7908H81.2864Z" fill="#E0E0E0"/>
</g>
</g>
</g>
</g>
</g>
</g>
<defs>
<clipPath id="clip0_838_820">
<rect width="254" height="181" fill="white" transform="translate(0.5)"/>
</clipPath>
</defs>
</svg>
